{
.formatVersion = 3;
axes = (
{
name = Weight;
tag = wght;
}
);
classes = (
{
code = "comma one two A O o Scedilla scedilla Tcedilla tcedilla quoteleft quoteright quotesinglbase quotedblleft quotedblright quotedblbase";
name = aalt;
},
{
code = "comma.ss01 onesuperior twosuperior ordfeminine ordmasculine ordmasculine Scommaaccent scommaaccent Tcommaaccent tcommaaccent quoteleft.ss01 quoteright.ss01 quotesinglbase.ss01 quotedblleft.ss01 quotedblright.ss01 quotedblbase.ss01";
name = aalt2;
},
{
code = "zero one two three four five six seven eight nine";
name = ordn_pnum_tnum;
},
{
code = "zero.tnum one.tnum two.tnum three.tnum four.tnum five.tnum six.tnum seven.tnum eight.tnum nine.tnum";
name = pnum_tnum;
},
{
code = "comma quoteleft quoteright quotesinglbase quotedblleft quotedblright quotedblbase";
name = salt_ss01;
},
{
code = "comma.ss01 quoteleft.ss01 quoteright.ss01 quotesinglbase.ss01 quotedblleft.ss01 quotedblright.ss01 quotedblbase.ss01";
name = salt_ss012;
},
{
code = "shacyr shchacyr icyr ishortcyr igravecyr vecyr zecyr decyr elcyr Elcyr Decyr gecyr Kacyr kacyr Zhecyr zhecyr pecyr tecyr.loclBGR tsecyr yucyr";
name = loclBGR;
},
{
code = "shacyr.loclBGR shchacyr.loclBGR icyr.loclBGR ishortcyr.loclBGR igravecyr.loclBGR vecyr.loclBGR zecyr.loclBGR decyr.loclBGR elcyr.loclBGR Elcyr.loclBGR Decyr.loclBGR gecyr.loclBGR Kacyr.loclBGR kacyr.loclBGR Zhecyr.loclBGR zhecyr.loclBGR pecyr.loclBGR tecyr.loclBGR tsecyr.loclBGR yucyr.loclBGR";
name = loclBGR2;
},
{
code = "Acyr Iecyr Icyr Ocyr Ucyr Ylongcyr Yucyr Yacyr Iocyr Iukrcyr Eukrcyr acyr iecyr icyr ocyr ucyr ylongcyr yucyr yacyr iocyr iukrcyr eukrcyr";
name = liga3;
}
);
familyName = "Wladi Sans VF";
customParameters = (
{
name = glyphOrder;
value = (
.notdef,
NULL,
CR,
space,
exclam,
quotedbl,
numbersign,
dollar,
percent,
ampersand,
quotesingle,
parenleft,
parenright,
asterisk,
plus,
comma,
hyphen,
period,
slash,
zero,
one,
two,
three,
four,
five,
six,
seven,
eight,
nine,
colon,
semicolon,
less,
equal,
greater,

glyphs = (
{
glyphname = exclam;
layers = (
{
layerId = "8E574D32-79B1-4C19-B318-CDC7DA43E89A";
shapes = (
{
closed = 1;
nodes = (
(84,248,l),
(145,700,l),
(328,700,l),
(229,248,l)
);
},
{
closed = 1;
nodes = (
(93,-8,o),
(37,46,o),
(37,84,qs),
(37,124,o),
(93,178,o),
(139,178,qs),
(184,178,o),
(240,124,o),
(240,84,qs),
(240,46,o),
(184,-8,o),
(139,-8,qs)
);
}
);
width = 334;
},
{
layerId = "45EFDBD1-9215-4FBA-A8FC-D2A4A2D194F0";
shapes = (
{
closed = 1;
nodes = (
(65,197,l),
(144,700,l),
(239,700,l),
(139,197,l)
);
},
{
closed = 1;
nodes = (
(59,-6,o),
(26,29,o),
(26,54,qs),
(26,79,o),
(59,112,o),
(85,112,qs),
(111,112,o),
(145,79,o),
(145,54,qs),
(145,29,o),
(111,-6,o),
(85,-6,qs)
);
}
);
width = 239;
},
{
layerId = "E8D95BBD-8C7B-4E49-82A7-0CC1B9EBDD01";
shapes = (
{
closed = 1;
nodes = (
(57,176,l),
(143,700,l),
(203,700,l),
(103,176,l)
);
},
{
closed = 1;
nodes = (
(46,-5,o),
(21,22,o),
(21,42,qs),
(21,61,o),
(46,86,o),
(64,86,qs),
(82,86,o),
(107,61,o),
(107,42,qs),
(107,22,o),
(82,-5,o),
(64,-5,qs)
);
}
);
width = 201;
}
);
unicode = 33;
},
{
glyphname = quotedbl;
layers = (
{
layerId = "8E574D32-79B1-4C19-B318-CDC7DA43E89A";
shapes = (
{
closed = 1;
nodes = (
(289,534,l),
(314,755,l),
(456,755,l),
(404,534,l)
);
},
{
closed = 1;
nodes = (
(99,534,l),
(124,755,l),
(265,755,l),
(214,534,l)
);
}
);
width = 400;
},
{
layerId = "45EFDBD1-9215-4FBA-A8FC-D2A4A2D194F0";
shapes = (
{
closed = 1;
nodes = (
(230,557,l),
(253,755,l),
(336,755,l),
(290,557,l)
);
},
{
closed = 1;
nodes = (
(97,557,l),
(120,755,l),
(203,755,l),
(158,557,l)
);
}
);
width = 277;
},
{
layerId = "E8D95BBD-8C7B-4E49-82A7-0CC1B9EBDD01";
shapes = (
{
closed = 1;
nodes = (
(206,566,l),
(228,755,l),
(288,755,l),
(245,566,l)
);
},
{
closed = 1;
nodes = (
(96,566,l),
(119,755,l),
(178,755,l),
(135,566,l)
);
}
);
width = 228;
}
);
leftKerningGroup = quotedbl2;
rightKerningGroup = quotedbl;
unicode = 34;
},
{
glyphname = numbersign;
layers = (
{
layerId = "8E574D32-79B1-4C19-B318-CDC7DA43E89A";
shapes = (
{
closed = 1;
nodes = (
(404,0,l),
(464,153,l),
(298,153,l),
(238,0,l),
(78,0,l),
(138,153,l),
(-10,153,l),
(18,307,l),
(198,307,l),
(249,438,l),
(105,438,l),
(132,592,l),
(309,592,l),
(367,740,l),
(527,740,l),
(469,592,l),
(635,592,l),
(693,740,l),
(853,740,l),
(795,592,l),
(919,592,l),
(892,438,l),
(735,438,l),
(684,307,l),
(805,307,l),
(777,153,l),
(624,153,l),
(564,0,l)
);
},
{
closed = 1;
nodes = (
(524,307,l),
(575,438,l),
(409,438,l),
(358,307,l)
);
}
);
width = 892;
},
{
layerId = "45EFDBD1-9215-4FBA-A8FC-D2A4A2D194F0";
shapes = (
{
closed = 1;
nodes = (
(388,0,l),
(464,195,l),
(252,195,l),
(176,0,l),
(92,0,l),
(168,195,l),
(26,195,l),
(40,273,l),
(199,273,l),
(262,434,l),
(113,434,l),
(126,513,l),
(293,513,l),
(368,707,l),
(452,707,l),
(376,513,l),
(588,513,l),
(664,707,l),
(747,707,l),
(671,513,l),
(809,513,l),
(796,434,l),
(641,434,l),
(578,273,l),
(723,273,l),
(709,195,l),
(548,195,l),
(472,0,l)
);
},
{
closed = 1;
nodes = (
(495,273,l),
(557,434,l),
(345,434,l),
(282,273,l)
);
}
);
width = 804;
},
{
layerId = "E8D95BBD-8C7B-4E49-82A7-0CC1B9EBDD01";
shapes = (
{
closed = 1;
nodes = (
(381,0,l),
(464,212,l),
(233,212,l),
(151,0,l),
(98,0,l),
(180,212,l),
(41,212,l),
(49,260,l),
(199,260,l),
(267,433,l),
(116,433,l),
(123,482,l),
(286,482,l),
(368,694,l),
(422,694,l),
(339,482,l),
(569,482,l),
(652,694,l),
(705,694,l),
(622,482,l),
(765,482,l),
(758,433,l),
(603,433,l),
(536,260,l),
(690,260,l),
(682,212,l),
(517,212,l),
(435,0,l)
);
},
{
closed = 1;
nodes = (
(483,260,l),
(550,433,l),
(320,433,l),
(252,260,l)
);
}
);
width = 769;
}
);
unicode = 35;
},
{
glyphname = dollar;
layers = (
{
layerId = "8E574D32-79B1-4C19-B318-CDC7DA43E89A";
shapes = (
{
closed = 1;
nodes = (
(203,-87,l),
(358,792,l),
(421,792,l),
(266,-87,l)
);
},
{
closed = 1;
nodes = (
(213,-12,o),
(125,12,o),
(61,58,o),
(25,129,o),
(25,175,qs),
(25,184,o),
(26,202,o),
(28,212,q),
(211,212,l),
(210,206,o),
(210,202,o),
(210,199,qs),
(210,167,o),
(252,131,o),
(287,131,qs),
(325,131,o),
(373,172,o),
(373,204,qs),
(373,224,o),
(348,253,o),
(307,276,o),
(255,295,o),
(227,305,qs),
(161,328,o),
(86,413,o),
(86,474,qs),
(86,528,o),
(130,615,o),
(207,678,o),
(313,712,o),
(376,712,qs),
(426,712,o),
(508,688,o),
(566,643,o),
(598,576,o),
(598,533,qs),
(598,525,o),
(597,510,o),
(596,502,q),
(411,502,l),
(412,507,o),
(412,512,o),
(412,518,qs),
(412,529,o),
(403,548,o),
(386,561,o),
(361,569,o),
(345,569,qs),
(327,569,o),
(300,559,o),
(281,543,o),
(271,520,o),
(271,507,qs),
(271,489,o),
(290,464,o),
(322,444,o),
(366,427,o),
(390,418,qs),
(424,406,o),
(485,372,o),
(532,326,o),
(560,265,o),
(560,227,qs),
(560,172,o),
(515,84,o),
(436,22,o),
(328,-12,o),
(265,-12,qs)
);
}
);
width = 605;
},
{
layerId = "45EFDBD1-9215-4FBA-A8FC-D2A4A2D194F0";
shapes = (
{
closed = 1;
nodes = (
(199,-87,l),
(354,791,l),
(408,791,l),
(253,-87,l)
);
},
{
closed = 1;
nodes = (
(210,-12,o),
(125,14,o),
(64,62,o),
(31,129,o),
(31,170,qs),
(31,180,o),
(33,200,o),
(35,211,q),
(127,211,l),
(126,203,o),
(125,190,o),
(125,183,qs),
(125,129,o),
(204,62,o),
(272,62,qs),
(350,62,o),
(432,138,o),
(432,200,qs),
(432,233,o),
(398,276,o),
(344,305,o),
(276,327,o),
(241,340,qs),
(175,364,o),
(110,447,o),
(110,501,qs),
(110,549,o),
(146,626,o),
(212,682,o),
(304,712,o),
(359,712,qs),
(405,712,o),
(479,688,o),
(532,645,o),
(561,585,o),
(561,549,qs),
(561,541,o),
(559,525,o),
(557,517,q),
(465,517,l),
(466,522,o),
(467,531,o),
(467,536,qs),
(467,555,o),
(452,592,o),
(422,620,o),
(377,637,o),
(347,637,qs),
(314,637,o),
(261,618,o),
(224,586,o),
(203,541,o),
(203,514,qs),
(203,486,o),
(231,449,o),
(279,421,o),
(344,398,o),
(381,385,qs),
(412,375,o),
(464,343,o),
(503,300,o),
(526,246,o),
(526,212,qs),
(526,161,o),
(488,78,o),
(418,20,o),
(321,-12,o),
(262,-12,qs)
);
}
);
width = 578;
},
{
layerId = "E8D95BBD-8C7B-4E49-82A7-0CC1B9EBDD01";
shapes = (
{
closed = 1;
nodes = (
(197,-87,l),
(352,791,l),
(403,791,l),
(248,-87,l)
);
},
{
closed = 1;
nodes = (
(209,-12,o),
(125,15,o),
(65,63,o),
(33,129,o),
(33,168,qs),
(33,178,o),
(36,199,o),
(38,210,q),
(94,210,l),
(92,202,o),
(91,185,o),
(91,177,qs),
(91,114,o),
(185,35,o),
(266,35,qs),
(360,35,o),
(455,124,o),
(455,199,qs),
(455,237,o),
(418,285,o),
(359,317,o),
(284,340,o),
(246,354,qs),
(180,379,o),
(119,461,o),
(119,512,qs),
(119,557,o),
(152,630,o),
(214,683,o),
(300,712,o),
(352,712,qs),
(396,712,o),
(467,688,o),
(518,646,o),
(546,589,o),
(546,555,qs),
(546,547,o),
(544,531,o),
(542,523,q),
(487,523,l),
(488,528,o),
(489,539,o),
(489,543,qs),
(489,566,o),
(472,609,o),
(437,643,o),
(384,664,o),
(348,664,qs),
(309,664,o),
(246,642,o),
(201,603,o),
(176,549,o),
(176,517,qs),
(176,485,o),
(208,443,o),
(262,412,o),
(335,387,o),
(377,372,qs),
(407,362,o),
(456,331,o),
(492,290,o),
(512,238,o),
(512,206,qs),
(512,157,o),
(477,76,o),
(411,19,o),
(318,-12,o),
(261,-12,qs)
);
}
);
width = 567;
}
);
leftKerningGroup = S2;
rightKerningGroup = S;
unicode = 36;
},
{
glyphname = percent;
layers = (
{
layerId = "8E574D32-79B1-4C19-B318-CDC7DA43E89A";
shapes = (
{
closed = 1;
nodes = (
(207,338,o),
(148,359,o),
(105,399,o),
(80,455,o),
(80,489,qs),
(80,537,o),
(113,618,o),
(170,678,o),
(249,712,o),
(295,712,qs),
(329,712,o),
(387,691,o),
(430,652,o),
(454,596,o),
(454,561,qs),
(454,513,o),
(422,432,o),
(365,372,o),
(287,338,o),
(241,338,qs)
);
},
{
closed = 1;
nodes = (
(160,0,l),
(667,700,l),
(832,700,l),
(325,0,l)
);
},
{
closed = 1;
nodes = (
(268,450,o),
(293,465,o),
(312,492,o),
(323,528,o),
(323,549,qs),
(323,575,o),
(302,601,o),
(280,601,qs),
(265,601,o),
(240,586,o),
(222,559,o),
(211,522,o),
(211,501,qs),
(211,476,o),
(233,450,o),
(253,450,qs)
);
},
{
closed = 1;
nodes = (
(666,-12,o),
(608,9,o),
(564,48,o),
(539,104,o),
(539,139,qs),
(539,186,o),
(572,268,o),
(629,328,o),
(708,362,o),
(754,362,qs),
(788,362,o),
(846,341,o),
(889,302,o),
(914,246,o),
(914,211,qs),
(914,164,o),
(882,82,o),
(825,22,o),
(747,-12,o),
(700,-12,qs)
);
},
{
closed = 1;
nodes = (
(728,100,o),
(753,115,o),
(771,142,o),
(782,178,o),
(782,199,qs),
(782,225,o),
(761,251,o),
(739,251,qs),
(724,251,o),
(699,236,o),
(681,209,o),
(671,172,o),
(671,151,qs),
(671,125,o),
(692,100,o),
(713,100,qs)
);
}
);
width = 958;
},
{
layerId = "45EFDBD1-9215-4FBA-A8FC-D2A4A2D194F0";
shapes = (
{
closed = 1;
nodes = (
(189,373,o),
(138,393,o),
(101,428,o),
(81,481,o),
(81,513,qs),
(81,553,o),
(111,625,o),
(162,679,o),
(233,711,o),
(272,711,qs),
(303,711,o),
(353,692,o),
(389,656,o),
(410,605,o),
(410,572,qs),
(410,531,o),
(381,458,o),
(329,404,o),
(260,373,o),
(220,373,qs)
);
},
{
closed = 1;
nodes = (
(91,0,l),
(620,700,l),
(707,700,l),
(179,0,l)
);
},
{
closed = 1;
nodes = (
(250,439,o),
(289,459,o),
(319,493,o),
(337,539,o),
(337,565,qs),
(337,607,o),
(295,647,o),
(264,647,qs),
(241,647,o),
(201,627,o),
(172,592,o),
(155,546,o),
(155,520,qs),
(155,478,o),
(197,439,o),
(228,439,qs)
);
},
{
closed = 1;
nodes = (
(502,-12,o),
(452,7,o),
(415,43,o),
(394,95,o),
(394,128,qs),
(394,168,o),
(424,241,o),
(475,295,o),
(546,326,o),
(585,326,qs),
(616,326,o),
(666,307,o),
(702,271,o),
(723,220,o),
(723,187,qs),
(723,147,o),
(693,74,o),
(641,20,o),
(573,-12,o),
(532,-12,qs)
);
},
{
closed = 1;
nodes = (
(564,54,o),
(603,74,o),
(632,108,o),
(649,154,o),
(649,180,qs),
(649,222,o),
(608,262,o),
(577,262,qs),
(555,262,o),
(515,242,o),
(485,207,o),
(468,161,o),
(468,135,qs),
(468,93,o),
(510,54,o),
(541,54,qs)
);
}
);
width = 768;
},
{
layerId = "E8D95BBD-8C7B-4E49-82A7-0CC1B9EBDD01";
shapes = (
{
closed = 1;
nodes = (
(182,387,o),
(134,406,o),
(100,440,o),
(81,491,o),
(81,522,qs),
(81,560,o),
(110,628,o),
(159,680,o),
(226,711,o),
(263,711,qs),
(292,711,o),
(339,693,o),
(373,658,o),
(392,608,o),
(392,576,qs),
(392,538,o),
(364,469,o),
(314,417,o),
(249,387,o),
(211,387,qs)
);
},
{
closed = 1;
nodes = (
(63,0,l),
(601,700,l),
(657,700,l),
(120,0,l)
);
},
{
closed = 1;
nodes = (
(243,434,o),
(288,456,o),
(322,493,o),
(342,544,o),
(342,572,qs),
(342,620,o),
(292,665,o),
(257,665,qs),
(232,665,o),
(186,643,o),
(152,605,o),
(132,555,o),
(132,527,qs),
(132,479,o),
(183,434,o),
(218,434,qs)
);
},
{
closed = 1;
nodes = (
(437,-12,o),
(389,6,o),
(355,41,o),
(336,91,o),
(336,123,qs),
(336,161,o),
(365,230,o),
(414,282,o),
(481,312,o),
(518,312,qs),
(547,312,o),
(594,294,o),
(627,259,o),
(646,210,o),
(646,178,qs),
(646,140,o),
(618,71,o),
(568,19,o),
(503,-12,o),
(465,-12,qs)
);
},
{
closed = 1;
nodes = (
(498,35,o),
(543,57,o),
(576,95,o),
(596,145,o),
(596,173,qs),
(596,221,o),
(547,266,o),
(512,266,qs),
(487,266,o),
(441,244,o),
(407,206,o),
(387,156,o),
(387,128,qs),
(387,80,o),
(437,35,o),
(472,35,qs)
);
}
);
width = 692;
}
);
leftKerningGroup = percent;
unicode = 37;
},
{
glyphname = ampersand;
layers = (
{
layerId = "8E574D32-79B1-4C19-B318-CDC7DA43E89A";
shapes = (
{
closed = 1;
nodes = (
(555,0,l),
(500,65,l),
(443,26,o),
(325,-11,o),
(256,-11,qs),
(145,-11,o),
(19,84,o),
(19,169,qs),
(19,210,o),
(47,282,o),
(97,342,o),
(167,391,o),
(208,409,q),
(191,435,o),
(177,480,o),
(177,504,qs),
(177,551,o),
(214,628,o),
(281,682,o),
(373,712,o),
(427,712,qs),
(474,712,o),
(544,689,o),
(591,650,o),
(614,597,o),
(614,567,qs),
(614,560,o),
(613,545,o),
(611,537,q),
(451,537,l),
(452,539,o),
(452,545,o),
(452,549,qs),
(452,569,o),
(424,589,o),
(404,589,qs),
(391,589,o),
(367,580,o),
(351,563,o),
(341,541,o),
(341,527,qs),
(341,509,o),
(361,466,o),
(381,441,q),
(521,276,l),
(533,293,o),
(557,328,o),
(568,347,qs),
(579,365,l),
(751,365,l),
(727,326,ls),
(698,278,o),
(641,200,o),
(612,168,q),
(754,0,l)
);
},
{
closed = 1;
nodes = (
(285,315,l),
(243,295,o),
(194,236,o),
(194,201,qs),
(194,169,o),
(242,127,o),
(290,127,qs),
(323,127,o),
(384,146,o),
(413,166,q)
);
}
);
width = 808;
},
{
layerId = "45EFDBD1-9215-4FBA-A8FC-D2A4A2D194F0";
shapes = (
{
closed = 1;
nodes = (
(562,0,l),
(489,91,l),
(429,37,o),
(305,-12,o),
(233,-12,qs),
(135,-12,o),
(21,85,o),
(21,167,qs),
(21,210,o),
(51,285,o),
(103,348,o),
(178,397,o),
(224,414,q),
(203,444,o),
(182,497,o),
(182,526,qs),
(182,567,o),
(213,636,o),
(270,685,o),
(347,712,o),
(393,712,qs),
(429,712,o),
(486,693,o),
(526,659,o),
(548,613,o),
(548,585,qs),
(548,579,o),
(547,566,o),
(545,558,q),
(459,558,l),
(460,563,o),
(460,570,o),
(460,575,qs),
(460,608,o),
(415,643,o),
(381,643,qs),
(357,643,o),
(316,627,o),
(287,599,o),
(270,562,o),
(270,540,qs),
(270,514,o),
(295,461,o),
(320,430,qs),
(500,209,l),
(512,223,o),
(536,255,o),
(549,273,qs),
(615,363,l),
(707,363,l),
(626,248,ls),
(606,219,o),
(568,171,o),
(549,149,q),
(671,0,l)
);
},
{
closed = 1;
nodes = (
(268,361,l),
(198,334,o),
(111,244,o),
(111,180,qs),
(111,128,o),
(183,63,o),
(246,63,qs),
(301,63,o),
(394,103,o),
(441,147,q)
);
}
);
width = 724;
},
{
layerId = "E8D95BBD-8C7B-4E49-82A7-0CC1B9EBDD01";
shapes = (
{
closed = 1;
nodes = (
(565,0,l),
(484,101,l),
(423,41,o),
(297,-12,o),
(224,-12,qs),
(131,-12,o),
(22,85,o),
(22,166,qs),
(22,210,o),
(52,286,o),
(106,350,o),
(183,399,o),
(231,416,q),
(208,448,o),
(184,504,o),
(184,535,qs),
(184,574,o),
(213,639,o),
(265,686,o),
(337,712,o),
(380,712,qs),
(411,712,o),
(463,695,o),
(500,663,o),
(521,619,o),
(521,592,qs),
(521,587,o),
(520,574,o),
(518,567,q),
(462,567,l),
(463,572,o),
(463,580,o),
(463,585,qs),
(463,623,o),
(412,664,o),
(372,664,qs),
(344,664,o),
(296,646,o),
(261,614,o),
(241,571,o),
(241,545,qs),
(241,516,o),
(269,459,o),
(295,426,qs),
(492,182,l),
(503,195,o),
(528,226,o),
(541,243,qs),
(630,362,l),
(690,362,l),
(585,217,ls),
(569,196,o),
(539,159,o),
(524,142,q),
(638,0,l)
);
},
{
closed = 1;
nodes = (
(261,379,l),
(180,350,o),
(78,247,o),
(78,172,qs),
(78,112,o),
(160,37,o),
(229,37,qs),
(292,37,o),
(398,86,o),
(452,140,q)
);
}
);
width = 690;
}
);
unicode = 38;
},
{
glyphname = quotesingle;
layers = (
{
layerId = "8E574D32-79B1-4C19-B318-CDC7DA43E89A";
shapes = (
{
closed = 1;
nodes = (
(99,534,l),
(124,755,l),
(265,755,l),
(214,534,l)
);
}
);
width = 209;
},
{
layerId = "45EFDBD1-9215-4FBA-A8FC-D2A4A2D194F0";
shapes = (
{
closed = 1;
nodes = (
(97,557,l),
(120,755,l),
(203,755,l),
(158,557,l)
);
}
);
width = 145;
},
{
layerId = "E8D95BBD-8C7B-4E49-82A7-0CC1B9EBDD01";
shapes = (
{
closed = 1;
nodes = (
(96,566,l),
(119,755,l),
(178,755,l),
(135,566,l)
);
}
);
width = 119;
}
);
leftKerningGroup = quotedbl2;
rightKerningGroup = quotedbl;
unicode = 39;
},
{
glyphname = parenleft;
layers = (
{
layerId = "8E574D32-79B1-4C19-B318-CDC7DA43E89A";
shapes = (
{
closed = 1;
nodes = (
(156,-145,l),
(129,-111,o),
(87,-27,o),
(57,66,o),
(42,167,o),
(42,219,qs),
(42,300,o),
(81,462,o),
(154,615,o),
(258,753,o),
(324,811,q),
(493,811,l),
(491,795,l),
(424,732,o),
(320,597,o),
(248,457,o),
(211,312,o),
(211,239,qs),
(211,142,o),
(271,-50,o),
(328,-129,q),
(325,-145,l)
);
}
);
width = 415;
},
{
layerId = "45EFDBD1-9215-4FBA-A8FC-D2A4A2D194F0";
shapes = (
{
closed = 1;
nodes = (
(170,-145,l),
(143,-114,o),
(97,-36,o),
(63,55,o),
(44,158,o),
(44,215,qs),
(44,298,o),
(86,464,o),
(163,619,o),
(272,757,o),
(339,811,q),
(429,811,l),
(427,802,l),
(358,743,o),
(248,607,o),
(172,459,o),
(132,304,o),
(132,227,qs),
(132,121,o),
(202,-64,o),
(262,-136,q),
(261,-145,l)
);
}
);
width = 361;
},
{
layerId = "E8D95BBD-8C7B-4E49-82A7-0CC1B9EBDD01";
shapes = (
{
closed = 1;
nodes = (
(176,-145,l),
(149,-115,o),
(101,-40,o),
(66,50,o),
(45,154,o),
(45,213,qs),
(45,297,o),
(88,465,o),
(166,621,o),
(277,758,o),
(345,811,q),
(403,811,l),
(402,805,l),
(331,748,o),
(219,611,o),
(142,460,o),
(101,301,o),
(101,222,qs),
(101,113,o),
(175,-70,o),
(236,-139,q),
(235,-145,l)
);
}
);
width = 339;
}
);
unicode = 40;
},
{
glyphname = parenright;
layers = (
{
layerId = "8E574D32-79B1-4C19-B318-CDC7DA43E89A";
shapes = (
{
closed = 1;
nodes = (
(-48,-145,l),
(-46,-129,l),
(21,-66,o),
(125,69,o),
(197,209,o),
(234,354,o),
(234,427,qs),
(234,524,o),
(174,716,o),
(117,795,q),
(120,811,l),
(289,811,l),
(316,777,o),
(358,693,o),
(388,600,o),
(403,499,o),
(403,447,qs),
(403,366,o),
(364,204,o),
(291,51,o),
(187,-87,o),
(121,-145,q)
);
}
);
width = 415;
},
{
layerId = "45EFDBD1-9215-4FBA-A8FC-D2A4A2D194F0";
shapes = (
{
closed = 1;
nodes = (
(-38,-145,l),
(-37,-136,l),
(33,-77,o),
(142,59,o),
(218,207,o),
(258,362,o),
(258,439,qs),
(258,545,o),
(189,730,o),
(128,802,q),
(130,811,l),
(220,811,l),
(247,780,o),
(294,702,o),
(327,611,o),
(347,508,o),
(347,451,qs),
(347,368,o),
(305,202,o),
(227,47,o),
(119,-91,o),
(52,-145,q)
);
}
);
width = 361;
},
{
layerId = "E8D95BBD-8C7B-4E49-82A7-0CC1B9EBDD01";
shapes = (
{
closed = 1;
nodes = (
(-34,-145,l),
(-33,-139,l),
(38,-82,o),
(149,55,o),
(227,206,o),
(268,365,o),
(268,444,qs),
(268,553,o),
(195,736,o),
(132,805,q),
(134,811,l),
(193,811,l),
(220,781,o),
(268,706,o),
(303,616,o),
(324,512,o),
(324,453,qs),
(324,369,o),
(281,201,o),
(202,45,o),
(92,-92,o),
(24,-145,q)
);
}
);
width = 339;
}
);
unicode = 41;
},
{
glyphname = asterisk;
layers = (
{
layerId = "8E574D32-79B1-4C19-B318-CDC7DA43E89A";
shapes = (
{
closed = 1;
nodes = (
(218,360,l),
(264,490,l),
(150,401,l),
(107,509,l),
(237,552,l),
(123,592,l),
(198,695,l),
(286,608,l),
(284,740,l),
(403,740,l),
(354,608,l),
(472,695,l),
(511,593,l),
(381,550,l),
(497,508,l),
(418,402,l),
(333,490,l),
(335,360,l)
);
}
);
width = 522;
},
{
layerId = "45EFDBD1-9215-4FBA-A8FC-D2A4A2D194F0";
shapes = (
{
closed = 1;
nodes = (
(214,360,l),
(253,512,l),
(115,425,l),
(90,488,l),
(239,548,l),
(112,608,l),
(157,668,l),
(267,581,l),
(280,734,l),
(349,734,l),
(308,581,l),
(446,667,l),
(470,608,l),
(320,548,l),
(448,487,l),
(404,426,l),
(294,512,l),
(283,360,l)
);
}
);
width = 466;
},
{
layerId = "E8D95BBD-8C7B-4E49-82A7-0CC1B9EBDD01";
shapes = (
{
closed = 1;
nodes = (
(213,360,l),
(249,521,l),
(101,434,l),
(83,479,l),
(240,546,l),
(108,614,l),
(140,657,l),
(259,570,l),
(279,731,l),
(328,731,l),
(289,570,l),
(436,656,l),
(453,614,l),
(296,547,l),
(428,478,l),
(399,435,l),
(279,521,l),
(262,360,l)
);
}
);
width = 443;
}
);
unicode = 42;
},
{
glyphname = plus;
layers = (
{
layerId = "8E574D32-79B1-4C19-B318-CDC7DA43E89A";
shapes = (
{
closed = 1;
nodes = (
(194,54,l),
(223,218,l),
(39,218,l),
(64,360,l),
(248,360,l),
(277,524,l),
(419,524,l),
(390,360,l),
(574,360,l),
(549,218,l),
(365,218,l),
(336,54,l)
);
}
);
width = 598;
},
{
layerId = "45EFDBD1-9215-4FBA-A8FC-D2A4A2D194F0";
shapes = (
{
closed = 1;
nodes = (
(215,71,l),
(247,253,l),
(56,253,l),
(69,327,l),
(260,327,l),
(292,508,l),
(371,508,l),
(339,327,l),
(529,327,l),
(516,253,l),
(326,253,l),
(294,71,l)
);
}
);
width = 571;
},
{
layerId = "E8D95BBD-8C7B-4E49-82A7-0CC1B9EBDD01";
shapes = (
{
closed = 1;
nodes = (
(223,78,l),
(256,267,l),
(63,267,l),
(71,314,l),
(265,314,l),
(298,502,l),
(352,502,l),
(318,314,l),
(511,314,l),
(503,267,l),
(310,267,l),
(277,78,l)
);
}
);
width = 560;
}
);
unicode = 43;
},
{
glyphname = comma;
layers = (
{
layerId = "8E574D32-79B1-4C19-B318-CDC7DA43E89A";
shapes = (
{
closed = 1;
nodes = (
(-46,-113,l),
(59,164,l),
(219,164,l),
(63,-113,l)
);
}
);
width = 272;
},
{
layerId = "45EFDBD1-9215-4FBA-A8FC-D2A4A2D194F0";
shapes = (
{
closed = 1;
nodes = (
(-70,-119,l),
(28,105,l),
(118,105,l),
(-10,-119,l)
);
}
);
width = 168;
},
{
layerId = "E8D95BBD-8C7B-4E49-82A7-0CC1B9EBDD01";
shapes = (
{
closed = 1;
nodes = (
(-80,-121,l),
(15,81,l),
(77,81,l),
(-39,-121,l)
);
}
);
width = 127;
}
);
unicode = 44;
},
{
glyphname = hyphen;
layers = (
{
layerId = "8E574D32-79B1-4C19-B318-CDC7DA43E89A";
shapes = (
{
closed = 1;
nodes = (
(39,218,l),
(64,360,l),
(504,360,l),
(479,218,l)
);
}
);
width = 528;
},
{
layerId = "45EFDBD1-9215-4FBA-A8FC-D2A4A2D194F0";
shapes = (
{
closed = 1;
nodes = (
(53,253,l),
(65,328,l),
(463,328,l),
(450,253,l)
);
}
);
width = 501;
},
{
layerId = "E8D95BBD-8C7B-4E49-82A7-0CC1B9EBDD01";
shapes = (
{
closed = 1;
nodes = (
(58,267,l),
(65,315,l),
(447,315,l),
(439,267,l)
);
}
);
width = 490;
}
);
leftKerningGroup = minus2;
rightKerningGroup = minus;
unicode = 45;
},
{
glyphname = period;
layers = (
{
layerId = "8E574D32-79B1-4C19-B318-CDC7DA43E89A";
shapes = (
{
closed = 1;
nodes = (
(63,-8,o),
(7,46,o),
(7,84,qs),
(7,124,o),
(63,178,o),
(109,178,qs),
(154,178,o),
(210,124,o),
(210,84,qs),
(210,46,o),
(154,-8,o),
(109,-8,qs)
);
}
);
width = 274;
},
{
layerId = "45EFDBD1-9215-4FBA-A8FC-D2A4A2D194F0";
shapes = (
{
closed = 1;
nodes = (
(33,-6,o),
(-1,29,o),
(-1,54,qs),
(-1,79,o),
(33,112,o),
(59,112,qs),
(85,112,o),
(119,79,o),
(119,54,qs),
(119,29,o),
(85,-6,o),
(59,-6,qs)
);
}
);
width = 186;
},
{
layerId = "E8D95BBD-8C7B-4E49-82A7-0CC1B9EBDD01";
shapes = (
{
closed = 1;
nodes = (
(21,-5,o),
(-4,22,o),
(-4,42,qs),
(-4,61,o),
(21,86,o),
(39,86,qs),
(57,86,o),
(82,61,o),
(82,42,qs),
(82,22,o),
(57,-5,o),
(39,-5,qs)
);
}
);
width = 151;
}
);
leftKerningGroup = period2;
rightKerningGroup = period;
unicode = 46;
},
{
glyphname = slash;
layers = (
{
layerId = "8E574D32-79B1-4C19-B318-CDC7DA43E89A";
shapes = (
{
closed = 1;
nodes = (
(-54,-127,l),
(357,790,l),
(522,790,l),
(111,-127,l)
);
}
);
width = 438;
},
{
layerId = "45EFDBD1-9215-4FBA-A8FC-D2A4A2D194F0";
shapes = (
{
closed = 1;
nodes = (
(-40,-97,l),
(362,766,l),
(449,766,l),
(45,-97,l)
);
}
);
width = 379;
},
{
layerId = "E8D95BBD-8C7B-4E49-82A7-0CC1B9EBDD01";
shapes = (
{
closed = 1;
nodes = (
(-35,-85,l),
(364,756,l),
(420,756,l),
(19,-85,l)
);
}
);
width = 355;
}
);
unicode = 47;
},
{
glyphname = zero;
layers = (
{
layerId = "218428F3-C2E4-493D-AB13-2BDCD21CB23B";
name = "#instance";
shapes = (
{
closed = 1;
nodes = (
(214,-12,o),
(131,27,o),
(75,98,o),
(45,198,o),
(45,259,qs),
(45,355,o),
(96,520,o),
(185,642,o),
(307,712,o),
(377,712,qs),
(430,712,o),
(512,673,o),
(568,602,o),
(598,502,o),
(598,441,qs),
(598,345,o),
(547,179,o),
(458,57,o),
(337,-12,o),
(266,-12,qs)
);
},
{
closed = 1;
nodes = (
(325,66,o),
(411,124,o),
(476,223,o),
(513,355,o),
(513,430,qs),
(513,527,o),
(434,633,o),
(366,633,qs),
(317,633,o),
(231,576,o),
(167,477,o),
(129,345,o),
(129,270,qs),
(129,173,o),
(209,66,o),
(277,66,qs)
);
}
);
width = 612;
},
{
layerId = "8E574D32-79B1-4C19-B318-CDC7DA43E89A";
shapes = (
{
closed = 1;
nodes = (
(225,-12,o),
(136,27,o),
(74,99,o),
(42,200,o),
(42,263,qs),
(42,358,o),
(95,521,o),
(188,643,o),
(315,712,o),
(389,712,qs),
(446,712,o),
(536,673,o),
(597,601,o),
(629,499,o),
(629,437,qs),
(629,343,o),
(576,179,o),
(483,57,o),
(356,-12,o),
(282,-12,qs)
);
},
{
closed = 1;
nodes = (
(339,143,o),
(399,186,o),
(443,259,o),
(469,358,o),
(469,413,qs),
(469,480,o),
(417,557,o),
(369,557,qs),
(335,557,o),
(274,515,o),
(228,441,o),
(202,343,o),
(202,287,qs),
(202,218,o),
(256,143,o),
(304,143,qs)
);
}
);
width = 640;
},
{
layerId = "45EFDBD1-9215-4FBA-A8FC-D2A4A2D194F0";
shapes = (
{
closed = 1;
nodes = (
(214,-12,o),
(131,27,o),
(75,98,o),
(45,198,o),
(45,259,qs),
(45,354,o),
(96,520,o),
(185,642,o),
(306,712,o),
(376,712,qs),
(429,712,o),
(512,673,o),
(568,602,o),
(598,502,o),
(598,441,qs),
(598,345,o),
(547,179,o),
(458,57,o),
(337,-12,o),
(266,-12,qs)
);
},
{
closed = 1;
nodes = (
(325,66,o),
(411,124,o),
(476,223,o),
(513,356,o),
(513,430,qs),
(513,527,o),
(433,633,o),
(366,633,qs),
(318,633,o),
(231,576,o),
(167,477,o),
(129,345,o),
(129,270,qs),
(129,172,o),
(210,66,o),
(277,66,qs)
);
}
);
width = 611;
},
{
layerId = "E8D95BBD-8C7B-4E49-82A7-0CC1B9EBDD01";
shapes = (
{
closed = 1;
nodes = (
(209,-12,o),
(129,27,o),
(75,97,o),
(46,197,o),
(46,257,qs),
(46,353,o),
(96,520,o),
(184,642,o),
(302,712,o),
(371,712,qs),
(422,712,o),
(502,673,o),
(557,602,o),
(586,503,o),
(586,443,qs),
(586,346,o),
(536,179,o),
(448,57,o),
(329,-12,o),
(260,-12,qs)
);
},
{
closed = 1;
nodes = (
(320,35,o),
(416,99,o),
(489,208,o),
(531,355,o),
(531,437,qs),
(531,546,o),
(440,664,o),
(365,664,qs),
(311,664,o),
(214,601,o),
(142,491,o),
(100,346,o),
(100,263,qs),
(100,154,o),
(191,35,o),
(266,35,qs)
);
}
);
width = 600;
}
);
unicode = 48;
},
{
glyphname = one;
layers = (
{
layerId = "8E574D32-79B1-4C19-B318-CDC7DA43E89A";
shapes = (
{
closed = 1;
nodes = (
(274,0,l),
(398,700,l),
(301,700,l),
(93,614,l),
(70,483,l),
(194,510,l),
(103,0,l)
);
},
{
closed = 1;
nodes = (
(-14,0,l),
(391,0,l),
(414,127,l),
(10,127,l)
);
}
);
width = 449;
},
{
layerId = "45EFDBD1-9215-4FBA-A8FC-D2A4A2D194F0";
shapes = (
{
closed = 1;
nodes = (
(189,0,l),
(313,700,l),
(255,700,l),
(97,637,l),
(86,572,l),
(203,598,l),
(97,0,l)
);
},
{
closed = 1;
nodes = (
(-9,0,l),
(295,0,l),
(308,71,l),
(4,71,l)
);
}
);
width = 362;
},
{
layerId = "E8D95BBD-8C7B-4E49-82A7-0CC1B9EBDD01";
shapes = (
{
closed = 1;
nodes = (
(155,0,l),
(279,700,l),
(236,700,l),
(99,646,l),
(92,607,l),
(206,633,l),
(95,0,l)
);
},
{
closed = 1;
nodes = (
(-7,0,l),
(257,0,l),
(266,48,l),
(2,48,l)
);
}
);
width = 327;
}
);
unicode = 49;
},
{
glyphname = two;
layers = (
{
layerId = "8E574D32-79B1-4C19-B318-CDC7DA43E89A";
shapes = (
{
closed = 1;
nodes = (
(-1,0,l),
(21,127,l),
(90,177,o),
(225,276,o),
(331,372,o),
(397,465,o),
(397,508,qs),
(397,520,o),
(390,542,o),
(375,559,o),
(351,568,o),
(335,568,qs),
(316,568,o),
(282,554,o),
(257,528,o),
(239,492,o),
(235,471,q),
(70,471,l),
(83,531,o),
(137,622,o),
(212,682,o),
(304,712,o),
(355,712,qs),
(408,712,o),
(489,684,o),
(544,635,o),
(572,569,o),
(572,531,qs),
(572,468,o),
(505,352,o),
(408,252,o),
(298,169,o),
(256,139,q),
(526,139,l),
(501,0,l)
);
}
);
width = 569;
},
{
layerId = "45EFDBD1-9215-4FBA-A8FC-D2A4A2D194F0";
shapes = (
{
closed = 1;
nodes = (
(13,0,l),
(24,62,l),
(133,138,o),
(289,267,o),
(390,379,o),
(438,480,o),
(438,528,qs),
(438,549,o),
(427,588,o),
(401,619,o),
(359,637,o),
(329,637,qs),
(295,637,o),
(241,613,o),
(201,573,o),
(176,520,o),
(171,491,q),
(86,491,l),
(96,543,o),
(143,626,o),
(209,682,o),
(292,712,o),
(339,712,qs),
(381,712,o),
(450,688,o),
(500,642,o),
(528,578,o),
(528,537,qs),
(528,482,o),
(484,376,o),
(393,264,o),
(252,143,o),
(155,73,q),
(490,73,l),
(477,0,l)
);
}
);
width = 560;
},
{
layerId = "E8D95BBD-8C7B-4E49-82A7-0CC1B9EBDD01";
shapes = (
{
closed = 1;
nodes = (
(19,0,l),
(25,36,l),
(150,122,o),
(315,263,o),
(414,382,o),
(455,486,o),
(455,536,qs),
(455,560,o),
(442,606,o),
(411,643,o),
(362,665,o),
(326,665,qs),
(287,665,o),
(225,637,o),
(179,591,o),
(151,531,o),
(146,499,q),
(92,499,l),
(101,548,o),
(145,627,o),
(208,682,o),
(287,712,o),
(332,712,qs),
(370,712,o),
(435,689,o),
(483,645,o),
(510,581,o),
(510,540,qs),
(510,488,o),
(476,385,o),
(387,269,o),
(234,133,o),
(115,47,q),
(475,47,l),
(467,0,l)
);
}
);
width = 556;
}
);
unicode = 50;
},
{
glyphname = three;
layers = (
{
layerId = "8E574D32-79B1-4C19-B318-CDC7DA43E89A";
shapes = (
{
closed = 1;
nodes = (
(154,-6,o),
(34,85,o),
(34,185,qs),
(34,196,o),
(35,219,o),
(37,231,q),
(201,231,l),
(199,225,o),
(199,213,o),
(199,208,qs),
(199,175,o),
(242,136,o),
(280,136,qs),
(305,136,o),
(345,153,o),
(372,183,o),
(387,225,o),
(387,250,qs),
(387,288,o),
(339,334,o),
(294,334,qs),
(196,334,l),
(215,444,l),
(368,553,l),
(129,553,l),
(155,700,l),
(609,700,l),
(587,574,l),
(395,435,l),
(395,435,l),
(427,428,o),
(483,396,o),
(524,352,o),
(547,296,o),
(547,264,qs),
(547,204,o),
(503,105,o),
(425,33,o),
(318,-6,o),
(255,-6,qs)
);
}
);
width = 599;
},
{
layerId = "45EFDBD1-9215-4FBA-A8FC-D2A4A2D194F0";
shapes = (
{
closed = 1;
nodes = (
(145,-5,o),
(36,87,o),
(36,178,qs),
(36,185,o),
(36,200,o),
(37,209,q),
(121,209,l),
(120,202,o),
(119,187,o),
(119,182,qs),
(119,131,o),
(190,69,o),
(254,69,qs),
(295,69,o),
(362,97,o),
(410,146,o),
(436,213,o),
(436,252,qs),
(436,310,o),
(370,369,o),
(305,369,qs),
(201,369,l),
(212,430,l),
(447,624,l),
(149,624,l),
(163,700,l),
(575,700,l),
(563,635,l),
(318,431,l),
(338,431,l),
(381,429,o),
(447,403,o),
(495,358,o),
(519,297,o),
(519,258,qs),
(519,200,o),
(478,103,o),
(404,33,o),
(302,-5,o),
(241,-5,qs)
);
}
);
width = 574;
},
{
layerId = "E8D95BBD-8C7B-4E49-82A7-0CC1B9EBDD01";
shapes = (
{
closed = 1;
nodes = (
(142,-5,o),
(37,88,o),
(37,175,qs),
(37,181,o),
(36,193,o),
(37,200,q),
(89,200,l),
(88,193,o),
(87,177,o),
(87,171,qs),
(87,114,o),
(169,42,o),
(244,42,qs),
(291,42,o),
(369,74,o),
(425,131,o),
(455,208,o),
(455,253,qs),
(455,319,o),
(383,383,o),
(310,383,qs),
(203,383,l),
(211,425,l),
(478,652,l),
(157,652,l),
(166,700,l),
(561,700,l),
(553,659,l),
(287,430,l),
(315,430,ls),
(362,430,o),
(433,406,o),
(483,361,o),
(508,297,o),
(508,256,qs),
(508,198,o),
(468,102,o),
(396,33,o),
(296,-5,o),
(236,-5,qs)
);
}
);
width = 564;
}
);
unicode = 51;
},
{
glyphname = four;
layers = (
{
layerId = "8E574D32-79B1-4C19-B318-CDC7DA43E89A";
shapes = (
{
closed = 1;
nodes = (
(503,0,l),
(523,110,l),
(605,110,l),
(631,258,l),
(549,258,l),
(580,423,l),
(421,423,l),
(390,258,l),
(222,258,l),
(585,700,l),
(406,700,l),
(40,248,l),
(16,110,l),
(352,110,l),
(332,0,l)
);
}
);
width = 674;
},
{
layerId = "45EFDBD1-9215-4FBA-A8FC-D2A4A2D194F0";
shapes = (
{
closed = 1;
nodes = (
(436,0,l),
(462,144,l),
(559,144,l),
(572,220,l),
(475,220,l),
(511,423,l),
(429,423,l),
(393,220,l),
(130,220,l),
(523,700,l),
(427,700,l),
(33,213,l),
(21,144,l),
(375,144,l),
(349,0,l)
);
}
);
width = 620;
},
{
layerId = "E8D95BBD-8C7B-4E49-82A7-0CC1B9EBDD01";
shapes = (
{
closed = 1;
nodes = (
(409,0,l),
(437,157,l),
(540,157,l),
(549,205,l),
(445,205,l),
(484,423,l),
(432,423,l),
(394,205,l),
(93,205,l),
(498,700,l),
(436,700,l),
(30,199,l),
(23,157,l),
(384,157,l),
(356,0,l)
);
}
);
width = 599;
}
);
unicode = 52;
},
{
glyphname = five;
layers = (
{
layerId = "8E574D32-79B1-4C19-B318-CDC7DA43E89A";
shapes = (
{
closed = 1;
nodes = (
(218,-12,o),
(133,15,o),
(75,64,o),
(46,133,o),
(46,174,qs),
(46,182,o),
(47,197,o),
(48,205,q),
(215,205,l),
(215,173,o),
(261,133,o),
(296,133,qs),
(322,133,o),
(365,153,o),
(396,188,o),
(413,235,o),
(413,261,qs),
(413,280,o),
(402,311,o),
(383,332,o),
(355,344,o),
(337,344,qs),
(303,344,o),
(247,308,o),
(235,284,q),
(70,284,l),
(203,700,l),
(610,700,l),
(584,550,l),
(302,550,l),
(259,438,l),
(283,457,o),
(352,481,o),
(394,481,qs),
(445,481,o),
(516,448,o),
(561,394,o),
(581,325,o),
(581,289,qs),
(581,223,o),
(534,113,o),
(451,33,o),
(338,-12,o),
(273,-12,qs)
);
}
);
width = 617;
},
{
layerId = "45EFDBD1-9215-4FBA-A8FC-D2A4A2D194F0";
shapes = (
{
closed = 1;
nodes = (
(214,-12,o),
(135,14,o),
(79,60,o),
(47,126,o),
(45,165,q),
(45,171,o),
(45,183,o),
(46,189,q),
(132,189,l),
(134,132,o),
(212,63,o),
(273,63,qs),
(313,63,o),
(384,94,o),
(436,147,o),
(466,222,o),
(466,266,qs),
(466,296,o),
(447,347,o),
(413,386,o),
(365,407,o),
(335,407,qs),
(278,407,o),
(191,356,o),
(165,314,q),
(81,314,l),
(209,700,l),
(579,700,l),
(565,623,l),
(263,623,l),
(186,415,l),
(216,443,o),
(300,481,o),
(355,481,qs),
(400,481,o),
(472,449,o),
(524,395,o),
(552,321,o),
(552,280,qs),
(552,217,o),
(507,110,o),
(429,32,o),
(323,-12,o),
(262,-12,qs)
);
}
);
width = 599;
},
{
layerId = "E8D95BBD-8C7B-4E49-82A7-0CC1B9EBDD01";
shapes = (
{
closed = 1;
nodes = (
(212,-12,o),
(136,13,o),
(81,59,o),
(48,123,o),
(45,162,q),
(45,167,o),
(44,178,o),
(45,183,q),
(99,183,l),
(101,116,o),
(192,35,o),
(264,35,qs),
(310,35,o),
(391,70,o),
(452,131,o),
(487,217,o),
(487,268,qs),
(487,303,o),
(465,362,o),
(425,407,o),
(369,432,o),
(334,432,qs),
(268,432,o),
(168,375,o),
(137,326,q),
(85,326,l),
(211,700,l),
(566,700,l),
(557,652,l),
(247,652,l),
(157,406,l),
(189,438,o),
(279,481,o),
(339,481,qs),
(382,481,o),
(455,450,o),
(509,395,o),
(540,320,o),
(540,276,qs),
(540,215,o),
(496,109,o),
(420,32,o),
(317,-12,o),
(258,-12,qs)
);
}
);
width = 592;
}
);
unicode = 53;
},
{
glyphname = six;
layers = (
{
layerId = "8E574D32-79B1-4C19-B318-CDC7DA43E89A";
shapes = (
{
closed = 1;
nodes = (
(319,-12,o),
(422,25,o),
(504,93,o),
(558,189,o),
(565,247,q),
(573,298,o),
(553,379,o),
(505,435,o),
(432,464,o),
(386,464,qs),
(360,464,o),
(310,452,o),
(284,445,q),
(281,394,l),
(552,700,l),
(364,700,l),
(166,467,l),
(111,404,o),
(50,287,o),
(43,226,qs),
(36,174,o),
(60,86,o),
(117,23,o),
(205,-12,o),
(262,-12,qs)
);
},
{
closed = 1;
nodes = (
(242,131,o),
(198,183,o),
(205,228,qs),
(208,252,o),
(228,293,o),
(258,321,o),
(299,337,o),
(323,337,qs),
(368,337,o),
(411,285,o),
(405,240,qs),
(402,215,o),
(382,175,o),
(351,147,o),
(311,131,o),
(287,131,qs)
);
}
);
width = 616;
},
{
layerId = "45EFDBD1-9215-4FBA-A8FC-D2A4A2D194F0";
shapes = (
{
closed = 1;
nodes = (
(300,-11,o),
(399,26,o),
(476,93,o),
(526,185,o),
(534,241,qs),
(542,292,o),
(521,375,o),
(471,434,o),
(393,467,o),
(342,467,qs),
(309,467,o),
(241,447,o),
(214,433,q),
(210,405,l),
(466,701,l),
(366,701,l),
(147,444,ls),
(102,392,o),
(45,285,o),
(37,225,qs),
(30,175,o),
(51,89,o),
(103,26,o),
(187,-11,o),
(243,-11,qs)
);
},
{
closed = 1;
nodes = (
(184,67,o),
(112,152,o),
(123,226,qs),
(128,263,o),
(162,327,o),
(212,372,o),
(278,397,o),
(317,397,qs),
(389,397,o),
(459,309,o),
(448,237,qs),
(442,198,o),
(409,135,o),
(360,91,o),
(295,67,o),
(257,67,qs)
);
}
);
width = 580;
},
{
layerId = "E8D95BBD-8C7B-4E49-82A7-0CC1B9EBDD01";
shapes = (
{
closed = 1;
nodes = (
(293,-10,o),
(390,27,o),
(465,93,o),
(513,184,o),
(521,238,qs),
(529,289,o),
(508,374,o),
(457,434,o),
(377,468,o),
(325,468,qs),
(289,468,o),
(214,445,o),
(186,428,q),
(181,409,l),
(432,702,l),
(367,702,l),
(140,435,ls),
(99,387,o),
(43,284,o),
(35,224,qs),
(28,175,o),
(47,90,o),
(98,27,o),
(180,-10,o),
(236,-10,qs)
);
},
{
closed = 1;
nodes = (
(161,41,o),
(77,140,o),
(90,225,qs),
(96,268,o),
(135,340,o),
(193,392,o),
(269,421,o),
(314,421,qs),
(397,421,o),
(478,319,o),
(465,236,qs),
(458,191,o),
(420,119,o),
(363,68,o),
(289,41,o),
(245,41,qs)
);
}
);
width = 566;
}
);
unicode = 54;
},
{
glyphname = seven;
layers = (
{
layerId = "8E574D32-79B1-4C19-B318-CDC7DA43E89A";
shapes = (
{
closed = 1;
nodes = (
(32,0,l),
(380,554,l),
(77,554,l),
(102,700,l),
(585,700,l),
(565,582,l),
(211,0,l)
);
}
);
width = 524;
},
{
layerId = "45EFDBD1-9215-4FBA-A8FC-D2A4A2D194F0";
shapes = (
{
closed = 1;
nodes = (
(76,0,l),
(462,625,l),
(86,625,l),
(99,700,l),
(570,700,l),
(558,635,l),
(172,0,l)
);
}
);
width = 519;
},
{
layerId = "E8D95BBD-8C7B-4E49-82A7-0CC1B9EBDD01";
shapes = (
{
closed = 1;
nodes = (
(93,0,l),
(495,653,l),
(89,653,l),
(98,700,l),
(564,700,l),
(555,656,l),
(156,0,l)
);
}
);
width = 517;
}
);
unicode = 55;
},
{
glyphname = eight;
layers = (
{
layerId = "8E574D32-79B1-4C19-B318-CDC7DA43E89A";
shapes = (
{
closed = 1;
nodes = (
(221,-12,o),
(135,12,o),
(73,59,o),
(38,129,o),
(38,175,qs),
(38,208,o),
(57,269,o),
(94,321,o),
(148,364,o),
(182,379,q),
(148,399,o),
(110,456,o),
(110,498,qs),
(110,545,o),
(155,623,o),
(233,680,o),
(340,712,o),
(401,712,qs),
(510,712,o),
(614,622,o),
(614,550,qs),
(614,517,o),
(591,462,o),
(555,419,o),
(513,388,o),
(493,379,q),
(535,358,o),
(577,285,o),
(577,234,qs),
(577,178,o),
(528,87,o),
(445,23,o),
(334,-12,o),
(272,-12,qs)
);
},
{
closed = 1;
nodes = (
(367,425,o),
(401,439,o),
(428,463,o),
(443,495,o),
(443,513,qs),
(443,528,o),
(433,551,o),
(414,567,o),
(388,576,o),
(372,576,qs),
(353,576,o),
(317,563,o),
(291,540,o),
(275,509,o),
(275,491,qs),
(275,476,o),
(285,452,o),
(304,435,o),
(331,425,o),
(347,425,qs)
);
},
{
closed = 1;
nodes = (
(318,128,o),
(360,144,o),
(392,173,o),
(410,211,o),
(410,232,qs),
(410,264,o),
(363,305,o),
(323,305,qs),
(300,305,o),
(258,289,o),
(227,262,o),
(208,225,o),
(208,204,qs),
(208,172,o),
(252,128,o),
(294,128,qs)
);
}
);
width = 630;
},
{
layerId = "45EFDBD1-9215-4FBA-A8FC-D2A4A2D194F0";
shapes = (
{
closed = 1;
nodes = (
(210,-12,o),
(131,12,o),
(74,58,o),
(43,125,o),
(43,167,qs),
(43,204,o),
(69,271,o),
(115,325,o),
(179,363,o),
(218,373,q),
(172,390,o),
(121,461,o),
(121,504,qs),
(121,549,o),
(161,626,o),
(230,681,o),
(324,712,o),
(376,712,qs),
(468,712,o),
(568,623,o),
(568,550,qs),
(568,516,o),
(545,460,o),
(504,415,o),
(451,383,o),
(421,373,q),
(478,357,o),
(529,276,o),
(529,222,qs),
(529,169,o),
(485,82,o),
(411,21,o),
(313,-12,o),
(257,-12,qs)
);
},
{
closed = 1;
nodes = (
(357,404,o),
(410,420,o),
(452,454,o),
(478,504,o),
(478,539,qs),
(478,567,o),
(459,605,o),
(428,627,o),
(387,637,o),
(363,637,qs),
(331,637,o),
(275,618,o),
(234,583,o),
(211,534,o),
(211,504,qs),
(211,478,o),
(229,441,o),
(261,416,o),
(305,404,o),
(330,404,qs)
);
},
{
closed = 1;
nodes = (
(305,65,o),
(369,87,o),
(415,127,o),
(441,185,o),
(441,219,qs),
(441,275,o),
(369,331,o),
(310,331,qs),
(274,331,o),
(209,310,o),
(161,269,o),
(133,212,o),
(133,177,qs),
(133,125,o),
(204,65,o),
(268,65,qs)
);
}
);
width = 591;
},
{
layerId = "E8D95BBD-8C7B-4E49-82A7-0CC1B9EBDD01";
shapes = (
{
closed = 1;
nodes = (
(205,-12,o),
(129,12,o),
(75,58,o),
(45,123,o),
(45,164,qs),
(45,203,o),
(74,272,o),
(124,326,o),
(192,363,o),
(232,371,q),
(181,387,o),
(125,463,o),
(125,506,qs),
(125,551,o),
(163,627,o),
(229,681,o),
(317,712,o),
(366,712,qs),
(451,712,o),
(550,623,o),
(550,550,qs),
(550,516,o),
(526,459,o),
(484,414,o),
(426,381,o),
(392,371,q),
(455,356,o),
(510,272,o),
(510,217,qs),
(510,165,o),
(468,80,o),
(398,20,o),
(304,-12,o),
(251,-12,qs)
);
},
{
closed = 1;
nodes = (
(353,395,o),
(413,412,o),
(461,450,o),
(492,508,o),
(492,549,qs),
(492,583,o),
(470,626,o),
(433,651,o),
(386,661,o),
(360,661,qs),
(322,661,o),
(258,640,o),
(211,600,o),
(185,544,o),
(185,509,qs),
(185,479,o),
(206,436,o),
(244,408,o),
(294,395,o),
(323,395,qs)
);
},
{
closed = 1;
nodes = (
(300,40,o),
(372,64,o),
(424,109,o),
(453,174,o),
(453,214,qs),
(453,280,o),
(371,342,o),
(305,342,qs),
(263,342,o),
(190,318,o),
(135,272,o),
(103,207,o),
(103,166,qs),
(103,106,o),
(185,40,o),
(258,40,qs)
);
}
);
width = 575;
}
);
unicode = 56;
},
{
glyphname = nine;
layers = (
{
layerId = "8E574D32-79B1-4C19-B318-CDC7DA43E89A";
shapes = (
{
closed = 1;
nodes = (
(283,0,l),
(482,233,ls),
(536,297,o),
(597,413,o),
(605,474,qs),
(612,527,o),
(588,614,o),
(530,677,o),
(442,712,o),
(385,712,qs),
(328,712,o),
(225,675,o),
(143,607,o),
(90,511,o),
(82,453,qs),
(75,402,o),
(95,321,o),
(143,266,o),
(216,236,o),
(261,236,qs),
(287,236,o),
(337,248,o),
(363,255,q),
(367,306,l),
(96,0,l)
);
},
{
closed = 1;
nodes = (
(279,364,o),
(236,416,o),
(242,461,qs),
(249,510,o),
(313,569,o),
(361,569,qs),
(406,569,o),
(450,517,o),
(443,472,qs),
(440,448,o),
(420,408,o),
(389,379,o),
(348,364,o),
(324,364,qs)
);
}
);
width = 615;
},
{
layerId = "45EFDBD1-9215-4FBA-A8FC-D2A4A2D194F0";
shapes = (
{
closed = 1;
nodes = (
(245,0,l),
(465,258,ls),
(510,311,o),
(568,417,o),
(575,476,q),
(583,526,o),
(562,612,o),
(509,676,o),
(424,712,o),
(368,712,qs),
(311,712,o),
(212,675,o),
(136,608,o),
(86,516,o),
(78,461,qs),
(71,410,o),
(91,326,o),
(142,267,o),
(220,235,o),
(269,235,qs),
(303,235,o),
(371,254,o),
(397,268,q),
(401,297,l),
(146,0,l)
);
},
{
closed = 1;
nodes = (
(223,305,o),
(152,392,o),
(163,465,qs),
(175,544,o),
(277,635,o),
(354,635,qs),
(427,635,o),
(501,549,o),
(489,476,q),
(484,438,o),
(451,375,o),
(400,330,o),
(334,305,o),
(296,305,qs)
);
}
);
width = 580;
},
{
layerId = "E8D95BBD-8C7B-4E49-82A7-0CC1B9EBDD01";
shapes = (
{
closed = 1;
nodes = (
(230,0,l),
(458,268,ls),
(499,316,o),
(556,419,o),
(563,477,q),
(571,526,o),
(551,611,o),
(500,675,o),
(417,712,o),
(361,712,qs),
(304,712,o),
(207,675,o),
(133,609,o),
(85,518,o),
(77,464,qs),
(70,413,o),
(90,328,o),
(141,268,o),
(221,234,o),
(272,234,qs),
(309,234,o),
(384,256,o),
(411,273,q),
(415,294,l),
(166,0,l)
);
},
{
closed = 1;
nodes = (
(200,281,o),
(119,383,o),
(132,466,qs),
(146,557,o),
(263,661,o),
(351,661,qs),
(436,661,o),
(521,562,o),
(508,477,qs),
(502,434,o),
(463,362,o),
(404,310,o),
(329,281,o),
(285,281,qs)
);
}
);
width = 566;
}
);
unicode = 57;
},
{
glyphname = colon;
layers = (
{
layerId = "8E574D32-79B1-4C19-B318-CDC7DA43E89A";
shapes = (
{
closed = 1;
nodes = (
(63,-8,o),
(7,46,o),
(7,84,qs),
(7,124,o),
(63,178,o),
(109,178,qs),
(154,178,o),
(210,124,o),
(210,84,qs),
(210,46,o),
(154,-8,o),
(109,-8,qs)
);
},
{
closed = 1;
nodes = (
(121,322,o),
(65,376,o),
(65,414,qs),
(65,454,o),
(121,508,o),
(167,508,qs),
(212,508,o),
(268,454,o),
(268,414,qs),
(268,376,o),
(212,322,o),
(167,322,qs)
);
}
);
width = 272;
},
{
layerId = "45EFDBD1-9215-4FBA-A8FC-D2A4A2D194F0";
shapes = (
{
closed = 1;
nodes = (
(33,-6,o),
(-1,29,o),
(-1,54,qs),
(-1,79,o),
(33,112,o),
(59,112,qs),
(85,112,o),
(119,79,o),
(119,54,qs),
(119,29,o),
(85,-6,o),
(59,-6,qs)
);
},
{
closed = 1;
nodes = (
(102,390,o),
(69,425,o),
(69,450,qs),
(69,475,o),
(102,508,o),
(128,508,qs),
(154,508,o),
(188,475,o),
(188,450,qs),
(188,425,o),
(154,390,o),
(128,390,qs)
);
}
);
width = 188;
},
{
layerId = "E8D95BBD-8C7B-4E49-82A7-0CC1B9EBDD01";
shapes = (
{
closed = 1;
nodes = (
(21,-5,o),
(-4,22,o),
(-4,42,qs),
(-4,61,o),
(21,86,o),
(39,86,qs),
(57,86,o),
(82,61,o),
(82,42,qs),
(82,22,o),
(57,-5,o),
(39,-5,qs)
);
},
{
closed = 1;
nodes = (
(95,417,o),
(70,444,o),
(70,464,qs),
(70,483,o),
(95,508,o),
(113,508,qs),
(131,508,o),
(156,483,o),
(156,464,qs),
(156,444,o),
(131,417,o),
(113,417,qs)
);
}
);
width = 154;
}
);
unicode = 58;
},
{
glyphname = less;
layers = (
{
layerId = "8E574D32-79B1-4C19-B318-CDC7DA43E89A";
shapes = (
{
closed = 1;
nodes = (
(244,129,l),
(80,350,l),
(322,571,l),
(537,571,l),
(294,350,l),
(459,129,l)
);
}
);
width = 530;
},
{
layerId = "45EFDBD1-9215-4FBA-A8FC-D2A4A2D194F0";
shapes = (
{
closed = 1;
nodes = (
(294,136,l),
(91,366,l),
(376,597,l),
(486,597,l),
(203,366,l),
(405,136,l)
);
}
);
width = 487;
},
{
layerId = "E8D95BBD-8C7B-4E49-82A7-0CC1B9EBDD01";
shapes = (
{
closed = 1;
nodes = (
(314,139,l),
(96,373,l),
(397,607,l),
(466,607,l),
(166,373,l),
(384,139,l)
);
}
);
width = 470;
}
);
unicode = 60;
},
{
glyphname = equal;
layers = (
{
layerId = "8E574D32-79B1-4C19-B318-CDC7DA43E89A";
shapes = (
{
closed = 1;
nodes = (
(63,331,l),
(90,482,l),
(540,482,l),
(513,331,l)
);
},
{
closed = 1;
nodes = (
(22,96,l),
(49,247,l),
(499,247,l),
(472,96,l)
);
}
);
width = 547;
},
{
layerId = "45EFDBD1-9215-4FBA-A8FC-D2A4A2D194F0";
shapes = (
{
closed = 1;
nodes = (
(76,357,l),
(89,433,l),
(489,433,l),
(477,357,l)
);
},
{
closed = 1;
nodes = (
(38,149,l),
(52,224,l),
(453,224,l),
(439,149,l)
);
}
);
width = 513;
},
{
layerId = "E8D95BBD-8C7B-4E49-82A7-0CC1B9EBDD01";
shapes = (
{
closed = 1;
nodes = (
(81,368,l),
(88,414,l),
(469,414,l),
(462,368,l)
);
},
{
closed = 1;
nodes = (
(45,170,l),
(53,215,l),
(434,215,l),
(426,170,l)
);
}
);
width = 499;
}
);
unicode = 61;
},
{
glyphname = greater;
layers = (
{
layerId = "8E574D32-79B1-4C19-B318-CDC7DA43E89A";
shapes = (
{
closed = 1;
nodes = (
(29,129,l),
(272,350,l),
(107,571,l),
(322,571,l),
(486,350,l),
(244,129,l)
);
}
);
width = 530;
},
{
layerId = "45EFDBD1-9215-4FBA-A8FC-D2A4A2D194F0";
shapes = (
{
closed = 1;
nodes = (
(43,136,l),
(326,366,l),
(123,597,l),
(234,597,l),
(436,366,l),
(153,136,l)
);
}
);
width = 485;
},
{
layerId = "E8D95BBD-8C7B-4E49-82A7-0CC1B9EBDD01";
shapes = (
{
closed = 1;
nodes = (
(48,139,l),
(348,373,l),
(130,607,l),
(199,607,l),
(416,373,l),
(117,139,l)
);
}
);
width = 467;
}
);
unicode = 62;
},
{
glyphname = question;
layers = (
{
layerId = "8E574D32-79B1-4C19-B318-CDC7DA43E89A";
shapes = (
{
closed = 1;
nodes = (
(116,239,l),
(140,409,l),
(200,409,ls),
(235,409,o),
(299,417,o),
(347,440,o),
(376,481,o),
(376,514,qs),
(376,541,o),
(344,572,o),
(315,572,qs),
(278,572,o),
(232,531,o),
(226,496,q),
(65,496,l),
(72,541,o),
(116,620,o),
(187,678,o),
(283,712,o),
(343,712,qs),
(436,712,o),
(545,619,o),
(545,535,qs),
(545,479,o),
(505,391,o),
(435,330,o),
(338,298,o),
(281,298,q),
(267,239,l)
);
},
{
closed = 1;
nodes = (
(122,-8,o),
(66,46,o),
(66,84,qs),
(66,124,o),
(122,178,o),
(168,178,qs),
(213,178,o),
(269,124,o),
(269,84,qs),
(269,46,o),
(213,-8,o),
(168,-8,qs)
);
}
);
width = 526;
},
{
layerId = "45EFDBD1-9215-4FBA-A8FC-D2A4A2D194F0";
shapes = (
{
closed = 1;
nodes = (
(129,198,l),
(154,360,l),
(185,360,ls),
(237,360,o),
(325,376,o),
(388,416,o),
(424,481,o),
(424,530,qs),
(424,578,o),
(362,638,o),
(308,638,qs),
(245,638,o),
(161,570,o),
(149,511,q),
(66,511,l),
(74,556,o),
(119,631,o),
(186,683,o),
(272,712,o),
(321,712,qs),
(408,712,o),
(510,619,o),
(510,539,qs),
(510,481,o),
(468,392,o),
(393,330,o),
(289,299,o),
(226,299,q),
(205,198,l)
);
},
{
closed = 1;
nodes = (
(121,-6,o),
(87,29,o),
(87,54,qs),
(87,79,o),
(121,112,o),
(147,112,qs),
(172,112,o),
(206,79,o),
(206,54,qs),
(206,29,o),
(172,-6,o),
(147,-6,qs)
);
}
);
width = 502;
},
{
layerId = "E8D95BBD-8C7B-4E49-82A7-0CC1B9EBDD01";
shapes = (
{
closed = 1;
nodes = (
(134,182,l),
(159,340,l),
(179,340,ls),
(238,340,o),
(335,360,o),
(405,406,o),
(443,481,o),
(443,536,qs),
(443,593,o),
(369,664,o),
(305,664,qs),
(232,664,o),
(132,586,o),
(118,517,q),
(66,517,l),
(75,562,o),
(120,635,o),
(185,685,o),
(267,712,o),
(312,712,qs),
(397,712,o),
(496,619,o),
(496,540,qs),
(496,482,o),
(453,392,o),
(376,330,o),
(269,299,o),
(204,299,q),
(180,182,l)
);
},
{
closed = 1;
nodes = (
(120,-5,o),
(95,22,o),
(95,42,qs),
(95,61,o),
(120,86,o),
(138,86,qs),
(156,86,o),
(181,61,o),
(181,42,qs),
(181,22,o),
(156,-5,o),
(138,-5,qs)
);
}
);
width = 492;
}
);
unicode = 63;
},
{
glyphname = at;
layers = (
{
layerId = "8E574D32-79B1-4C19-B318-CDC7DA43E89A";
shapes = (
{
closed = 1;
nodes = (
(353,-225,o),
(213,-174,o),
(113,-81,o),
(59,51,o),
(59,133,qs),
(59,248,o),
(141,444,o),
(287,587,o),
(487,668,o),
(604,668,qs),
(694,668,o),
(837,616,o),
(938,522,o),
(992,392,o),
(992,313,qs),
(992,250,o),
(959,135,o),
(895,47,o),
(801,-5,o),
(739,-5,qs),
(685,-5,o),
(618,37,o),
(605,75,q),
(578,36,o),
(492,-7,o),
(438,-7,qs),
(363,-7,o),
(279,81,o),
(279,159,qs),
(279,214,o),
(313,315,o),
(374,393,o),
(459,439,o),
(511,439,qs),
(554,439,o),
(611,408,o),
(625,379,q),
(634,432,l),
(772,432,l),
(727,181,l),
(722,146,o),
(734,105,o),
(764,105,qs),
(790,105,o),
(827,142,o),
(851,201,o),
(863,273,o),
(863,308,qs),
(863,365,o),
(826,456,o),
(755,519,o),
(652,553,o),
(587,553,qs),
(502,553,o),
(355,490,o),
(248,380,o),
(187,232,o),
(187,146,qs),
(187,86,o),
(223,-9,o),
(292,-75,o),
(392,-109,o),
(456,-109,qs),
(504,-109,o),
(594,-90,o),
(632,-73,q),
(660,-182,l),
(609,-204,o),
(500,-225,o),
(440,-225,qs)
);
},
{
closed = 1;
nodes = (
(515,116,o),
(553,136,o),
(582,169,o),
(599,215,o),
(599,240,qs),
(599,257,o),
(590,285,o),
(572,306,o),
(546,317,o),
(529,317,qs),
(506,317,o),
(468,296,o),
(441,261,o),
(426,215,o),
(426,189,qs),
(426,157,o),
(460,116,o),
(493,116,qs)
);
}
);
width = 1060;
},
{
layerId = "45EFDBD1-9215-4FBA-A8FC-D2A4A2D194F0";
shapes = (
{
closed = 1;
nodes = (
(338,-201,o),
(206,-153,o),
(112,-66,o),
(60,58,o),
(60,135,qs),
(60,242,o),
(135,427,o),
(269,563,o),
(453,642,o),
(562,642,qs),
(646,642,o),
(781,592,o),
(875,503,o),
(926,380,o),
(926,305,qs),
(926,247,o),
(898,135,o),
(844,48,o),
(763,-6,o),
(711,-6,qs),
(659,-6,o),
(609,46,o),
(605,91,q),
(574,45,o),
(480,-6,o),
(425,-6,qs),
(348,-6,o),
(265,86,o),
(265,164,qs),
(265,220,o),
(299,321,o),
(363,399,o),
(451,445,o),
(505,445,qs),
(554,445,o),
(620,405,o),
(636,365,q),
(648,433,l),
(723,433,l),
(673,150,ls),
(666,107,o),
(686,54,o),
(725,54,qs),
(757,54,o),
(806,101,o),
(839,172,o),
(856,260,o),
(856,301,qs),
(856,366,o),
(815,470,o),
(736,541,o),
(623,579,o),
(552,579,qs),
(461,579,o),
(307,511,o),
(195,394,o),
(131,235,o),
(131,144,qs),
(131,77,o),
(173,-28,o),
(251,-101,o),
(363,-138,o),
(434,-138,qs),
(478,-138,o),
(563,-121,o),
(601,-104,q),
(614,-163,l),
(568,-182,o),
(471,-201,o),
(419,-201,qs)
);
},
{
closed = 1;
nodes = (
(484,61,o),
(539,87,o),
(583,134,o),
(612,199,o),
(615,239,qs),
(618,268,o),
(608,318,o),
(581,356,o),
(537,378,o),
(508,378,qs),
(470,378,o),
(410,344,o),
(368,287,o),
(345,216,o),
(345,178,qs),
(345,125,o),
(399,61,o),
(452,61,qs)
);
}
);
width = 996;
},
{
layerId = "E8D95BBD-8C7B-4E49-82A7-0CC1B9EBDD01";
shapes = (
{
closed = 1;
nodes = (
(332,-191,o),
(203,-145,o),
(111,-60,o),
(60,61,o),
(60,136,qs),
(60,240,o),
(133,420,o),
(262,554,o),
(440,631,o),
(545,631,qs),
(627,631,o),
(758,583,o),
(850,496,o),
(900,375,o),
(900,302,qs),
(900,246,o),
(874,135,o),
(823,48,o),
(748,-6,o),
(700,-6,qs),
(649,-6,o),
(605,50,o),
(605,98,q),
(573,49,o),
(475,-6,o),
(420,-6,qs),
(342,-6,o),
(259,88,o),
(259,166,qs),
(259,222,o),
(294,323,o),
(358,401,o),
(448,447,o),
(503,447,qs),
(554,447,o),
(624,404,o),
(640,359,q),
(653,434,l),
(703,434,l),
(652,137,ls),
(644,91,o),
(667,34,o),
(709,34,qs),
(744,34,o),
(798,84,o),
(834,161,o),
(853,255,o),
(853,298,qs),
(853,366,o),
(810,475,o),
(728,550,o),
(612,590,o),
(538,590,qs),
(445,590,o),
(288,520,o),
(174,399,o),
(109,236,o),
(109,143,qs),
(109,73,o),
(153,-36,o),
(235,-111,o),
(352,-149,o),
(425,-149,qs),
(467,-149,o),
(551,-133,o),
(589,-116,q),
(596,-156,l),
(552,-173,o),
(460,-191,o),
(410,-191,qs)
);
},
{
closed = 1;
nodes = (
(471,39,o),
(534,68,o),
(584,120,o),
(617,193,o),
(621,238,q),
(626,272,o),
(615,331,o),
(585,376,o),
(534,402,o),
(499,402,qs),
(456,402,o),
(387,363,o),
(339,298,o),
(313,216,o),
(313,173,qs),
(313,112,o),
(375,39,o),
(436,39,qs)
);
}
);
width = 970;
}
);
unicode = 64;
},
{
glyphname = A;
layers = (
{
layerId = "8E574D32-79B1-4C19-B318-CDC7DA43E89A";
shapes = (
{
closed = 1;
nodes = (
(-34,0,l),
(342,700,l),
(543,700,l),
(672,0,l),
(491,0,l),
(468,144,l),
(219,144,l),
(145,0,l)
);
},
{
closed = 1;
nodes = (
(448,274,l),
(410,513,l),
(286,274,l)
);
}
);
width = 726;
},
{
layerId = "45EFDBD1-9215-4FBA-A8FC-D2A4A2D194F0";
shapes = (
{
closed = 1;
nodes = (
(-23,0,l),
(359,700,l),
(454,700,l),
(587,0,l),
(495,0,l),
(463,178,l),
(167,178,l),
(72,0,l)
);
},
{
closed = 1;
nodes = (
(452,248,l),
(388,595,l),
(203,248,l)
);
}
);
width = 652;
},
{
layerId = "E8D95BBD-8C7B-4E49-82A7-0CC1B9EBDD01";
shapes = (
{
closed = 1;
nodes = (
(-18,0,l),
(366,700,l),
(418,700,l),
(553,0,l),
(497,0,l),
(461,192,l),
(146,192,l),
(43,0,l)
);
},
{
closed = 1;
nodes = (
(453,237,l),
(379,628,l),
(170,237,l)
);
}
);
width = 623;
}
);
leftKerningGroup = A2;
rightKerningGroup = A;
unicode = 65;
},
{
glyphname = B;
layers = (
{
layerId = "8E574D32-79B1-4C19-B318-CDC7DA43E89A";
shapes = (
{
closed = 1;
nodes = (
(12,0,l),
(136,700,l),
(452,700,ls),
(500,700,o),
(574,680,o),
(625,640,o),
(651,583,o),
(651,545,qs),
(651,512,o),
(629,453,o),
(589,404,o),
(534,369,o),
(501,360,q),
(552,349,o),
(609,273,o),
(609,222,qs),
(609,171,o),
(567,88,o),
(494,31,o),
(395,0,o),
(339,0,qs)
);
},
{
closed = 1;
nodes = (
(257,417,l),
(368,417,ls),
(392,417,o),
(430,429,o),
(456,453,o),
(470,486,o),
(470,507,qs),
(470,538,o),
(433,567,o),
(395,566,qs),
(283,565,l)
);
},
{
closed = 1;
nodes = (
(207,136,l),
(333,136,ls),
(359,136,o),
(398,150,o),
(424,175,o),
(438,211,o),
(438,232,qs),
(438,261,o),
(397,294,o),
(359,294,qs),
(235,294,l)
);
}
);
width = 654;
},
{
layerId = "45EFDBD1-9215-4FBA-A8FC-D2A4A2D194F0";
shapes = (
{
closed = 1;
nodes = (
(23,0,l),
(146,700,l),
(396,700,ls),
(445,700,o),
(516,677,o),
(564,637,o),
(587,583,o),
(587,551,qs),
(587,515,o),
(564,453,o),
(523,404,o),
(467,370,o),
(432,361,q),
(482,351,o),
(543,276,o),
(543,222,qs),
(543,172,o),
(502,91,o),
(430,32,o),
(335,0,o),
(280,0,qs)
);
},
{
closed = 1;
nodes = (
(181,394,l),
(334,394,ls),
(371,394,o),
(429,414,o),
(471,452,o),
(494,504,o),
(494,536,qs),
(494,581,o),
(435,630,o),
(373,630,qs),
(222,630,l)
);
},
{
closed = 1;
nodes = (
(123,71,l),
(283,71,ls),
(322,71,o),
(386,93,o),
(431,133,o),
(457,190,o),
(457,224,qs),
(457,271,o),
(387,325,o),
(325,325,qs),
(168,325,l)
);
}
);
width = 597;
},
{
layerId = "E8D95BBD-8C7B-4E49-82A7-0CC1B9EBDD01";
shapes = (
{
closed = 1;
nodes = (
(27,0,l),
(150,700,l),
(374,700,ls),
(423,700,o),
(493,676,o),
(539,636,o),
(561,583,o),
(561,553,qs),
(561,516,o),
(538,453,o),
(497,404,o),
(440,370,o),
(405,361,q),
(454,352,o),
(517,277,o),
(517,222,qs),
(517,173,o),
(476,92,o),
(405,33,o),
(311,0,o),
(257,0,qs)
);
},
{
closed = 1;
nodes = (
(151,385,l),
(321,385,ls),
(362,385,o),
(429,408,o),
(477,451,o),
(504,511,o),
(504,547,qs),
(504,598,o),
(436,655,o),
(364,656,q),
(197,656,l)
);
},
{
closed = 1;
nodes = (
(90,45,l),
(263,45,ls),
(307,45,o),
(381,70,o),
(434,116,o),
(464,181,o),
(464,221,qs),
(464,275,o),
(383,338,o),
(311,338,qs),
(141,338,l)
);
}
);
width = 574;
}
);
unicode = 66;
},
{
glyphname = C;
layers = (
{
layerId = "8E574D32-79B1-4C19-B318-CDC7DA43E89A";
shapes = (
{
closed = 1;
nodes = (
(268,-12,o),
(161,29,o),
(87,103,o),
(49,206,o),
(49,269,qs),
(49,364,o),
(112,526,o),
(224,645,o),
(376,712,o),
(464,712,qs),
(598,712,o),
(745,579,o),
(743,454,q),
(555,454,l),
(553,505,o),
(493,556,o),
(436,556,qs),
(390,556,o),
(313,516,o),
(257,445,o),
(225,348,o),
(225,291,qs),
(225,219,o),
(298,143,o),
(367,143,qs),
(424,143,o),
(497,188,o),
(516,233,q),
(704,233,l),
(684,175,o),
(613,83,o),
(518,21,o),
(403,-12,o),
(338,-12,qs)
);
}
);
width = 744;
},
{
layerId = "45EFDBD1-9215-4FBA-A8FC-D2A4A2D194F0";
shapes = (
{
closed = 1;
nodes = (
(265,-12,o),
(161,28,o),
(89,102,o),
(52,205,o),
(52,268,qs),
(52,363,o),
(113,525,o),
(223,644,o),
(370,712,o),
(456,712,qs),
(578,712,o),
(709,597,o),
(712,492,q),
(613,492,l),
(611,559,o),
(527,634,o),
(444,634,qs),
(379,634,o),
(269,580,o),
(189,483,o),
(143,352,o),
(143,275,qs),
(143,175,o),
(249,66,o),
(344,66,qs),
(428,66,o),
(536,140,o),
(562,204,q),
(662,204,l),
(643,154,o),
(579,72,o),
(495,17,o),
(392,-12,o),
(332,-12,qs)
);
}
);
width = 709;
},
{
layerId = "E8D95BBD-8C7B-4E49-82A7-0CC1B9EBDD01";
shapes = (
{
closed = 1;
nodes = (
(264,-12,o),
(161,28,o),
(90,102,o),
(53,205,o),
(53,268,qs),
(53,362,o),
(114,524,o),
(222,644,o),
(368,712,o),
(453,712,qs),
(570,712,o),
(695,604,o),
(700,507,q),
(636,507,l),
(634,580,o),
(541,665,o),
(447,665,qs),
(375,665,o),
(252,605,o),
(162,498,o),
(110,353,o),
(110,269,qs),
(110,157,o),
(229,35,o),
(335,35,qs),
(429,35,o),
(552,121,o),
(581,193,q),
(645,193,l),
(626,145,o),
(566,68,o),
(486,16,o),
(388,-12,o),
(329,-12,qs)
);
}
);
width = 695;
}
);
leftKerningGroup = C2;
rightKerningGroup = C;
unicode = 67;
},
{
glyphname = D;
layers = (
{
layerId = "8E574D32-79B1-4C19-B318-CDC7DA43E89A";
shapes = (
{
closed = 1;
nodes = (
(13,0,l),
(136,700,l),
(399,700,ls),
(477,700,o),
(592,658,o),
(667,582,o),
(704,476,o),
(704,413,qs),
(704,322,o),
(642,170,o),
(529,61,o),
(372,0,o),
(276,0,qs)
);
},
{
closed = 1;
nodes = (
(210,148,l),
(291,148,ls),
(348,148,o),
(437,183,o),
(497,247,o),
(528,340,o),
(528,398,qs),
(528,479,o),
(444,554,o),
(363,554,qs),
(282,554,l)
);
}
);
width = 719;
},
{
layerId = "45EFDBD1-9215-4FBA-A8FC-D2A4A2D194F0";
shapes = (
{
closed = 1;
nodes = (
(23,0,l),
(146,700,l),
(363,700,ls),
(443,700,o),
(558,663,o),
(633,591,o),
(670,485,o),
(670,417,qs),
(670,325,o),
(609,171,o),
(498,61,o),
(338,0,o),
(240,0,qs)
);
},
{
closed = 1;
nodes = (
(124,74,l),
(251,74,ls),
(329,74,o),
(451,122,o),
(535,209,o),
(579,334,o),
(579,410,qs),
(579,517,o),
(471,626,o),
(349,626,qs),
(221,626,l)
);
}
);
width = 688;
},
{
layerId = "E8D95BBD-8C7B-4E49-82A7-0CC1B9EBDD01";
shapes = (
{
closed = 1;
nodes = (
(27,0,l),
(150,700,l),
(349,700,ls),
(429,700,o),
(544,665,o),
(620,594,o),
(656,489,o),
(656,419,qs),
(656,326,o),
(596,171,o),
(485,61,o),
(325,0,o),
(226,0,qs)
);
},
{
closed = 1;
nodes = (
(90,45,l),
(235,45,ls),
(321,45,o),
(456,97,o),
(550,194,o),
(600,331,o),
(600,415,qs),
(600,532,o),
(482,655,o),
(343,655,qs),
(197,655,l)
);
}
);
width = 675;
}
);
rightKerningGroup = D;
unicode = 68;
},
{
glyphname = E;
layers = (
{
layerId = "8E574D32-79B1-4C19-B318-CDC7DA43E89A";
shapes = (
{
closed = 1;
nodes = (
(12,0,l),
(136,700,l),
(596,700,l),
(572,565,l),
(283,565,l),
(258,421,l),
(517,421,l),
(494,292,l),
(235,292,l),
(207,135,l),
(496,135,l),
(472,0,l)
);
}
);
width = 566;
},
{
layerId = "45EFDBD1-9215-4FBA-A8FC-D2A4A2D194F0";
shapes = (
{
closed = 1;
nodes = (
(23,0,l),
(146,700,l),
(554,700,l),
(541,630,l),
(222,630,l),
(179,387,l),
(468,387,l),
(457,318,l),
(167,318,l),
(123,70,l),
(442,70,l),
(430,0,l)
);
}
);
width = 529;
},
{
layerId = "E8D95BBD-8C7B-4E49-82A7-0CC1B9EBDD01";
shapes = (
{
closed = 1;
nodes = (
(27,0,l),
(150,700,l),
(537,700,l),
(528,656,l),
(197,656,l),
(148,374,l),
(448,374,l),
(442,329,l),
(140,329,l),
(90,44,l),
(421,44,l),
(413,0,l)
);
}
);
width = 514;
}
);
unicode = 69;
},
{
glyphname = F;
layers = (
{
layerId = "8E574D32-79B1-4C19-B318-CDC7DA43E89A";
shapes = (
{
closed = 1;
nodes = (
(12,0,l),
(136,700,l),
(593,700,l),
(569,565,l),
(283,565,l),
(257,416,l),
(471,416,l),
(447,286,l),
(233,286,l),
(183,0,l)
);
}
);
width = 542;
},
{
layerId = "45EFDBD1-9215-4FBA-A8FC-D2A4A2D194F0";
shapes = (
{
closed = 1;
nodes = (
(23,0,l),
(146,700,l),
(564,700,l),
(551,630,l),
(222,630,l),
(179,386,l),
(456,386,l),
(443,317,l),
(167,317,l),
(111,0,l)
);
}
);
width = 516;
},
{
layerId = "E8D95BBD-8C7B-4E49-82A7-0CC1B9EBDD01";
shapes = (
{
closed = 1;
nodes = (
(27,0,l),
(150,700,l),
(552,700,l),
(544,656,l),
(197,656,l),
(148,374,l),
(450,374,l),
(442,330,l),
(140,330,l),
(82,0,l)
);
}
);
width = 506;
}
);
unicode = 70;
},
{
glyphname = G;
layers = (
{
layerId = "8E574D32-79B1-4C19-B318-CDC7DA43E89A";
shapes = (
{
closed = 1;
nodes = (
(263,-12,o),
(160,33,o),
(89,113,o),
(51,220,o),
(51,283,qs),
(51,379,o),
(116,537,o),
(231,650,o),
(389,712,o),
(481,712,qs),
(545,712,o),
(647,681,o),
(719,622,o),
(760,536,o),
(763,482,q),
(574,482,l),
(563,517,o),
(506,554,o),
(455,554,qs),
(405,554,o),
(321,517,o),
(261,450,o),
(227,356,o),
(227,298,qs),
(227,261,o),
(246,201,o),
(284,161,o),
(339,139,o),
(375,139,qs),
(414,139,o),
(476,160,o),
(523,195,o),
(557,243,o),
(567,270,q),
(416,270,l),
(438,396,l),
(760,396,l),
(690,0,l),
(535,0,l),
(531,70,l),
(494,30,o),
(396,-12,o),
(327,-12,qs)
);
}
);
width = 781;
},
{
layerId = "45EFDBD1-9215-4FBA-A8FC-D2A4A2D194F0";
shapes = (
{
closed = 1;
nodes = (
(262,-12,o),
(161,32,o),
(91,109,o),
(54,216,o),
(54,279,qs),
(54,374,o),
(114,533,o),
(222,648,o),
(370,712,o),
(460,712,qs),
(519,712,o),
(616,683,o),
(685,628,o),
(725,548,o),
(727,497,q),
(626,497,l),
(622,558,o),
(533,631,o),
(449,631,qs),
(381,631,o),
(270,580,o),
(189,488,o),
(145,361,o),
(145,285,qs),
(145,235,o),
(172,155,o),
(224,98,o),
(298,67,o),
(344,67,qs),
(399,67,o),
(487,101,o),
(555,163,o),
(603,252,o),
(616,306,q),
(416,306,l),
(429,375,l),
(719,375,l),
(653,0,l),
(571,0,l),
(584,113,l),
(536,53,o),
(416,-12,o),
(326,-12,qs)
);
}
);
width = 748;
},
{
layerId = "E8D95BBD-8C7B-4E49-82A7-0CC1B9EBDD01";
shapes = (
{
closed = 1;
nodes = (
(262,-12,o),
(162,31,o),
(92,108,o),
(55,214,o),
(55,277,qs),
(55,372,o),
(113,531,o),
(218,647,o),
(363,712,o),
(451,712,qs),
(509,712,o),
(604,684,o),
(672,630,o),
(711,553,o),
(713,503,q),
(647,503,l),
(645,575,o),
(544,662,o),
(447,662,qs),
(372,662,o),
(249,605,o),
(160,503,o),
(112,363,o),
(112,280,qs),
(112,225,o),
(143,136,o),
(200,73,o),
(281,38,o),
(331,38,qs),
(393,38,o),
(492,77,o),
(568,150,o),
(621,255,o),
(636,321,q),
(416,321,l),
(425,367,l),
(702,367,l),
(638,0,l),
(586,0,l),
(605,130,l),
(553,62,o),
(424,-12,o),
(325,-12,qs)
);
}
);
width = 735;
}
);
leftKerningGroup = C2;
rightKerningGroup = G;
unicode = 71;
},
{
glyphname = H;
layers = (
{
layerId = "8E574D32-79B1-4C19-B318-CDC7DA43E89A";
shapes = (
{
closed = 1;
nodes = (
(449,0,l),
(501,291,l),
(235,291,l),
(183,0,l),
(12,0,l),
(136,700,l),
(307,700,l),
(258,426,l),
(524,426,l),
(573,700,l),
(744,700,l),
(620,0,l)
);
}
);
width = 720;
},
{
layerId = "45EFDBD1-9215-4FBA-A8FC-D2A4A2D194F0";
shapes = (
{
closed = 1;
nodes = (
(470,0,l),
(527,322,l),
(168,322,l),
(111,0,l),
(23,0,l),
(146,700,l),
(234,700,l),
(180,392,l),
(539,392,l),
(594,700,l),
(682,700,l),
(558,0,l)
);
}
);
width = 668;
},
{
layerId = "E8D95BBD-8C7B-4E49-82A7-0CC1B9EBDD01";
shapes = (
{
closed = 1;
nodes = (
(478,0,l),
(537,335,l),
(141,335,l),
(82,0,l),
(27,0,l),
(150,700,l),
(205,700,l),
(149,378,l),
(545,378,l),
(602,700,l),
(657,700,l),
(533,0,l)
);
}
);
width = 647;
}
);
unicode = 72;
},
{
glyphname = I;
layers = (
{
layerId = "8E574D32-79B1-4C19-B318-CDC7DA43E89A";
shapes = (
{
closed = 1;
nodes = (
(12,0,l),
(136,700,l),
(307,700,l),
(183,0,l)
);
}
);
width = 283;
},
{
layerId = "45EFDBD1-9215-4FBA-A8FC-D2A4A2D194F0";
shapes = (
{
closed = 1;
nodes = (
(23,0,l),
(146,700,l),
(234,700,l),
(111,0,l)
);
}
);
width = 221;
},
{
layerId = "E8D95BBD-8C7B-4E49-82A7-0CC1B9EBDD01";
shapes = (
{
closed = 1;
nodes = (
(27,0,l),
(150,700,l),
(205,700,l),
(82,0,l)
);
}
);
width = 196;
}
);
unicode = 73;
},
{
glyphname = J;
layers = (
{
layerId = "8E574D32-79B1-4C19-B318-CDC7DA43E89A";
shapes = (
{
closed = 1;
nodes = (
(158,-12,o),
(74,19,o),
(20,80,o),
(0,171,o),
(10,230,q),
(180,230,l),
(176,208,o),
(179,174,o),
(193,152,o),
(218,141,o),
(234,141,qs),
(249,141,o),
(275,151,o),
(296,170,o),
(310,200,o),
(313,219,qs),
(398,700,l),
(569,700,l),
(484,219,ls),
(474,162,o),
(425,76,o),
(355,18,o),
(264,-12,o),
(212,-12,qs)
);
}
);
width = 545;
},
{
layerId = "45EFDBD1-9215-4FBA-A8FC-D2A4A2D194F0";
shapes = (
{
closed = 1;
nodes = (
(129,-12,o),
(61,15,o),
(19,66,o),
(4,141,o),
(12,188,q),
(101,188,l),
(97,162,o),
(100,118,o),
(120,86,o),
(157,67,o),
(186,67,qs),
(214,67,o),
(256,85,o),
(285,114,o),
(304,154,o),
(307,175,q),
(399,700,l),
(487,700,l),
(395,175,ls),
(388,132,o),
(349,63,o),
(291,14,o),
(216,-12,o),
(173,-12,qs)
);
}
);
width = 475;
},
{
layerId = "E8D95BBD-8C7B-4E49-82A7-0CC1B9EBDD01";
shapes = (
{
closed = 1;
nodes = (
(117,-12,o),
(56,13,o),
(18,61,o),
(6,129,o),
(13,171,q),
(69,171,l),
(65,144,o),
(69,96,o),
(91,59,o),
(133,37,o),
(167,37,qs),
(200,37,o),
(248,58,o),
(281,92,o),
(301,135,o),
(305,157,qs),
(399,700,l),
(454,700,l),
(360,157,ls),
(354,120,o),
(319,58,o),
(266,13,o),
(197,-12,o),
(157,-12,qs)
);
}
);
width = 447;
}
);
unicode = 74;
},
{
glyphname = K;
layers = (
{
layerId = "8E574D32-79B1-4C19-B318-CDC7DA43E89A";
shapes = (
{
closed = 1;
nodes = (
(13,0,l),
(136,700,l),
(307,700,l),
(264,451,l),
(533,700,l),
(742,700,l),
(438,424,l),
(629,0,l),
(424,0,l),
(295,295,l),
(225,230,l),
(184,0,l)
);
}
);
width = 692;
},
{
layerId = "45EFDBD1-9215-4FBA-A8FC-D2A4A2D194F0";
shapes = (
{
closed = 1;
nodes = (
(23,0,l),
(146,700,l),
(234,700,l),
(180,386,l),
(524,700,l),
(634,700,l),
(325,420,l),
(515,0,l),
(413,0,l),
(254,356,l),
(159,271,l),
(111,0,l)
);
}
);
width = 580;
},
{
layerId = "E8D95BBD-8C7B-4E49-82A7-0CC1B9EBDD01";
shapes = (
{
closed = 1;
nodes = (
(27,0,l),
(150,700,l),
(205,700,l),
(146,360,l),
(520,700,l),
(591,700,l),
(280,419,l),
(470,0,l),
(408,0,l),
(237,381,l),
(132,287,l),
(82,0,l)
);
}
);
width = 535;
}
);
rightKerningGroup = K;
unicode = 75;
},
{
glyphname = L;
layers = (
{
layerId = "8E574D32-79B1-4C19-B318-CDC7DA43E89A";
shapes = (
{
closed = 1;
nodes = (
(13,0,l),
(136,700,l),
(307,700,l),
(207,132,l),
(501,132,l),
(478,0,l)
);
}
);
width = 566;
},
{
layerId = "45EFDBD1-9215-4FBA-A8FC-D2A4A2D194F0";
shapes = (
{
closed = 1;
nodes = (
(23,0,l),
(146,700,l),
(234,700,l),
(123,71,l),
(448,71,l),
(436,0,l)
);
}
);
width = 514;
},
{
layerId = "E8D95BBD-8C7B-4E49-82A7-0CC1B9EBDD01";
shapes = (
{
closed = 1;
nodes = (
(27,0,l),
(150,700,l),
(205,700,l),
(90,46,l),
(427,46,l),
(419,0,l)
);
}
);
width = 493;
}
);
rightKerningGroup = L;
unicode = 76;
},
{
glyphname = M;
layers = (
{
layerId = "8E574D32-79B1-4C19-B318-CDC7DA43E89A";
shapes = (
{
closed = 1;
nodes = (
(13,0,l),
(136,700,l),
(342,700,l),
(466,301,l),
(726,700,l),
(931,700,l),
(808,0,l),
(637,0,l),
(710,416,l),
(498,100,l),
(360,100,l),
(257,417,l),
(184,0,l)
);
}
);
width = 908;
},
{
layerId = "45EFDBD1-9215-4FBA-A8FC-D2A4A2D194F0";
shapes = (
{
closed = 1;
nodes = (
(23,0,l),
(146,700,l),
(248,700,l),
(413,217,l),
(746,700,l),
(849,700,l),
(726,0,l),
(638,0,l),
(734,543,l),
(426,100,l),
(359,100,l),
(206,541,l),
(111,0,l)
);
}
);
width = 837;
},
{
layerId = "E8D95BBD-8C7B-4E49-82A7-0CC1B9EBDD01";
shapes = (
{
closed = 1;
nodes = (
(27,0,l),
(150,700,l),
(211,700,l),
(392,183,l),
(754,700,l),
(816,700,l),
(693,0,l),
(638,0,l),
(743,594,l),
(397,100,l),
(359,100,l),
(186,591,l),
(82,0,l)
);
}
);
width = 808;
}
);
unicode = 77;
},
{
glyphname = N;
layers = (
{
layerId = "8E574D32-79B1-4C19-B318-CDC7DA43E89A";
shapes = (
{
closed = 1;
nodes = (
(12,0,l),
(136,700,l),
(309,700,l),
(516,267,l),
(593,700,l),
(764,700,l),
(640,0,l),
(469,0,l),
(260,433,l),
(183,0,l)
);
}
);
width = 740;
},
{
layerId = "45EFDBD1-9215-4FBA-A8FC-D2A4A2D194F0";
shapes = (
{
closed = 1;
nodes = (
(23,0,l),
(146,700,l),
(234,700,l),
(505,140,l),
(603,700,l),
(691,700,l),
(568,0,l),
(480,0,l),
(210,561,l),
(111,0,l)
);
}
);
width = 678;
},
{
layerId = "E8D95BBD-8C7B-4E49-82A7-0CC1B9EBDD01";
shapes = (
{
closed = 1;
nodes = (
(27,0,l),
(150,700,l),
(204,700,l),
(500,89,l),
(607,700,l),
(662,700,l),
(539,0,l),
(484,0,l),
(190,612,l),
(82,0,l)
);
}
);
width = 653;
}
);
unicode = 78;
},
{
glyphname = O;
layers = (
{
layerId = "8E574D32-79B1-4C19-B318-CDC7DA43E89A";
shapes = (
{
closed = 1;
nodes = (
(295,-12,o),
(181,34,o),
(98,116,o),
(52,228,o),
(52,294,qs),
(52,381,o),
(117,534,o),
(231,647,o),
(385,712,o),
(474,712,qs),
(542,712,o),
(656,666,o),
(739,584,o),
(785,472,o),
(785,406,qs),
(785,319,o),
(720,166,o),
(606,53,o),
(452,-12,o),
(363,-12,qs)
);
},
{
closed = 1;
nodes = (
(429,143,o),
(512,181,o),
(573,247,o),
(609,338,o),
(609,390,qs),
(609,428,o),
(591,489,o),
(553,533,o),
(495,557,o),
(455,557,qs),
(408,557,o),
(325,519,o),
(264,453,o),
(228,363,o),
(228,310,qs),
(228,273,o),
(248,211,o),
(287,167,o),
(345,143,o),
(382,143,qs)
);
}
);
width = 801;
},
{
layerId = "45EFDBD1-9215-4FBA-A8FC-D2A4A2D194F0";
shapes = (
{
closed = 1;
nodes = (
(281,-12,o),
(173,33,o),
(96,112,o),
(53,222,o),
(53,287,qs),
(53,375,o),
(119,530,o),
(233,646,o),
(385,712,o),
(471,712,qs),
(536,712,o),
(644,668,o),
(721,589,o),
(764,481,o),
(764,415,qs),
(764,326,o),
(698,170,o),
(584,54,o),
(432,-12,o),
(346,-12,qs)
);
},
{
closed = 1;
nodes = (
(423,66,o),
(538,120,o),
(623,212,o),
(673,338,o),
(673,410,qs),
(673,462,o),
(642,545,o),
(585,602,o),
(506,633,o),
(459,633,qs),
(394,633,o),
(279,580,o),
(194,488,o),
(144,364,o),
(144,292,qs),
(144,241,o),
(176,157,o),
(232,98,o),
(311,66,o),
(358,66,qs)
);
}
);
width = 781;
},
{
layerId = "E8D95BBD-8C7B-4E49-82A7-0CC1B9EBDD01";
shapes = (
{
closed = 1;
nodes = (
(275,-12,o),
(170,32,o),
(95,110,o),
(53,219,o),
(53,284,qs),
(53,373,o),
(120,529,o),
(234,645,o),
(385,712,o),
(470,712,qs),
(534,712,o),
(639,669,o),
(714,591,o),
(755,484,o),
(755,419,qs),
(755,329,o),
(689,172,o),
(575,55,o),
(424,-12,o),
(339,-12,qs)
);
},
{
closed = 1;
nodes = (
(421,35,o),
(548,95,o),
(643,198,o),
(698,338,o),
(698,418,qs),
(698,476,o),
(662,567,o),
(598,630,o),
(511,664,o),
(460,664,qs),
(388,664,o),
(260,605,o),
(166,502,o),
(111,364,o),
(111,285,qs),
(111,228,o),
(147,135,o),
(210,70,o),
(298,35,o),
(349,35,qs)
);
}
);
width = 773;
}
);
leftKerningGroup = C2;
rightKerningGroup = D;
unicode = 79;
},
{
glyphname = P;
layers = (
{
layerId = "8E574D32-79B1-4C19-B318-CDC7DA43E89A";
shapes = (
{
closed = 1;
nodes = (
(13,0,l),
(136,700,l),
(423,700,ls),
(480,700,o),
(563,669,o),
(619,615,o),
(646,544,o),
(646,505,qs),
(646,447,o),
(601,352,o),
(520,286,o),
(410,250,o),
(344,250,qs),
(228,250,l),
(184,0,l)
);
},
{
closed = 1;
nodes = (
(252,386,l),
(355,386,ls),
(409,386,o),
(470,443,o),
(470,491,qs),
(470,526,o),
(430,562,o),
(386,562,qs),
(283,562,l)
);
}
);
width = 626;
},
{
layerId = "45EFDBD1-9215-4FBA-A8FC-D2A4A2D194F0";
shapes = (
{
closed = 1;
nodes = (
(23,0,l),
(146,700,l),
(379,700,ls),
(433,700,o),
(512,672,o),
(563,624,o),
(587,560,o),
(587,524,qs),
(587,468,o),
(547,382,o),
(473,322,o),
(370,290,o),
(308,290,qs),
(162,290,l),
(111,0,l)
);
},
{
closed = 1;
nodes = (
(175,364,l),
(318,364,ls),
(403,364,o),
(496,439,o),
(496,517,qs),
(496,565,o),
(434,627,o),
(364,627,qs),
(222,627,l)
);
}
);
width = 570;
},
{
layerId = "E8D95BBD-8C7B-4E49-82A7-0CC1B9EBDD01";
shapes = (
{
closed = 1;
nodes = (
(27,0,l),
(150,700,l),
(361,700,ls),
(414,700,o),
(491,673,o),
(540,627,o),
(564,566,o),
(564,531,qs),
(564,477,o),
(525,394,o),
(454,336,o),
(354,306,o),
(293,306,qs),
(136,306,l),
(82,0,l)
);
},
{
closed = 1;
nodes = (
(144,355,l),
(303,355,ls),
(400,355,o),
(506,437,o),
(506,528,qs),
(506,581,o),
(435,653,o),
(355,653,qs),
(197,653,l)
);
}
);
width = 548;
}
);
unicode = 80;
},
{
glyphname = Q;
layers = (
{
layerId = "8E574D32-79B1-4C19-B318-CDC7DA43E89A";
shapes = (
{
closed = 1;
nodes = (
(632,-118,l),
(473,302,l),
(314,302,l),
(473,-118,l)
);
},
{
alignment = -1;
ref = O;
}
);
width = 776;
},
{
layerId = "45EFDBD1-9215-4FBA-A8FC-D2A4A2D194F0";
shapes = (
{
closed = 1;
nodes = (
(586,-99,l),
(432,279,l),
(346,279,l),
(499,-99,l)
);
},
{
alignment = -1;
ref = O;
}
);
width = 774;
},
{
layerId = "E8D95BBD-8C7B-4E49-82A7-0CC1B9EBDD01";
shapes = (
{
closed = 1;
nodes = (
(568,-92,l),
(416,270,l),
(359,270,l),
(510,-92,l)
);
},
{
alignment = -1;
ref = O;
}
);
width = 773;
}
);
leftKerningGroup = C2;
unicode = 81;
},
{
glyphname = R;
layers = (
{
layerId = "8E574D32-79B1-4C19-B318-CDC7DA43E89A";
shapes = (
{
closed = 1;
nodes = (
(13,0,l),
(136,700,l),
(417,700,ls),
(474,700,o),
(560,669,o),
(617,616,o),
(646,546,o),
(646,508,qs),
(646,426,o),
(555,310,o),
(477,284,q),
(564,0,l),
(377,0,l),
(305,263,l),
(230,263,l),
(184,0,l)
);
},
{
closed = 1;
nodes = (
(252,384,l),
(358,384,ls),
(409,384,o),
(469,441,o),
(469,489,qs),
(469,505,o),
(459,531,o),
(440,549,o),
(409,558,o),
(388,558,qs),
(282,558,l)
);
}
);
width = 641;
},
{
layerId = "45EFDBD1-9215-4FBA-A8FC-D2A4A2D194F0";
shapes = (
{
closed = 1;
nodes = (
(23,0,l),
(146,700,l),
(373,700,ls),
(428,700,o),
(505,672,o),
(555,623,o),
(579,559,o),
(579,523,qs),
(579,437,o),
(481,322,o),
(398,300,q),
(496,0,l),
(401,0,l),
(310,289,l),
(162,288,l),
(111,0,l)
);
},
{
closed = 1;
nodes = (
(174,356,l),
(309,356,ls),
(390,356,o),
(488,438,o),
(488,515,qs),
(488,538,o),
(473,579,o),
(441,609,o),
(390,626,o),
(355,626,qs),
(221,626,l)
);
}
);
width = 582;
},
{
layerId = "E8D95BBD-8C7B-4E49-82A7-0CC1B9EBDD01";
shapes = (
{
closed = 1;
nodes = (
(27,0,l),
(150,700,l),
(356,700,ls),
(409,700,o),
(483,673,o),
(530,626,o),
(552,564,o),
(552,529,qs),
(552,441,o),
(451,327,o),
(366,307,q),
(469,0,l),
(410,0,l),
(312,299,l),
(135,298,l),
(82,0,l)
);
},
{
closed = 1;
nodes = (
(143,345,l),
(289,345,ls),
(383,345,o),
(496,437,o),
(496,525,qs),
(496,551,o),
(479,598,o),
(441,633,o),
(383,653,o),
(342,653,qs),
(197,653,l)
);
}
);
width = 558;
}
);
rightKerningGroup = R;
unicode = 82;
},
{
glyphname = S;
layers = (
{
layerId = "8E574D32-79B1-4C19-B318-CDC7DA43E89A";
shapes = (
{
closed = 1;
nodes = (
(135,-12,o),
(-7,60,o),
(28,212,c),
(211,212,l),
(205,161,o),
(235,131,o),
(287,131,cs),
(338,131,o),
(373,161,o),
(373,204,cs),
(373,257,o),
(301,279,o),
(227,305,cs),
(139,336,o),
(86,393,o),
(86,474,cs),
(86,617,o),
(209,712,o),
(376,712,cs),
(514,712,o),
(609,647,o),
(596,502,c),
(411,502,l),
(417,547,o),
(390,569,o),
(345,569,cs),
(298,569,o),
(271,542,o),
(271,507,cs),
(271,460,o),
(325,442,o),
(390,418,cs),
(480,386,o),
(560,329,o),
(560,227,cs),
(560,81,o),
(433,-12,o),
(265,-12,cs)
);
}
);
width = 605;
},
{
layerId = "45EFDBD1-9215-4FBA-A8FC-D2A4A2D194F0";
shapes = (
{
closed = 1;
nodes = (
(109,-12,o),
(9,71,o),
(35,211,c),
(132,211,l),
(118,127,o),
(166,66,o),
(268,66,cs),
(365,66,o),
(422,118,o),
(428,192,c),
(438,288,o),
(335,308,o),
(241,343,cs),
(150,376,o),
(105,429,o),
(111,510,cs),
(119,628,o),
(220,712,o),
(366,712,cs),
(493,712,o),
(579,641,o),
(560,516,c),
(463,516,l),
(475,591,o),
(427,634,o),
(350,634,cs),
(267,634,o),
(215,586,o),
(210,523,c),
(201,439,o),
(291,423,o),
(388,386,cs),
(471,354,o),
(535,302,o),
(526,202,c),
(519,78,o),
(414,-12,o),
(256,-12,cs)
);
}
);
width = 578;
},
{
layerId = "E8D95BBD-8C7B-4E49-82A7-0CC1B9EBDD01";
shapes = (
{
closed = 1;
nodes = (
(98,-12,o),
(16,75,o),
(38,210,c),
(101,210,l),
(83,114,o),
(139,40,o),
(260,40,cs),
(376,40,o),
(441,101,o),
(450,187,c),
(464,300,o),
(349,320,o),
(246,358,cs),
(154,392,o),
(112,444,o),
(121,524,cs),
(132,633,o),
(224,712,o),
(362,712,cs),
(485,712,o),
(567,639,o),
(546,522,c),
(484,522,l),
(498,608,o),
(442,660,o),
(352,660,cs),
(254,660,o),
(192,604,o),
(185,529,c),
(173,430,o),
(278,416,o),
(387,373,cs),
(467,341,o),
(525,291,o),
(513,192,c),
(502,77,o),
(407,-12,o),
(252,-12,cs)
);
}
);
width = 567;
}
);
leftKerningGroup = S2;
rightKerningGroup = S;
unicode = 83;
},
{
glyphname = T;
layers = (
{
layerId = "8E574D32-79B1-4C19-B318-CDC7DA43E89A";
shapes = (
{
closed = 1;
nodes = (
(176,0,l),
(276,566,l),
(74,566,l),
(98,700,l),
(672,700,l),
(649,566,l),
(447,566,l),
(347,0,l)
);
}
);
width = 611;
},
{
layerId = "45EFDBD1-9215-4FBA-A8FC-D2A4A2D194F0";
shapes = (
{
closed = 1;
nodes = (
(186,0,l),
(297,630,l),
(89,630,l),
(102,700,l),
(606,700,l),
(593,630,l),
(385,630,l),
(274,0,l)
);
}
);
width = 547;
},
{
layerId = "E8D95BBD-8C7B-4E49-82A7-0CC1B9EBDD01";
shapes = (
{
closed = 1;
nodes = (
(190,0,l),
(305,656,l),
(95,656,l),
(103,700,l),
(579,700,l),
(571,656,l),
(360,656,l),
(245,0,l)
);
}
);
width = 522;
}
);
leftKerningGroup = T2;
rightKerningGroup = T;
unicode = 84;
},
{
glyphname = U;
layers = (
{
layerId = "8E574D32-79B1-4C19-B318-CDC7DA43E89A";
shapes = (
{
closed = 1;
nodes = (
(239,-12,o),
(149,16,o),
(84,71,o),
(47,155,o),
(47,211,qs),
(47,227,o),
(50,260,o),
(53,278,qs),
(126,700,l),
(297,700,l),
(223,278,ls),
(221,268,o),
(219,250,o),
(219,242,qs),
(219,196,o),
(271,147,o),
(322,147,qs),
(352,147,o),
(402,164,o),
(439,198,o),
(463,247,o),
(469,278,qs),
(543,700,l),
(714,700,l),
(640,278,ls),
(627,204,o),
(561,95,o),
(468,23,o),
(354,-12,o),
(292,-12,qs)
);
}
);
width = 693;
},
{
layerId = "45EFDBD1-9215-4FBA-A8FC-D2A4A2D194F0";
shapes = (
{
closed = 1;
nodes = (
(227,-12,o),
(147,12,o),
(88,62,o),
(56,139,o),
(56,191,qs),
(56,208,o),
(59,241,o),
(62,259,qs),
(140,700,l),
(228,700,l),
(149,259,l),
(147,244,o),
(144,217,o),
(144,205,qs),
(144,133,o),
(223,68,o),
(289,68,qs),
(328,68,o),
(396,90,o),
(449,137,o),
(487,209,o),
(495,259,qs),
(574,700,l),
(663,700,l),
(584,259,ls),
(572,189,o),
(513,86,o),
(430,20,o),
(329,-12,o),
(274,-12,qs)
);
}
);
width = 654;
},
{
layerId = "E8D95BBD-8C7B-4E49-82A7-0CC1B9EBDD01";
shapes = (
{
closed = 1;
nodes = (
(222,-12,o),
(146,11,o),
(90,59,o),
(59,132,o),
(59,183,qs),
(59,200,o),
(62,234,o),
(65,252,qs),
(146,700,l),
(201,700,l),
(120,252,ls),
(117,235,o),
(114,204,o),
(114,190,qs),
(114,108,o),
(204,37,o),
(276,37,qs),
(318,37,o),
(393,61,o),
(453,112,o),
(496,194,o),
(506,252,qs),
(587,700,l),
(642,700,l),
(562,252,ls),
(550,183,o),
(494,83,o),
(415,19,o),
(319,-12,o),
(267,-12,qs)
);
}
);
width = 638;
}
);
leftKerningGroup = U2;
rightKerningGroup = U;
unicode = 85;
},
{
glyphname = V;
layers = (
{
layerId = "8E574D32-79B1-4C19-B318-CDC7DA43E89A";
shapes = (
{
closed = 1;
nodes = (
(208,0,l),
(83,700,l),
(265,700,l),
(346,172,l),
(612,700,l),
(794,700,l),
(422,0,l)
);
}
);
width = 717;
},
{
layerId = "45EFDBD1-9215-4FBA-A8FC-D2A4A2D194F0";
shapes = (
{
closed = 1;
nodes = (
(232,0,l),
(94,700,l),
(189,700,l),
(301,96,l),
(628,700,l),
(723,700,l),
(336,0,l)
);
}
);
width = 657;
},
{
layerId = "E8D95BBD-8C7B-4E49-82A7-0CC1B9EBDD01";
shapes = (
{
closed = 1;
nodes = (
(242,0,l),
(98,700,l),
(159,700,l),
(283,65,l),
(634,700,l),
(694,700,l),
(302,0,l)
);
}
);
width = 633;
}
);
unicode = 86;
},
{
glyphname = W;
layers = (
{
layerId = "8E574D32-79B1-4C19-B318-CDC7DA43E89A";
shapes = (
{
closed = 1;
nodes = (
(146,0,l),
(93,700,l),
(275,700,l),
(286,191,l),
(500,700,l),
(690,700,l),
(720,194,l),
(910,700,l),
(1094,700,l),
(788,0,l),
(581,0,l),
(550,461,l),
(353,0,l)
);
}
);
width = 1040;
},
{
layerId = "45EFDBD1-9215-4FBA-A8FC-D2A4A2D194F0";
shapes = (
{
closed = 1;
nodes = (
(160,-1,l),
(92,700,l),
(187,700,l),
(231,108,l),
(505,700,l),
(604,700,l),
(663,107,l),
(917,700,l),
(1013,700,l),
(693,0,l),
(592,0,l),
(529,570,l),
(259,0,l)
);
}
);
width = 958;
},
{
layerId = "E8D95BBD-8C7B-4E49-82A7-0CC1B9EBDD01";
shapes = (
{
closed = 1;
nodes = (
(165,-1,l),
(92,700,l),
(152,700,l),
(209,75,l),
(507,700,l),
(570,700,l),
(640,72,l),
(920,700,l),
(981,700,l),
(655,0,l),
(596,0,l),
(520,614,l),
(222,0,l)
);
}
);
width = 925;
}
);
leftKerningGroup = W2;
rightKerningGroup = W;
unicode = 87;
},
{
glyphname = X;
layers = (
{
layerId = "8E574D32-79B1-4C19-B318-CDC7DA43E89A";
shapes = (
{
closed = 1;
nodes = (
(435,0,l),
(330,215,l),
(166,0,l),
(-28,0,l),
(260,357,l),
(92,700,l),
(291,700,l),
(394,490,l),
(553,700,l),
(747,700,l),
(463,348,l),
(634,0,l)
);
}
);
width = 703;
},
{
layerId = "45EFDBD1-9215-4FBA-A8FC-D2A4A2D194F0";
shapes = (
{
closed = 1;
nodes = (
(404,0,l),
(282,279,l),
(72,0,l),
(-27,0,l),
(249,352,l),
(95,700,l),
(195,700,l),
(316,423,l),
(528,700,l),
(628,700,l),
(350,349,l),
(505,0,l)
);
}
);
width = 585;
},
{
layerId = "E8D95BBD-8C7B-4E49-82A7-0CC1B9EBDD01";
shapes = (
{
closed = 1;
nodes = (
(392,0,l),
(263,304,l),
(34,0,l),
(-27,0,l),
(244,350,l),
(96,700,l),
(157,700,l),
(285,396,l),
(518,700,l),
(581,700,l),
(305,349,l),
(453,0,l)
);
}
);
width = 538;
}
);
unicode = 88;
},
{
glyphname = Y;
layers = (
{
layerId = "8E574D32-79B1-4C19-B318-CDC7DA43E89A";
shapes = (
{
closed = 1;
nodes = (
(193,0,l),
(235,232,l),
(74,700,l),
(269,700,l),
(352,409,l),
(537,700,l),
(730,700,l),
(406,232,l),
(364,0,l)
);
}
);
width = 659;
},
{
layerId = "45EFDBD1-9215-4FBA-A8FC-D2A4A2D194F0";
shapes = (
{
closed = 1;
nodes = (
(191,0,l),
(238,265,l),
(85,700,l),
(185,700,l),
(296,349,l),
(531,700,l),
(631,700,l),
(326,265,l),
(279,0,l)
);
}
);
width = 568;
},
{
layerId = "E8D95BBD-8C7B-4E49-82A7-0CC1B9EBDD01";
shapes = (
{
closed = 1;
nodes = (
(190,0,l),
(239,278,l),
(89,700,l),
(152,700,l),
(274,325,l),
(529,700,l),
(591,700,l),
(294,278,l),
(245,0,l)
);
}
);
width = 532;
}
);
leftKerningGroup = Y2;
rightKerningGroup = Y;
unicode = 89;
},
{
glyphname = Z;
layers = (
{
layerId = "8E574D32-79B1-4C19-B318-CDC7DA43E89A";
shapes = (
{
closed = 1;
nodes = (
(-7,0,l),
(16,130,l),
(392,560,l),
(92,560,l),
(117,700,l),
(613,700,l),
(590,570,l),
(212,140,l),
(514,140,l),
(489,0,l)
);
}
);
width = 584;
},
{
layerId = "45EFDBD1-9215-4FBA-A8FC-D2A4A2D194F0";
shapes = (
{
closed = 1;
nodes = (
(-13,0,l),
(-1,69,l),
(439,624,l),
(101,624,l),
(116,700,l),
(556,700,l),
(544,631,l),
(102,76,l),
(450,76,l),
(436,0,l)
);
}
);
width = 523;
},
{
layerId = "E8D95BBD-8C7B-4E49-82A7-0CC1B9EBDD01";
shapes = (
{
closed = 1;
nodes = (
(-16,0,l),
(-8,45,l),
(458,650,l),
(105,650,l),
(115,700,l),
(533,700,l),
(525,655,l),
(58,50,l),
(424,50,l),
(415,0,l)
);
}
);
width = 498;
}
);
rightKerningGroup = Z;
unicode = 90;
},
{
glyphname = bracketleft;
layers = (
{
layerId = "8E574D32-79B1-4C19-B318-CDC7DA43E89A";
shapes = (
{
closed = 1;
nodes = (
(-21,-190,l),
(155,810,l),
(455,810,l),
(431,672,l),
(291,672,l),
(164,-51,l),
(304,-51,l),
(279,-190,l)
);
}
);
width = 401;
},
{
layerId = "45EFDBD1-9215-4FBA-A8FC-D2A4A2D194F0";
shapes = (
{
closed = 1;
nodes = (
(-5,-153,l),
(166,811,l),
(346,811,l),
(333,738,l),
(235,738,l),
(91,-80,l),
(188,-80,l),
(176,-153,l)
);
}
);
width = 298;
},
{
layerId = "E8D95BBD-8C7B-4E49-82A7-0CC1B9EBDD01";
shapes = (
{
closed = 1;
nodes = (
(2,-138,l),
(170,811,l),
(303,811,l),
(294,765,l),
(213,765,l),
(62,-91,l),
(142,-91,l),
(135,-138,l)
);
}
);
width = 257;
}
);
unicode = 91;
},
{
glyphname = backslash;
layers = (
{
layerId = "8E574D32-79B1-4C19-B318-CDC7DA43E89A";
shapes = (
{
closed = 1;
nodes = (
(195,-127,l),
(108,790,l),
(273,790,l),
(360,-127,l)
);
}
);
width = 438;
},
{
layerId = "45EFDBD1-9215-4FBA-A8FC-D2A4A2D194F0";
shapes = (
{
closed = 1;
nodes = (
(211,-97,l),
(112,766,l),
(199,766,l),
(297,-97,l)
);
}
);
width = 379;
},
{
layerId = "E8D95BBD-8C7B-4E49-82A7-0CC1B9EBDD01";
shapes = (
{
closed = 1;
nodes = (
(217,-85,l),
(113,756,l),
(169,756,l),
(272,-85,l)
);
}
);
width = 355;
}
);
unicode = 92;
},
{
glyphname = bracketright;
layers = (
{
layerId = "8E574D32-79B1-4C19-B318-CDC7DA43E89A";
shapes = (
{
closed = 1;
nodes = (
(456,811,l),
(280,-189,l),
(-20,-189,l),
(4,-51,l),
(144,-51,l),
(271,672,l),
(131,672,l),
(156,811,l)
);
}
);
width = 401;
},
{
layerId = "45EFDBD1-9215-4FBA-A8FC-D2A4A2D194F0";
shapes = (
{
closed = 1;
nodes = (
(346,811,l),
(176,-153,l),
(-5,-153,l),
(8,-80,l),
(106,-80,l),
(250,738,l),
(153,738,l),
(165,811,l)
);
}
);
width = 298;
},
{
layerId = "E8D95BBD-8C7B-4E49-82A7-0CC1B9EBDD01";
shapes = (
{
closed = 1;
nodes = (
(302,811,l),
(134,-138,l),
(1,-138,l),
(10,-92,l),
(91,-92,l),
(242,764,l),
(162,764,l),
(169,811,l)
);
}
);
width = 257;
}
);
unicode = 93;
},
{
glyphname = asciicircum;
layers = (
{
layerId = "8E574D32-79B1-4C19-B318-CDC7DA43E89A";
shapes = (
{
closed = 1;
nodes = (
(3,161,l),
(340,700,l),
(506,700,l),
(652,161,l),
(479,161,l),
(388,502,l),
(175,161,l)
);
}
);
width = 697;
},
{
layerId = "45EFDBD1-9215-4FBA-A8FC-D2A4A2D194F0";
shapes = (
{
closed = 1;
nodes = (
(9,177,l),
(337,700,l),
(418,700,l),
(561,177,l),
(471,177,l),
(359,592,l),
(99,177,l)
);
}
);
width = 610;
},
{
layerId = "E8D95BBD-8C7B-4E49-82A7-0CC1B9EBDD01";
shapes = (
{
closed = 1;
nodes = (
(11,184,l),
(336,700,l),
(383,700,l),
(525,184,l),
(468,184,l),
(348,628,l),
(69,184,l)
);
}
);
width = 575;
}
);
unicode = 94;
},
{
glyphname = underscore;
layers = (
{
layerId = "8E574D32-79B1-4C19-B318-CDC7DA43E89A";
shapes = (
{
closed = 1;
nodes = (
(-35,-205,l),
(-7,-41,l),
(613,-41,l),
(585,-205,l)
);
}
);
width = 709;
},
{
layerId = "45EFDBD1-9215-4FBA-A8FC-D2A4A2D194F0";
shapes = (
{
closed = 1;
nodes = (
(-14,-119,l),
(1,-36,l),
(529,-36,l),
(515,-119,l)
);
}
);
width = 630;
},
{
layerId = "E8D95BBD-8C7B-4E49-82A7-0CC1B9EBDD01";
shapes = (
{
closed = 1;
nodes = (
(-5,-84,l),
(4,-34,l),
(495,-34,l),
(487,-84,l)
);
}
);
width = 598;
}
);
unicode = 95;
},
{
glyphname = grave;
layers = (
{
layerId = "8E574D32-79B1-4C19-B318-CDC7DA43E89A";
shapes = (
{
closed = 1;
nodes = (
(295,534,l),
(73,635,l),
(96,768,l),
(317,652,l)
);
}
);
width = 250;
},
{
layerId = "45EFDBD1-9215-4FBA-A8FC-D2A4A2D194F0";
shapes = (
{
closed = 1;
nodes = (
(276,538,l),
(86,653,l),
(99,729,l),
(288,603,l)
);
}
);
width = 240;
},
{
layerId = "E8D95BBD-8C7B-4E49-82A7-0CC1B9EBDD01";
shapes = (
{
closed = 1;
nodes = (
(269,539,l),
(91,660,l),
(100,713,l),
(276,583,l)
);
}
);
width = 236;
}
);
unicode = 96;
},
{
glyphname = a;
layers = (
{
layerId = "8E574D32-79B1-4C19-B318-CDC7DA43E89A";
shapes = (
{
closed = 1;
nodes = (
(190,-12,o),
(118,22,o),
(67,81,o),
(39,162,o),
(39,210,qs),
(39,274,o),
(83,384,o),
(159,465,o),
(262,512,o),
(320,512,qs),
(380,512,o),
(449,473,o),
(466,447,q),
(497,500,l),
(647,500,l),
(560,0,l),
(409,0,l),
(397,60,l),
(384,45,o),
(351,19,o),
(311,-1,o),
(263,-12,o),
(234,-12,qs)
);
},
{
closed = 1;
nodes = (
(337,138,o),
(385,160,o),
(420,197,o),
(441,245,o),
(441,271,qs),
(441,311,o),
(390,362,o),
(345,362,qs),
(318,362,o),
(271,341,o),
(237,306,o),
(218,259,o),
(218,233,qs),
(218,213,o),
(230,178,o),
(253,153,o),
(288,138,o),
(310,138,qs)
);
}
);
width = 660;
},
{
layerId = "45EFDBD1-9215-4FBA-A8FC-D2A4A2D194F0";
shapes = (
{
closed = 1;
nodes = (
(194,-12,o),
(117,23,o),
(65,83,o),
(37,163,o),
(37,209,qs),
(37,275,o),
(81,386,o),
(158,466,o),
(262,512,o),
(322,512,qs),
(389,512,o),
(471,461,o),
(491,418,q),
(513,500,l),
(595,500,l),
(506,0,l),
(425,0,l),
(431,82,l),
(417,64,o),
(380,30,o),
(333,4,o),
(277,-12,o),
(242,-12,qs)
);
},
{
closed = 1;
nodes = (
(310,65,o),
(382,101,o),
(434,163,o),
(463,245,o),
(463,292,qs),
(463,357,o),
(390,435,o),
(326,435,qs),
(284,435,o),
(211,402,o),
(158,343,o),
(129,263,o),
(129,217,qs),
(129,185,o),
(148,129,o),
(184,89,o),
(236,65,o),
(268,65,qs)
);
}
);
width = 612;
},
{
layerId = "E8D95BBD-8C7B-4E49-82A7-0CC1B9EBDD01";
shapes = (
{
closed = 1;
nodes = (
(195,-12,o),
(117,23,o),
(64,84,o),
(36,164,o),
(36,209,qs),
(36,276,o),
(80,387,o),
(157,467,o),
(262,512,o),
(323,512,qs),
(392,512,o),
(480,456,o),
(501,406,q),
(519,500,l),
(574,500,l),
(485,0,l),
(431,0,l),
(445,91,l),
(430,72,o),
(391,34,o),
(342,6,o),
(282,-12,o),
(245,-12,qs)
);
},
{
closed = 1;
nodes = (
(299,36,o),
(381,77,o),
(439,149,o),
(472,245,o),
(472,300,qs),
(472,376,o),
(390,464,o),
(318,464,qs),
(270,464,o),
(187,426,o),
(127,358,o),
(93,265,o),
(93,211,qs),
(93,174,o),
(115,109,o),
(156,63,o),
(215,36,o),
(251,36,qs)
);
}
);
width = 593;
}
);
leftKerningGroup = a2;
rightKerningGroup = a;
unicode = 97;
},
{
glyphname = b;
layers = (
{
layerId = "8E574D32-79B1-4C19-B318-CDC7DA43E89A";
shapes = (
{
closed = 1;
nodes = (
(309,-12,o),
(267,-3,o),
(232,13,o),
(204,38,o),
(194,53,q),
(163,0,l),
(12,0,l),
(140,726,l),
(313,726,l),
(264,451,l),
(291,477,o),
(370,512,o),
(422,512,qs),
(466,512,o),
(540,479,o),
(594,420,o),
(624,341,o),
(624,294,qs),
(624,232,o),
(580,121,o),
(502,37,o),
(396,-12,o),
(334,-12,qs)
);
},
{
closed = 1;
nodes = (
(344,138,o),
(391,158,o),
(426,192,o),
(446,238,o),
(446,264,qs),
(446,284,o),
(432,319,o),
(406,346,o),
(369,362,o),
(346,362,qs),
(319,362,o),
(272,342,o),
(238,308,o),
(219,260,o),
(219,233,qs),
(219,193,o),
(272,138,o),
(317,138,qs)
);
}
);
width = 662;
},
{
layerId = "45EFDBD1-9215-4FBA-A8FC-D2A4A2D194F0";
shapes = (
{
closed = 1;
nodes = (
(257,-12,o),
(204,4,o),
(161,30,o),
(130,65,o),
(121,83,q),
(97,0,l),
(17,0,l),
(145,726,l),
(234,726,l),
(180,423,l),
(212,460,o),
(303,512,o),
(370,512,qs),
(418,512,o),
(494,479,o),
(548,421,o),
(576,343,o),
(576,298,qs),
(576,232,o),
(532,119,o),
(455,36,o),
(349,-12,o),
(287,-12,qs)
);
},
{
closed = 1;
nodes = (
(333,65,o),
(403,98,o),
(455,157,o),
(484,237,o),
(484,284,qs),
(484,317,o),
(465,372,o),
(429,412,o),
(378,435,o),
(345,435,qs),
(303,435,o),
(231,401,o),
(179,340,o),
(149,259,o),
(149,212,qs),
(149,146,o),
(226,65,o),
(291,65,qs)
);
}
);
width = 611;
},
{
layerId = "E8D95BBD-8C7B-4E49-82A7-0CC1B9EBDD01";
shapes = (
{
closed = 1;
nodes = (
(236,-12,o),
(179,7,o),
(133,37,o),
(100,76,o),
(92,95,q),
(71,0,l),
(19,0,l),
(147,726,l),
(203,726,l),
(147,412,l),
(180,453,o),
(276,512,o),
(349,512,qs),
(399,512,o),
(476,479,o),
(529,422,o),
(557,344,o),
(557,299,qs),
(557,232,o),
(513,118,o),
(436,35,o),
(330,-12,o),
(268,-12,qs)
);
},
{
closed = 1;
nodes = (
(328,36,o),
(408,74,o),
(467,143,o),
(499,237,o),
(499,292,qs),
(499,330,o),
(478,393,o),
(438,439,o),
(381,464,o),
(345,464,qs),
(297,464,o),
(215,424,o),
(155,353,o),
(121,258,o),
(121,203,qs),
(121,127,o),
(208,36,o),
(280,36,qs)
);
}
);
width = 591;
}
);
rightKerningGroup = b;
unicode = 98;
},
{
glyphname = c;
layers = (
{
layerId = "8E574D32-79B1-4C19-B318-CDC7DA43E89A";
shapes = (
{
closed = 1;
nodes = (
(215,-12,o),
(130,19,o),
(70,76,o),
(38,156,o),
(38,205,qs),
(38,267,o),
(85,379,o),
(171,463,o),
(289,512,o),
(360,512,qs),
(464,512,o),
(586,401,o),
(586,300,q),
(402,300,l),
(402,315,o),
(392,339,o),
(374,356,o),
(349,365,o),
(334,365,qs),
(309,365,o),
(266,342,o),
(234,302,o),
(216,250,o),
(216,221,qs),
(216,202,o),
(226,170,o),
(245,147,o),
(274,135,o),
(292,135,qs),
(326,135,o),
(374,170,o),
(385,200,q),
(569,200,l),
(551,151,o),
(491,73,o),
(412,18,o),
(319,-12,o),
(268,-12,qs)
);
}
);
width = 619;
},
{
layerId = "45EFDBD1-9215-4FBA-A8FC-D2A4A2D194F0";
shapes = (
{
closed = 1;
nodes = (
(199,-12,o),
(121,19,o),
(66,75,o),
(36,153,o),
(36,201,qs),
(36,268,o),
(83,382,o),
(164,465,o),
(274,512,o),
(337,512,qs),
(430,512,o),
(536,417,o),
(537,335,q),
(446,335,l),
(446,360,o),
(427,398,o),
(394,423,o),
(350,436,o),
(325,436,qs),
(285,436,o),
(213,403,o),
(160,343,o),
(129,259,o),
(129,210,qs),
(129,176,o),
(149,121,o),
(184,83,o),
(232,63,o),
(259,63,qs),
(310,63,o),
(397,114,o),
(417,165,q),
(508,165,l),
(493,125,o),
(442,61,o),
(374,14,o),
(292,-12,o),
(246,-12,qs)
);
}
);
width = 561;
},
{
layerId = "E8D95BBD-8C7B-4E49-82A7-0CC1B9EBDD01";
shapes = (
{
closed = 1;
nodes = (
(192,-12,o),
(118,19,o),
(65,74,o),
(35,152,o),
(35,199,qs),
(35,268,o),
(82,383,o),
(161,466,o),
(268,512,o),
(328,512,qs),
(417,512,o),
(516,424,o),
(518,349,q),
(464,349,l),
(464,378,o),
(441,421,o),
(402,450,o),
(350,465,o),
(322,465,qs),
(275,465,o),
(192,427,o),
(130,359,o),
(94,263,o),
(94,206,qs),
(94,165,o),
(118,101,o),
(159,57,o),
(215,34,o),
(246,34,qs),
(304,34,o),
(406,91,o),
(430,151,q),
(483,151,l),
(470,115,o),
(423,56,o),
(359,12,o),
(281,-12,o),
(237,-12,qs)
);
}
);
width = 538;
}
);
leftKerningGroup = a2;
unicode = 99;
},
{
glyphname = d;
layers = (
{
layerId = "8E574D32-79B1-4C19-B318-CDC7DA43E89A";
shapes = (
{
closed = 1;
nodes = (
(190,-12,o),
(118,22,o),
(67,81,o),
(39,162,o),
(39,210,qs),
(39,274,o),
(83,384,o),
(159,465,o),
(262,512,o),
(320,512,qs),
(380,512,o),
(449,473,o),
(466,447,q),
(514,726,l),
(687,726,l),
(560,0,l),
(407,0,l),
(397,60,l),
(384,45,o),
(351,19,o),
(311,-1,o),
(263,-12,o),
(234,-12,qs)
);
},
{
closed = 1;
nodes = (
(337,138,o),
(385,160,o),
(420,197,o),
(441,245,o),
(441,271,qs),
(441,311,o),
(390,362,o),
(345,362,qs),
(318,362,o),
(271,341,o),
(237,306,o),
(218,259,o),
(218,233,qs),
(218,213,o),
(230,178,o),
(253,153,o),
(288,138,o),
(310,138,qs)
);
}
);
width = 660;
},
{
layerId = "45EFDBD1-9215-4FBA-A8FC-D2A4A2D194F0";
shapes = (
{
closed = 1;
nodes = (
(194,-12,o),
(117,23,o),
(65,83,o),
(37,163,o),
(37,209,qs),
(37,275,o),
(81,386,o),
(158,466,o),
(262,512,o),
(322,512,qs),
(389,512,o),
(471,461,o),
(491,418,q),
(546,726,l),
(635,726,l),
(506,0,l),
(425,0,l),
(431,82,l),
(417,64,o),
(380,30,o),
(333,4,o),
(277,-12,o),
(242,-12,qs)
);
},
{
closed = 1;
nodes = (
(310,65,o),
(382,101,o),
(434,163,o),
(463,245,o),
(463,292,qs),
(463,357,o),
(390,435,o),
(326,435,qs),
(284,435,o),
(211,402,o),
(158,343,o),
(129,263,o),
(129,217,qs),
(129,185,o),
(148,129,o),
(184,89,o),
(236,65,o),
(268,65,qs)
);
}
);
width = 613;
},
{
layerId = "E8D95BBD-8C7B-4E49-82A7-0CC1B9EBDD01";
shapes = (
{
closed = 1;
nodes = (
(195,-12,o),
(117,23,o),
(64,84,o),
(36,164,o),
(36,209,qs),
(36,276,o),
(80,387,o),
(157,467,o),
(262,512,o),
(323,512,qs),
(392,512,o),
(480,456,o),
(501,406,q),
(559,726,l),
(614,726,l),
(485,0,l),
(432,0,l),
(445,91,l),
(430,72,o),
(391,34,o),
(342,6,o),
(282,-12,o),
(245,-12,qs)
);
},
{
closed = 1;
nodes = (
(299,36,o),
(381,77,o),
(439,149,o),
(472,245,o),
(472,300,qs),
(472,376,o),
(390,464,o),
(318,464,qs),
(270,464,o),
(187,426,o),
(127,358,o),
(93,265,o),
(93,211,qs),
(93,174,o),
(115,109,o),
(156,63,o),
(215,36,o),
(251,36,qs)
);
}
);
width = 594;
}
);
leftKerningGroup = a2;
unicode = 100;
},
{
glyphname = e;
layers = (
{
layerId = "8E574D32-79B1-4C19-B318-CDC7DA43E89A";
shapes = (
{
closed = 1;
nodes = (
(390,-12,o),
(501,65,o),
(550,165,c),
(373,165,l),
(354,144,o),
(328,127,o),
(292,127,cs),
(234,127,o),
(208,160,o),
(208,215,cs),
(208,292,o),
(256,375,o),
(340,375,cs),
(387,375,o),
(416,345,o),
(413,302,c),
(215,302,l),
(194,207,l),
(570,207,l),
(578,234,o),
(586,268,o),
(586,305,cs),
(586,429,o),
(494,512,o),
(362,512,cs),
(166,512,o),
(38,367,o),
(38,203,cs),
(38,70,o),
(126,-12,o),
(270,-12,cs)
);
}
);
width = 616;
},
{
layerId = "45EFDBD1-9215-4FBA-A8FC-D2A4A2D194F0";
shapes = (
{
closed = 1;
nodes = (
(362,-12,o),
(451,56,o),
(494,146,c),
(402,146,l),
(373,95,o),
(326,64,o),
(258,64,cs),
(173,64,o),
(121,128,o),
(139,239,cs),
(154,341,o),
(210,436,o),
(325,436,cs),
(407,436,o),
(456,386,o),
(442,290,c),
(136,290,l),
(123,228,l),
(521,228,l),
(527,249,o),
(532,274,o),
(532,297,c),
(543,418,o),
(475,512,o),
(338,512,cs),
(178,512,o),
(60,390,o),
(48,223,cs),
(36,81,o),
(112,-12,o),
(246,-12,cs)
);
}
);
width = 571;
},
{
layerId = "1A39A06C-9893-4EA5-830A-5E03556E98F1";
associatedMasterId = "E8D95BBD-8C7B-4E49-82A7-0CC1B9EBDD01";
name = 1;
shapes = (
{
closed = 1;
nodes = (
(186,-12,o),
(114,18,o),
(63,73,o),
(35,151,o),
(35,198,qs),
(35,264,o),
(79,379,o),
(156,464,o),
(261,512,o),
(323,512,qs),
(372,512,o),
(444,482,o),
(492,431,o),
(515,365,o),
(515,328,qs),
(515,309,o),
(507,258,o),
(503,239,q),
(92,239,l),
(86,200,o),
(98,127,o),
(135,70,o),
(197,36,o),
(241,36,qs),
(303,36,o),
(393,95,o),
(419,144,q),
(472,144,l),
(457,110,o),
(411,53,o),
(350,11,o),
(275,-12,o),
(231,-12,qs)
);
},
{
closed = 1;
nodes = (
(460,294,l),
(467,370,o),
(398,463,o),
(315,463,qs),
(281,463,o),
(213,441,o),
(156,398,o),
(113,335,o),
(103,294,q)
);
}
);
width = 537;
},
{
anchors = (
{
name = bottom;
position = "{233, 0}";
},
{
name = ogonek;
position = "{344, 11}";
},
{
name = top;
position = "{325, 511}";
}
);
layerId = "E8D95BBD-8C7B-4E49-82A7-0CC1B9EBDD01";
shapes = (
{
closed = 1;
nodes = (
(351,-12,o),
(431,52,o),
(472,139,c),
(413,139,l),
(380,75,o),
(325,39,o),
(245,39,cs),
(148,39,o),
(86,115,o),
(111,248,cs),
(132,360,o),
(192,461,o),
(319,461,cs),
(415,461,o),
(472,402,o),
(453,285,c),
(104,285,l),
(95,237,l),
(501,237,l),
(506,255,o),
(510,276,o),
(511,294,c),
(526,414,o),
(468,512,o),
(329,512,cs),
(183,512,o),
(69,399,o),
(52,231,c),
(35,85,o),
(107,-12,o),
(236,-12,cs)
);
}
);
width = 553;
}
);
leftKerningGroup = a2;
rightKerningGroup = e;
unicode = 101;
},
{
glyphname = f;
layers = (
{
layerId = "8E574D32-79B1-4C19-B318-CDC7DA43E89A";
shapes = (
{
closed = 1;
nodes = (
(32,0,l),
(96,357,l),
(31,357,l),
(57,500,l),
(121,500,l),
(126,530,ls),
(136,585,o),
(179,660,o),
(239,706,o),
(315,726,o),
(359,726,qs),
(418,726,l),
(392,580,l),
(359,580,ls),
(330,580,o),
(304,558,o),
(298,532,q),
(292,500,l),
(385,500,l),
(360,357,l),
(267,357,l),
(205,0,l)
);
}
);
width = 379;
},
{
layerId = "45EFDBD1-9215-4FBA-A8FC-D2A4A2D194F0";
shapes = (
{
closed = 1;
nodes = (
(43,0,l),
(119,425,l),
(45,425,l),
(59,500,l),
(132,500,l),
(147,584,ls),
(153,621,o),
(182,675,o),
(225,710,o),
(283,726,o),
(318,726,qs),
(368,726,l),
(355,650,l),
(318,650,ls),
(279,650,o),
(243,619,o),
(236,582,qs),
(221,500,l),
(344,500,l),
(330,425,l),
(208,425,l),
(133,0,l)
);
}
);
width = 325;
},
{
layerId = "E8D95BBD-8C7B-4E49-82A7-0CC1B9EBDD01";
shapes = (
{
closed = 1;
nodes = (
(48,0,l),
(128,452,l),
(50,452,l),
(60,500,l),
(137,500,l),
(155,606,ls),
(160,636,o),
(183,681,o),
(220,711,o),
(270,726,o),
(301,726,qs),
(348,726,l),
(340,678,l),
(301,678,ls),
(259,678,o),
(219,644,o),
(211,602,qs),
(193,500,l),
(327,500,l),
(318,452,l),
(185,452,l),
(104,0,l)
);
}
);
width = 303;
}
);
unicode = 102;
},
{
glyphname = g;
layers = (
{
layerId = "8E574D32-79B1-4C19-B318-CDC7DA43E89A";
shapes = (
{
closed = 1;
nodes = (
(208,-234,o),
(117,-212,o),
(46,-163,o),
(5,-82,o),
(10,-22,q),
(182,-22,l),
(179,-54,o),
(233,-85,o),
(275,-85,qs),
(296,-85,o),
(337,-73,o),
(373,-48,o),
(399,-8,o),
(404,21,qs),
(413,74,l),
(400,59,o),
(366,33,o),
(325,14,o),
(277,4,o),
(250,4,qs),
(203,4,o),
(125,37,o),
(70,95,o),
(40,173,o),
(40,218,qs),
(40,279,o),
(86,386,o),
(164,466,o),
(269,512,o),
(329,512,qs),
(377,512,o),
(459,477,o),
(479,448,q),
(505,500,l),
(660,500,l),
(578,32,ls),
(565,-40,o),
(500,-141,o),
(412,-205,o),
(307,-234,o),
(254,-234,qs)
);
},
{
closed = 1;
nodes = (
(342,152,o),
(389,171,o),
(425,204,o),
(446,249,o),
(446,274,qs),
(446,292,o),
(433,324,o),
(407,348,o),
(371,362,o),
(347,362,qs),
(320,362,o),
(273,343,o),
(238,310,o),
(218,267,o),
(218,242,qs),
(218,207,o),
(267,152,o),
(315,152,qs)
);
}
);
width = 672;
},
{
layerId = "45EFDBD1-9215-4FBA-A8FC-D2A4A2D194F0";
shapes = (
{
closed = 1;
nodes = (
(182,-234,o),
(100,-208,o),
(39,-159,o),
(5,-88,o),
(5,-42,q),
(93,-42,l),
(98,-95,o),
(178,-156,o),
(242,-156,qs),
(278,-156,o),
(345,-133,o),
(399,-87,o),
(438,-19,o),
(446,27,qs),
(458,100,l),
(443,78,o),
(400,39,o),
(347,9,o),
(283,-9,o),
(247,-9,qs),
(201,-9,o),
(123,24,o),
(67,83,o),
(36,162,o),
(36,208,qs),
(36,270,o),
(82,381,o),
(161,464,o),
(270,512,o),
(333,512,qs),
(399,512,o),
(495,455,o),
(514,412,q),
(544,500,l),
(619,500,l),
(534,21,ls),
(524,-38,o),
(470,-132,o),
(391,-199,o),
(289,-234,o),
(231,-234,qs)
);
},
{
closed = 1;
nodes = (
(318,68,o),
(395,103,o),
(452,164,o),
(485,245,o),
(485,290,qs),
(485,323,o),
(462,376,o),
(422,414,o),
(367,435,o),
(334,435,qs),
(289,435,o),
(213,400,o),
(159,340,o),
(129,261,o),
(129,216,qs),
(129,150,o),
(208,68,o),
(275,68,qs)
);
}
);
width = 636;
},
{
layerId = "E8D95BBD-8C7B-4E49-82A7-0CC1B9EBDD01";
shapes = (
{
closed = 1;
nodes = (
(172,-234,o),
(93,-207,o),
(36,-158,o),
(5,-91,o),
(3,-50,q),
(58,-50,l),
(66,-112,o),
(156,-185,o),
(229,-185,qs),
(271,-185,o),
(348,-157,o),
(410,-103,o),
(454,-23,o),
(463,30,qs),
(476,110,l),
(460,86,o),
(414,42,o),
(356,7,o),
(286,-14,o),
(246,-14,qs),
(200,-14,o),
(122,19,o),
(66,78,o),
(35,158,o),
(35,204,qs),
(35,267,o),
(80,379,o),
(160,463,o),
(270,512,o),
(335,512,qs),
(408,512,o),
(509,446,o),
(528,398,q),
(560,500,l),
(602,500,l),
(516,17,ls),
(507,-37,o),
(458,-129,o),
(382,-196,o),
(282,-234,o),
(222,-234,qs)
);
},
{
closed = 1;
nodes = (
(309,34,o),
(397,76,o),
(463,148,o),
(501,244,o),
(501,297,qs),
(501,335,o),
(474,397,o),
(428,441,o),
(365,464,o),
(329,464,qs),
(276,464,o),
(189,423,o),
(127,352,o),
(93,259,o),
(93,206,qs),
(93,127,o),
(185,34,o),
(259,34,qs)
);
}
);
width = 621;
}
);
leftKerningGroup = g;
unicode = 103;
},
{
glyphname = h;
layers = (
{
layerId = "218428F3-C2E4-493D-AB13-2BDCD21CB23B";
name = "#instance";
shapes = (
{
closed = 1;
nodes = (
(382,0,l),
(432,282,ls),
(445,360,o),
(395,436,o),
(333,436,qs),
(301,436,o),
(242,413,o),
(195,369,o),
(161,303,o),
(153,260,qs),
(107,0,l),
(18,0,l),
(145,726,l),
(234,726,l),
(180,415,l),
(212,461,o),
(310,512,o),
(368,512,qs),
(412,512,o),
(479,485,o),
(520,430,o),
(532,347,o),
(522,291,qs),
(471,0,l)
);
}
);
width = 566;
},
{
layerId = "8E574D32-79B1-4C19-B318-CDC7DA43E89A";
shapes = (
{
closed = 1;
nodes = (
(371,0,l),
(416,257,ls),
(425,309,o),
(396,368,o),
(347,368,qs),
(326,368,o),
(287,353,o),
(257,325,o),
(236,285,o),
(231,259,qs),
(186,0,l),
(13,0,l),
(140,726,l),
(313,726,l),
(261,432,l),
(291,468,o),
(379,512,o),
(437,512,qs),
(486,512,o),
(554,480,o),
(592,418,o),
(601,329,o),
(591,272,qs),
(542,0,l)
);
}
);
width = 637;
},
{
layerId = "45EFDBD1-9215-4FBA-A8FC-D2A4A2D194F0";
shapes = (
{
closed = 1;
nodes = (
(382,0,l),
(432,282,ls),
(445,360,o),
(395,436,o),
(333,436,qs),
(301,436,o),
(242,413,o),
(195,369,o),
(161,303,o),
(153,260,qs),
(107,0,l),
(18,0,l),
(145,726,l),
(234,726,l),
(180,415,l),
(212,461,o),
(310,512,o),
(368,512,qs),
(412,512,o),
(479,485,o),
(520,430,o),
(532,347,o),
(522,291,qs),
(471,0,l)
);
}
);
width = 566;
},
{
layerId = "E8D95BBD-8C7B-4E49-82A7-0CC1B9EBDD01";
shapes = (
{
closed = 1;
nodes = (
(386,0,l),
(438,292,ls),
(453,380,o),
(394,463,o),
(327,463,qs),
(291,463,o),
(224,437,o),
(170,386,o),
(131,310,o),
(122,261,qs),
(76,0,l),
(20,0,l),
(147,726,l),
(203,726,l),
(147,408,l),
(181,458,o),
(283,512,o),
(340,512,qs),
(382,512,o),
(449,487,o),
(491,435,o),
(505,354,o),
(495,298,qs),
(442,0,l)
);
}
);
width = 537;
}
);
rightKerningGroup = h;
unicode = 104;
},
{
glyphname = i;
layers = (
{
layerId = "8E574D32-79B1-4C19-B318-CDC7DA43E89A";
shapes = (
{
closed = 1;
nodes = (
(165,539,o),
(109,594,o),
(109,632,qs),
(109,671,o),
(165,726,o),
(212,726,qs),
(257,726,o),
(314,671,o),
(314,632,qs),
(314,594,o),
(257,539,o),
(212,539,qs)
);
},
{
closed = 1;
nodes = (
(13,0,l),
(101,500,l),
(273,500,l),
(186,0,l)
);
}
);
width = 288;
},
{
layerId = "45EFDBD1-9215-4FBA-A8FC-D2A4A2D194F0";
shapes = (
{
closed = 1;
nodes = (
(163,607,o),
(128,641,o),
(128,666,qs),
(128,692,o),
(163,726,o),
(189,726,qs),
(214,726,o),
(250,692,o),
(250,666,qs),
(250,641,o),
(214,607,o),
(189,607,qs)
);
},
{
closed = 1;
nodes = (
(27,0,l),
(115,500,l),
(203,500,l),
(116,0,l)
);
}
);
width = 231;
},
{
layerId = "E8D95BBD-8C7B-4E49-82A7-0CC1B9EBDD01";
shapes = (
{
closed = 1;
nodes = (
(162,634,o),
(136,660,o),
(136,680,qs),
(136,701,o),
(162,726,o),
(180,726,qs),
(197,726,o),
(224,701,o),
(224,680,qs),
(224,660,o),
(197,634,o),
(180,634,qs)
);
},
{
closed = 1;
nodes = (
(32,0,l),
(120,500,l),
(175,500,l),
(88,0,l)
);
}
);
width = 208;
}
);
unicode = 105;
},
{
glyphname = j;
layers = (
{
layerId = "8E574D32-79B1-4C19-B318-CDC7DA43E89A";
shapes = (
{
closed = 1;
nodes = (
(157,539,o),
(101,594,o),
(101,632,qs),
(101,671,o),
(157,726,o),
(204,726,qs),
(249,726,o),
(306,671,o),
(306,632,qs),
(306,594,o),
(249,539,o),
(204,539,qs)
);
},
{
closed = 1;
nodes = (
(-128,-222,l),
(-102,-76,l),
(-60,-76,ls),
(-31,-76,o),
(-5,-53,o),
(0,-28,qs),
(93,500,l),
(265,500,l),
(172,-26,ls),
(162,-81,o),
(120,-156,o),
(60,-202,o),
(-16,-222,o),
(-60,-222,qs)
);
}
);
width = 284;
},
{
layerId = "45EFDBD1-9215-4FBA-A8FC-D2A4A2D194F0";
shapes = (
{
closed = 1;
nodes = (
(161,607,o),
(126,641,o),
(126,666,qs),
(126,692,o),
(161,726,o),
(187,726,qs),
(212,726,o),
(247,692,o),
(247,666,qs),
(247,641,o),
(212,607,o),
(187,607,qs)
);
},
{
closed = 1;
nodes = (
(-124,-222,l),
(-111,-146,l),
(-73,-146,ls),
(-35,-146,o),
(3,-115,o),
(9,-78,qs),
(112,500,l),
(200,500,l),
(98,-80,ls),
(92,-117,o),
(64,-171,o),
(20,-206,o),
(-38,-222,o),
(-73,-222,qs)
);
}
);
width = 232;
},
{
layerId = "E8D95BBD-8C7B-4E49-82A7-0CC1B9EBDD01";
shapes = (
{
closed = 1;
nodes = (
(162,634,o),
(136,660,o),
(136,680,qs),
(136,701,o),
(162,726,o),
(180,726,qs),
(197,726,o),
(223,701,o),
(223,680,qs),
(223,660,o),
(197,634,o),
(180,634,qs)
);
},
{
closed = 1;
nodes = (
(-123,-222,l),
(-114,-174,l),
(-78,-174,ls),
(-36,-174,o),
(6,-140,o),
(13,-98,qs),
(119,500,l),
(174,500,l),
(69,-102,ls),
(64,-132,o),
(41,-177,o),
(4,-207,o),
(-47,-222,o),
(-78,-222,qs)
);
}
);
width = 211;
}
);
unicode = 106;
},
{
glyphname = k;
layers = (
{
layerId = "8E574D32-79B1-4C19-B318-CDC7DA43E89A";
shapes = (
{
closed = 1;
nodes = (
(12,0,l),
(185,0,l),
(314,726,l),
(141,726,l)
);
},
{
closed = 1;
nodes = (
(193,95,l),
(638,500,l),
(431,500,l),
(229,303,l)
);
},
{
closed = 1;
nodes = (
(270,187,l),
(382,0,l),
(584,0,l),
(389,292,l)
);
}
);
width = 632;
},
{
layerId = "45EFDBD1-9215-4FBA-A8FC-D2A4A2D194F0";
shapes = (
{
closed = 1;
nodes = (
(17,0,l),
(106,0,l),
(235,726,l),
(146,726,l)
);
},
{
closed = 1;
nodes = (
(120,146,l),
(514,500,l),
(401,500,l),
(140,260,l)
);
},
{
closed = 1;
nodes = (
(201,248,l),
(348,0,l),
(452,0,l),
(265,304,l)
);
}
);
width = 508;
},
{
layerId = "E8D95BBD-8C7B-4E49-82A7-0CC1B9EBDD01";
shapes = (
{
closed = 1;
nodes = (
(19,0,l),
(75,0,l),
(204,726,l),
(148,726,l)
);
},
{
closed = 1;
nodes = (
(91,167,l),
(464,500,l),
(389,500,l),
(104,243,l)
);
},
{
closed = 1;
nodes = (
(173,272,l),
(334,0,l),
(399,0,l),
(216,309,l)
);
}
);
width = 458;
}
);
rightKerningGroup = k;
unicode = 107;
},
{
glyphname = l;
layers = (
{
layerId = "8E574D32-79B1-4C19-B318-CDC7DA43E89A";
shapes = (
{
closed = 1;
nodes = (
(12,0,l),
(141,726,l),
(314,726,l),
(185,0,l)
);
}
);
width = 286;
},
{
layerId = "45EFDBD1-9215-4FBA-A8FC-D2A4A2D194F0";
shapes = (
{
closed = 1;
nodes = (
(17,0,l),
(146,726,l),
(235,726,l),
(106,0,l)
);
}
);
width = 213;
},
{
layerId = "E8D95BBD-8C7B-4E49-82A7-0CC1B9EBDD01";
shapes = (
{
closed = 1;
nodes = (
(19,0,l),
(148,726,l),
(204,726,l),
(75,0,l)
);
}
);
width = 184;
}
);
unicode = 108;
},
{
glyphname = m;
layers = (
{
layerId = "218428F3-C2E4-493D-AB13-2BDCD21CB23B";
name = "#instance";
shapes = (
{
closed = 1;
nodes = (
(698,0,l),
(747,282,ls),
(760,360,o),
(711,436,o),
(657,436,qs),
(631,436,o),
(581,415,o),
(540,375,o),
(506,316,o),
(496,277,q),
(447,0,l),
(358,0,l),
(407,282,ls),
(421,360,o),
(373,436,o),
(319,436,qs),
(291,436,o),
(238,413,o),
(193,368,o),
(160,302,o),
(152,258,qs),
(107,0,l),
(18,0,l),
(106,500,l),
(185,500,l),
(178,417,l),
(207,462,o),
(293,512,o),
(345,512,qs),
(400,512,o),
(480,464,o),
(495,410,q),
(528,459,o),
(628,512,o),
(680,512,qs),
(723,512,o),
(789,486,o),
(832,431,o),
(848,348,o),
(838,291,qs),
(786,0,l)
);
}
);
width = 881;
},
{
layerId = "8E574D32-79B1-4C19-B318-CDC7DA43E89A";
shapes = (
{
closed = 1;
nodes = (
(700,0,l),
(745,257,ls),
(754,309,o),
(720,368,o),
(676,368,qs),
(657,368,o),
(625,355,o),
(601,329,o),
(583,293,o),
(577,270,q),
(528,0,l),
(357,0,l),
(402,257,ls),
(411,309,o),
(380,368,o),
(335,368,qs),
(314,368,o),
(280,353,o),
(253,324,o),
(236,283,o),
(231,257,qs),
(186,0,l),
(13,0,l),
(101,500,l),
(251,500,l),
(255,439,l),
(283,472,o),
(360,512,o),
(412,512,qs),
(469,512,o),
(544,471,o),
(565,429,q),
(599,467,o),
(689,512,o),
(744,512,qs),
(797,512,o),
(873,480,o),
(917,418,o),
(930,329,o),
(919,272,q),
(871,0,l)
);
}
);
width = 966;
},
{
layerId = "45EFDBD1-9215-4FBA-A8FC-D2A4A2D194F0";
shapes = (
{
closed = 1;
nodes = (
(698,0,l),
(747,282,ls),
(760,360,o),
(711,436,o),
(657,436,qs),
(631,436,o),
(581,415,o),
(540,375,o),
(506,316,o),
(496,277,q),
(447,0,l),
(358,0,l),
(407,282,ls),
(421,360,o),
(373,436,o),
(319,436,qs),
(291,436,o),
(238,413,o),
(193,368,o),
(160,302,o),
(152,258,qs),
(107,0,l),
(18,0,l),
(106,500,l),
(185,500,l),
(178,417,l),
(207,462,o),
(293,512,o),
(345,512,qs),
(400,512,o),
(480,464,o),
(495,410,q),
(528,459,o),
(628,512,o),
(680,512,qs),
(723,512,o),
(789,486,o),
(832,431,o),
(848,348,o),
(838,291,qs),
(786,0,l)
);
}
);
width = 881;
},
{
layerId = "E8D95BBD-8C7B-4E49-82A7-0CC1B9EBDD01";
shapes = (
{
closed = 1;
nodes = (
(697,0,l),
(748,292,ls),
(763,380,o),
(708,463,o),
(650,463,qs),
(621,463,o),
(564,439,o),
(515,393,o),
(475,325,o),
(464,280,q),
(414,0,l),
(358,0,l),
(409,292,ls),
(425,380,o),
(370,463,o),
(312,463,qs),
(282,463,o),
(221,437,o),
(169,385,o),
(130,309,o),
(121,259,qs),
(76,0,l),
(20,0,l),
(108,500,l),
(158,500,l),
(147,408,l),
(177,458,o),
(266,512,o),
(318,512,qs),
(373,512,o),
(454,461,o),
(467,403,q),
(499,456,o),
(603,512,o),
(655,512,qs),
(693,512,o),
(756,488,o),
(798,436,o),
(815,355,o),
(806,298,q),
(752,0,l)
);
}
);
width = 847;
}
);
leftKerningGroup = m;
rightKerningGroup = h;
unicode = 109;
},
{
glyphname = n;
layers = (
{
layerId = "8E574D32-79B1-4C19-B318-CDC7DA43E89A";
shapes = (
{
closed = 1;
nodes = (
(371,0,l),
(416,257,ls),
(418,268,o),
(420,286,o),
(420,294,qs),
(420,330,o),
(386,368,o),
(347,368,qs),
(304,368,o),
(240,309,o),
(231,257,qs),
(186,0,l),
(13,0,l),
(101,500,l),
(251,500,l),
(256,426,l),
(285,465,o),
(373,512,o),
(433,512,qs),
(514,512,o),
(598,424,o),
(598,342,qs),
(598,326,o),
(594,291,o),
(591,272,qs),
(542,0,l)
);
}
);
width = 637;
},
{
layerId = "45EFDBD1-9215-4FBA-A8FC-D2A4A2D194F0";
shapes = (
{
closed = 1;
nodes = (
(382,0,l),
(432,282,ls),
(434,296,o),
(436,320,o),
(436,330,qs),
(436,383,o),
(383,436,o),
(333,436,qs),
(270,436,o),
(171,350,o),
(155,268,qs),
(107,0,l),
(18,0,l),
(106,500,l),
(186,500,l),
(177,412,l),
(209,459,o),
(309,512,o),
(367,512,qs),
(443,512,o),
(528,430,o),
(528,351,qs),
(528,336,o),
(525,307,o),
(522,291,qs),
(471,0,l)
);
}
);
width = 566;
},
{
layerId = "E8D95BBD-8C7B-4E49-82A7-0CC1B9EBDD01";
shapes = (
{
closed = 1;
nodes = (
(386,0,l),
(438,292,l),
(440,307,o),
(443,333,o),
(443,344,qs),
(443,404,o),
(382,463,o),
(327,463,qs),
(256,463,o),
(144,366,o),
(124,272,q),
(76,0,l),
(20,0,l),
(108,500,l),
(160,500,l),
(146,406,l),
(179,457,o),
(283,512,o),
(340,512,qs),
(414,512,o),
(500,432,o),
(500,354,qs),
(500,340,o),
(498,314,o),
(495,298,qs),
(442,0,l)
);
}
);
width = 537;
}
);
leftKerningGroup = m;
rightKerningGroup = h;
unicode = 110;
},
{
glyphname = o;
layers = (
{
layerId = "8E574D32-79B1-4C19-B318-CDC7DA43E89A";
shapes = (
{
closed = 1;
nodes = (
(216,-12,o),
(132,23,o),
(72,84,o),
(40,167,o),
(40,215,qs),
(40,278,o),
(86,386,o),
(168,466,o),
(279,512,o),
(343,512,qs),
(394,512,o),
(479,478,o),
(540,418,o),
(574,335,o),
(574,285,qs),
(574,223,o),
(527,114,o),
(445,34,o),
(332,-12,o),
(267,-12,qs)
);
},
{
closed = 1;
nodes = (
(312,137,o),
(352,159,o),
(380,196,o),
(396,248,o),
(396,278,qs),
(396,299,o),
(385,330,o),
(366,352,o),
(340,363,o),
(325,363,qs),
(302,363,o),
(262,341,o),
(233,304,o),
(217,252,o),
(217,222,qs),
(217,202,o),
(228,170,o),
(247,148,o),
(274,137,o),
(289,137,qs)
);
}
);
width = 614;
},
{
layerId = "45EFDBD1-9215-4FBA-A8FC-D2A4A2D194F0";
shapes = (
{
closed = 1;
nodes = (
(204,-12,o),
(125,21,o),
(68,80,o),
(36,160,o),
(36,207,qs),
(36,272,o),
(82,384,o),
(163,466,o),
(270,512,o),
(332,512,qs),
(380,512,o),
(459,481,o),
(516,424,o),
(548,344,o),
(548,296,qs),
(548,232,o),
(501,118,o),
(421,35,o),
(312,-12,o),
(251,-12,qs)
);
},
{
closed = 1;
nodes = (
(303,64,o),
(374,99,o),
(426,160,o),
(456,242,o),
(456,290,qs),
(456,325,o),
(434,379,o),
(397,417,o),
(349,436,o),
(322,436,qs),
(281,436,o),
(211,401,o),
(158,340,o),
(128,258,o),
(128,210,qs),
(128,175,o),
(150,121,o),
(186,83,o),
(235,64,o),
(262,64,qs)
);
}
);
width = 584;
},
{
layerId = "E8D95BBD-8C7B-4E49-82A7-0CC1B9EBDD01";
shapes = (
{
closed = 1;
nodes = (
(199,-12,o),
(122,20,o),
(66,78,o),
(35,157,o),
(35,204,qs),
(35,270,o),
(81,383,o),
(161,466,o),
(267,512,o),
(328,512,qs),
(374,512,o),
(451,482,o),
(506,426,o),
(537,348,o),
(537,301,qs),
(537,235,o),
(491,120,o),
(411,36,o),
(304,-12,o),
(244,-12,qs)
);
},
{
closed = 1;
nodes = (
(299,35,o),
(383,75,o),
(445,145,o),
(480,240,o),
(480,295,qs),
(480,336,o),
(454,399,o),
(410,443,o),
(353,465,o),
(321,465,qs),
(273,465,o),
(190,425,o),
(128,355,o),
(93,260,o),
(93,205,qs),
(93,164,o),
(119,101,o),
(162,57,o),
(220,35,o),
(251,35,qs)
);
}
);
width = 572;
}
);
leftKerningGroup = a2;
rightKerningGroup = b;
unicode = 111;
},
{
glyphname = p;
layers = (
{
layerId = "218428F3-C2E4-493D-AB13-2BDCD21CB23B";
name = "#instance";
shapes = (
{
closed = 1;
nodes = (
(-21,-222,l),
(106,500,l),
(188,500,l),
(181,418,l),
(212,458,o),
(304,512,o),
(371,512,qs),
(419,512,o),
(495,479,o),
(548,421,o),
(577,343,o),
(577,298,qs),
(577,232,o),
(533,119,o),
(456,36,o),
(350,-12,o),
(288,-12,qs),
(258,-12,o),
(205,4,o),
(162,30,o),
(130,65,o),
(122,83,q),
(67,-222,l)
);
},
{
closed = 1;
nodes = (
(333,65,o),
(404,98,o),
(456,157,o),
(485,237,o),
(485,284,qs),
(485,317,o),
(466,372,o),
(430,412,o),
(378,435,o),
(346,435,qs),
(304,435,o),
(232,401,o),
(179,340,o),
(150,259,o),
(150,212,qs),
(150,146,o),
(227,65,o),
(291,65,qs)
);
}
);
width = 613;
},
{
layerId = "8E574D32-79B1-4C19-B318-CDC7DA43E89A";
shapes = (
{
closed = 1;
nodes = (
(-25,-222,l),
(101,500,l),
(252,500,l),
(262,440,l),
(291,474,o),
(370,512,o),
(422,512,qs),
(466,512,o),
(540,479,o),
(594,420,o),
(624,341,o),
(624,294,qs),
(624,232,o),
(580,121,o),
(502,37,o),
(396,-12,o),
(334,-12,qs),
(309,-12,o),
(267,-3,o),
(232,13,o),
(204,38,o),
(194,53,q),
(147,-222,l)
);
},
{
closed = 1;
nodes = (
(344,138,o),
(391,158,o),
(426,192,o),
(446,238,o),
(446,264,qs),
(446,284,o),
(432,319,o),
(406,346,o),
(369,362,o),
(346,362,qs),
(319,362,o),
(272,342,o),
(238,308,o),
(219,260,o),
(219,233,qs),
(219,193,o),
(272,138,o),
(317,138,qs)
);
}
);
width = 662;
},
{
layerId = "45EFDBD1-9215-4FBA-A8FC-D2A4A2D194F0";
shapes = (
{
closed = 1;
nodes = (
(-21,-222,l),
(106,500,l),
(188,500,l),
(181,418,l),
(212,458,o),
(304,512,o),
(371,512,qs),
(419,512,o),
(495,479,o),
(548,421,o),
(577,343,o),
(577,298,qs),
(577,232,o),
(533,119,o),
(456,36,o),
(350,-12,o),
(288,-12,qs),
(258,-12,o),
(205,4,o),
(162,30,o),
(130,65,o),
(122,83,q),
(67,-222,l)
);
},
{
closed = 1;
nodes = (
(333,65,o),
(404,98,o),
(456,157,o),
(485,237,o),
(485,284,qs),
(485,317,o),
(466,372,o),
(430,412,o),
(378,435,o),
(346,435,qs),
(304,435,o),
(232,401,o),
(179,340,o),
(150,259,o),
(150,212,qs),
(150,146,o),
(227,65,o),
(291,65,qs)
);
}
);
width = 613;
},
{
layerId = "E8D95BBD-8C7B-4E49-82A7-0CC1B9EBDD01";
shapes = (
{
closed = 1;
nodes = (
(-20,-222,l),
(108,500,l),
(162,500,l),
(149,409,l),
(181,452,o),
(277,512,o),
(350,512,qs),
(400,512,o),
(477,479,o),
(530,422,o),
(558,344,o),
(558,299,qs),
(558,232,o),
(514,118,o),
(437,35,o),
(331,-12,o),
(269,-12,qs),
(237,-12,o),
(180,7,o),
(134,37,o),
(101,76,o),
(93,95,q),
(35,-222,l)
);
},
{
closed = 1;
nodes = (
(329,36,o),
(409,74,o),
(468,143,o),
(500,237,o),
(500,292,qs),
(500,330,o),
(479,393,o),
(439,439,o),
(382,464,o),
(346,464,qs),
(298,464,o),
(216,424,o),
(156,353,o),
(122,258,o),
(122,203,qs),
(122,127,o),
(209,36,o),
(281,36,qs)
);
}
);
width = 593;
}
);
rightKerningGroup = b;
unicode = 112;
},
{
glyphname = q;
layers = (
{
layerId = "8E574D32-79B1-4C19-B318-CDC7DA43E89A";
shapes = (
{
closed = 1;
nodes = (
(350,-222,l),
(397,60,l),
(384,45,o),
(351,19,o),
(311,-1,o),
(263,-12,o),
(234,-12,qs),
(190,-12,o),
(118,22,o),
(67,81,o),
(39,162,o),
(39,210,qs),
(39,274,o),
(83,384,o),
(159,465,o),
(262,512,o),
(320,512,qs),
(380,512,o),
(449,473,o),
(466,447,q),
(496,500,l),
(647,500,l),
(522,-222,l)
);
},
{
closed = 1;
nodes = (
(337,138,o),
(385,160,o),
(420,197,o),
(441,245,o),
(441,271,qs),
(441,311,o),
(390,362,o),
(345,362,qs),
(318,362,o),
(271,341,o),
(237,306,o),
(218,259,o),
(218,233,qs),
(218,213,o),
(230,178,o),
(253,153,o),
(288,138,o),
(310,138,qs)
);
}
);
width = 662;
},
{
layerId = "45EFDBD1-9215-4FBA-A8FC-D2A4A2D194F0";
shapes = (
{
closed = 1;
nodes = (
(379,-222,l),
(431,82,l),
(417,64,o),
(380,30,o),
(333,4,o),
(277,-12,o),
(242,-12,qs),
(194,-12,o),
(117,23,o),
(65,83,o),
(37,163,o),
(37,209,qs),
(37,275,o),
(81,386,o),
(158,466,o),
(262,512,o),
(322,512,qs),
(389,512,o),
(471,461,o),
(491,418,q),
(515,500,l),
(595,500,l),
(468,-222,l)
);
},
{
closed = 1;
nodes = (
(310,65,o),
(382,101,o),
(434,163,o),
(463,245,o),
(463,292,qs),
(463,357,o),
(390,435,o),
(326,435,qs),
(284,435,o),
(211,402,o),
(158,343,o),
(129,263,o),
(129,217,qs),
(129,185,o),
(148,129,o),
(184,89,o),
(236,65,o),
(268,65,qs)
);
}
);
width = 613;
},
{
layerId = "E8D95BBD-8C7B-4E49-82A7-0CC1B9EBDD01";
shapes = (
{
closed = 1;
nodes = (
(391,-222,l),
(445,91,l),
(430,72,o),
(391,34,o),
(342,6,o),
(282,-12,o),
(245,-12,qs),
(195,-12,o),
(117,23,o),
(64,84,o),
(36,164,o),
(36,209,qs),
(36,276,o),
(80,387,o),
(157,467,o),
(262,512,o),
(323,512,qs),
(392,512,o),
(480,456,o),
(501,406,q),
(522,500,l),
(574,500,l),
(447,-222,l)
);
},
{
closed = 1;
nodes = (
(299,36,o),
(381,77,o),
(439,149,o),
(472,245,o),
(472,300,qs),
(472,376,o),
(390,464,o),
(318,464,qs),
(270,464,o),
(187,426,o),
(127,358,o),
(93,265,o),
(93,211,qs),
(93,174,o),
(115,109,o),
(156,63,o),
(215,36,o),
(251,36,qs)
);
}
);
width = 594;
}
);
leftKerningGroup = a2;
unicode = 113;
},
{
glyphname = r;
layers = (
{
layerId = "8E574D32-79B1-4C19-B318-CDC7DA43E89A";
shapes = (
{
closed = 1;
nodes = (
(13,0,l),
(101,500,l),
(253,500,l),
(255,408,l),
(292,455,o),
(394,512,o),
(453,512,q),
(420,330,l),
(373,330,ls),
(342,330,o),
(292,318,o),
(254,289,o),
(228,241,o),
(222,205,qs),
(186,0,l)
);
}
);
width = 428;
},
{
layerId = "45EFDBD1-9215-4FBA-A8FC-D2A4A2D194F0";
shapes = (
{
closed = 1;
nodes = (
(18,0,l),
(106,500,l),
(187,500,l),
(179,410,l),
(213,459,o),
(317,512,o),
(384,512,q),
(368,419,l),
(344,419,ls),
(311,419,o),
(248,404,o),
(198,368,o),
(162,309,o),
(154,266,qs),
(107,0,l)
);
}
);
width = 360;
},
{
layerId = "E8D95BBD-8C7B-4E49-82A7-0CC1B9EBDD01";
shapes = (
{
closed = 1;
nodes = (
(20,0,l),
(108,500,l),
(160,500,l),
(148,411,l),
(181,460,o),
(286,512,o),
(357,512,q),
(347,455,l),
(332,455,ls),
(298,455,o),
(231,438,o),
(175,399,o),
(135,336,o),
(127,290,qs),
(76,0,l)
);
}
);
width = 333;
}
);
leftKerningGroup = m;
rightKerningGroup = r;
unicode = 114;
},
{
glyphname = s;
layers = (
{
layerId = "218428F3-C2E4-493D-AB13-2BDCD21CB23B";
name = "#instance";
shapes = (
{
closed = 1;
nodes = (
(88,-12,o),
(22,49,o),
(31,155,c),
(92,155,l),
(87,87,o),
(130,40,o),
(217,40,cs),
(292,40,o),
(345,80,o),
(351,138,c),
(359,202,o),
(317,220,o),
(237,234,cs),
(144,251,o),
(83,287,o),
(92,370,cs),
(101,452,o),
(177,512,o),
(285,512,cs),
(384,512,o),
(446,461,o),
(440,365,c),
(380,365,l),
(385,423,o),
(348,460,o),
(277,460,cs),
(205,460,o),
(159,425,o),
(154,376,cs),
(149,331,o),
(178,302,o),
(262,286,cs),
(355,269,o),
(424,242,o),
(413,145,cs),
(403,50,o),
(320,-12,o),
(208,-12,cs)
);
}
);
width = 491;
},
{
layerId = "8E574D32-79B1-4C19-B318-CDC7DA43E89A";
shapes = (
{
closed = 1;
nodes = (
(91,-12,o),
(6,72,o),
(14,167,c),
(185,167,l),
(185,131,o),
(218,113,o),
(258,113,cs),
(301,113,o),
(321,134,o),
(321,154,cs),
(321,177,o),
(288,183,o),
(251,195,c),
(159,219,o),
(63,254,o),
(63,337,cs),
(63,442,o),
(164,512,o),
(307,512,cs),
(440,512,o),
(514,448,o),
(514,351,c),
(352,351,l),
(347,372,o),
(322,386,o),
(287,386,cs),
(252,386,o),
(230,372,o),
(230,353,cs),
(230,334,o),
(266,325,o),
(318,313,c),
(423,286,o),
(495,256,o),
(495,174,cs),
(495,59,o),
(385,-12,o),
(238,-12,cs)
);
}
);
width = 550;
},
{
layerId = "45EFDBD1-9215-4FBA-A8FC-D2A4A2D194F0";
shapes = (
{
closed = 1;
nodes = (
(89,-12,o),
(17,56,o),
(26,158,c),
(119,158,l),
(115,100,o),
(155,61,o),
(229,61,cs),
(295,61,o),
(338,95,o),
(342,143,c),
(348,195,o),
(309,209,o),
(241,223,cs),
(148,242,o),
(77,278,o),
(84,361,cs),
(90,449,o),
(173,512,o),
(291,512,cs),
(400,512,o),
(465,457,o),
(461,361,c),
(372,361,l),
(374,408,o),
(341,439,o),
(280,439,cs),
(218,439,o),
(179,410,o),
(176,369,c),
(172,332,o),
(203,309,o),
(278,294,cs),
(374,274,o),
(444,246,o),
(436,153,cs),
(429,53,o),
(339,-12,o),
(217,-12,cs)
);
}
);
width = 508;
},
{
layerId = "E8D95BBD-8C7B-4E49-82A7-0CC1B9EBDD01";
shapes = (
{
closed = 1;
nodes = (
(88,-12,o),
(22,49,o),
(31,155,c),
(92,155,l),
(87,87,o),
(130,40,o),
(217,40,cs),
(292,40,o),
(345,80,o),
(351,138,c),
(359,202,o),
(317,220,o),
(237,234,cs),
(144,251,o),
(83,287,o),
(92,370,cs),
(101,452,o),
(177,512,o),
(285,512,cs),
(384,512,o),
(446,461,o),
(440,365,c),
(380,365,l),
(385,423,o),
(348,460,o),
(277,460,cs),
(205,460,o),
(159,425,o),
(154,376,cs),
(149,331,o),
(178,302,o),
(262,286,cs),
(355,269,o),
(424,242,o),
(413,145,cs),
(403,50,o),
(320,-12,o),
(208,-12,cs)
);
}
);
width = 491;
}
);
leftKerningGroup = s2;
rightKerningGroup = s;
unicode = 115;
},
{
glyphname = t;
layers = (
{
layerId = "8E574D32-79B1-4C19-B318-CDC7DA43E89A";
shapes = (
{
closed = 1;
nodes = (
(259,0,ls),
(221,0,o),
(159,15,o),
(114,48,o),
(90,103,o),
(90,142,qs),
(90,154,o),
(93,181,o),
(95,196,q),
(124,357,l),
(39,357,l),
(65,500,l),
(149,500,l),
(194,647,l),
(348,647,l),
(322,500,l),
(445,500,l),
(419,357,l),
(296,357,l),
(267,194,l),
(266,192,o),
(266,184,o),
(266,180,qs),
(266,162,o),
(287,146,o),
(312,146,qs),
(383,146,l),
(357,0,l)
);
}
);
width = 446;
},
{
layerId = "45EFDBD1-9215-4FBA-A8FC-D2A4A2D194F0";
shapes = (
{
closed = 1;
nodes = (
(203,0,ls),
(171,0,o),
(122,11,o),
(88,38,o),
(70,80,o),
(70,111,qs),
(70,121,o),
(72,145,o),
(74,157,qs),
(121,425,l),
(43,425,l),
(56,500,l),
(135,500,l),
(168,621,l),
(246,621,l),
(224,500,l),
(371,500,l),
(357,425,l),
(210,425,l),
(162,158,ls),
(160,149,o),
(160,135,o),
(160,129,qs),
(160,98,o),
(193,75,o),
(231,75,qs),
(296,75,l),
(282,0,l)
);
}
);
width = 362;
},
{
layerId = "E8D95BBD-8C7B-4E49-82A7-0CC1B9EBDD01";
shapes = (
{
closed = 1;
nodes = (
(180,0,ls),
(151,0,o),
(107,10,o),
(77,34,o),
(62,71,o),
(62,98,qs),
(62,108,o),
(63,130,o),
(65,142,qs),
(120,452,l),
(44,452,l),
(53,500,l),
(129,500,l),
(157,611,l),
(205,611,l),
(185,500,l),
(341,500,l),
(332,452,l),
(176,452,l),
(120,143,ls),
(118,132,o),
(117,116,o),
(117,109,qs),
(117,73,o),
(155,47,o),
(198,47,qs),
(261,47,l),
(252,0,l)
);
}
);
width = 328;
}
);
leftKerningGroup = t2;
rightKerningGroup = t;
unicode = 116;
},
{
glyphname = u;
layers = (
{
layerId = "8E574D32-79B1-4C19-B318-CDC7DA43E89A";
shapes = (
{
closed = 1;
nodes = (
(278,500,l),
(233,243,ls),
(231,232,o),
(229,214,o),
(229,206,qs),
(229,170,o),
(263,132,o),
(302,132,qs),
(345,132,o),
(409,191,o),
(418,243,qs),
(463,500,l),
(636,500,l),
(548,0,l),
(398,0,l),
(393,74,l),
(364,35,o),
(276,-12,o),
(216,-12,qs),
(135,-12,o),
(51,76,o),
(51,158,qs),
(51,174,o),
(55,209,o),
(58,228,qs),
(107,500,l)
);
}
);
width = 637;
},
{
layerId = "45EFDBD1-9215-4FBA-A8FC-D2A4A2D194F0";
shapes = (
{
closed = 1;
nodes = (
(199,500,l),
(149,218,ls),
(147,204,o),
(144,180,o),
(144,170,qs),
(144,117,o),
(197,64,o),
(248,64,qs),
(311,64,o),
(409,150,o),
(426,232,q),
(473,500,l),
(562,500,l),
(474,0,l),
(394,0,l),
(403,88,l),
(371,41,o),
(272,-12,o),
(214,-12,qs),
(138,-12,o),
(52,70,o),
(52,149,qs),
(52,164,o),
(55,193,o),
(58,209,qs),
(110,500,l)
);
}
);
width = 566;
},
{
layerId = "E8D95BBD-8C7B-4E49-82A7-0CC1B9EBDD01";
shapes = (
{
closed = 1;
nodes = (
(167,500,l),
(115,208,l),
(113,193,o),
(110,167,o),
(110,156,qs),
(110,96,o),
(171,37,o),
(226,37,qs),
(297,37,o),
(409,134,o),
(429,228,q),
(477,500,l),
(533,500,l),
(445,0,l),
(393,0,l),
(407,94,l),
(374,43,o),
(270,-12,o),
(213,-12,qs),
(139,-12,o),
(53,68,o),
(53,146,qs),
(53,160,o),
(55,186,o),
(58,202,qs),
(111,500,l)
);
}
);
width = 537;
}
);
leftKerningGroup = u;
rightKerningGroup = a;
unicode = 117;
},
{
glyphname = v;
layers = (
{
layerId = "218428F3-C2E4-493D-AB13-2BDCD21CB23B";
name = "#instance";
shapes = (
{
closed = 1;
nodes = (
(164,0,l),
(57,500,l),
(149,500,l),
(232,84,l),
(461,500,l),
(554,500,l),
(270,0,l)
);
}
);
width = 523;
},
{
layerId = "8E574D32-79B1-4C19-B318-CDC7DA43E89A";
shapes = (
{
closed = 1;
nodes = (
(143,0,l),
(54,500,l),
(235,500,l),
(278,161,l),
(442,500,l),
(623,500,l),
(357,0,l)
);
}
);
width = 589;
},
{
layerId = "45EFDBD1-9215-4FBA-A8FC-D2A4A2D194F0";
shapes = (
{
closed = 1;
nodes = (
(164,0,l),
(57,500,l),
(149,500,l),
(232,84,l),
(461,500,l),
(554,500,l),
(270,0,l)
);
}
);
width = 523;
},
{
layerId = "E8D95BBD-8C7B-4E49-82A7-0CC1B9EBDD01";
shapes = (
{
closed = 1;
nodes = (
(172,0,l),
(58,500,l),
(114,500,l),
(213,53,l),
(468,500,l),
(527,500,l),
(235,0,l)
);
}
);
width = 496;
}
);
unicode = 118;
},
{
glyphname = w;
layers = (
{
layerId = "218428F3-C2E4-493D-AB13-2BDCD21CB23B";
name = "#instance";
shapes = (
{
closed = 1;
nodes = (
(115,0,l),
(57,500,l),
(145,500,l),
(181,114,l),
(365,500,l),
(465,500,l),
(513,114,l),
(685,500,l),
(774,500,l),
(540,0,l),
(449,0,l),
(399,408,l),
(206,0,l)
);
}
);
width = 742;
},
{
layerId = "8E574D32-79B1-4C19-B318-CDC7DA43E89A";
shapes = (
{
closed = 1;
nodes = (
(114,0,l),
(54,500,l),
(224,500,l),
(237,175,l),
(378,500,l),
(568,500,l),
(595,175,l),
(722,500,l),
(891,500,l),
(656,0,l),
(477,0,l),
(444,334,l),
(293,0,l)
);
}
);
width = 857;
},
{
layerId = "45EFDBD1-9215-4FBA-A8FC-D2A4A2D194F0";
shapes = (
{
closed = 1;
nodes = (
(115,0,l),
(57,500,l),
(145,500,l),
(181,114,l),
(365,500,l),
(465,500,l),
(513,114,l),
(685,500,l),
(774,500,l),
(540,0,l),
(449,0,l),
(399,408,l),
(206,0,l)
);
}
);
width = 742;
},
{
layerId = "E8D95BBD-8C7B-4E49-82A7-0CC1B9EBDD01";
shapes = (
{
closed = 1;
nodes = (
(115,0,l),
(58,500,l),
(114,500,l),
(158,89,l),
(360,500,l),
(424,500,l),
(480,89,l),
(670,500,l),
(727,500,l),
(493,0,l),
(438,0,l),
(381,438,l),
(171,0,l)
);
}
);
width = 696;
}
);
leftKerningGroup = w2;
rightKerningGroup = w;
unicode = 119;
},
{
glyphname = x;
layers = (
{
layerId = "8E574D32-79B1-4C19-B318-CDC7DA43E89A";
shapes = (
{
closed = 1;
nodes = (
(-33,0,l),
(202,250,l),
(54,500,l),
(240,500,l),
(327,351,l),
(465,500,l),
(650,500,l),
(416,250,l),
(563,0,l),
(377,0,l),
(291,149,l),
(152,0,l)
);
}
);
width = 617;
},
{
layerId = "45EFDBD1-9215-4FBA-A8FC-D2A4A2D194F0";
shapes = (
{
closed = 1;
nodes = (
(-31,0,l),
(189,252,l),
(60,500,l),
(151,500,l),
(256,296,l),
(430,500,l),
(526,500,l),
(307,248,l),
(434,0,l),
(343,0,l),
(240,204,l),
(63,0,l)
);
}
);
width = 494;
},
{
layerId = "E8D95BBD-8C7B-4E49-82A7-0CC1B9EBDD01";
shapes = (
{
closed = 1;
nodes = (
(-30,0,l),
(184,253,l),
(62,500,l),
(116,500,l),
(228,274,l),
(416,500,l),
(476,500,l),
(263,247,l),
(383,0,l),
(329,0,l),
(219,226,l),
(28,0,l)
);
}
);
width = 445;
}
);
unicode = 120;
},
{
glyphname = y;
layers = (
{
layerId = "8E574D32-79B1-4C19-B318-CDC7DA43E89A";
shapes = (
{
closed = 1;
nodes = (
(26,-222,l),
(52,-76,l),
(87,-76,ls),
(121,-76,o),
(135,-67,o),
(160,-28,cs),
(190,19,l),
(158,19,l),
(52,500,l),
(240,500,l),
(300,185,l),
(473,500,l),
(658,500,l),
(339,-26,ls),
(251,-172,o),
(180,-222,o),
(61,-222,cs)
);
}
);
width = 622;
},
{
layerId = "45EFDBD1-9215-4FBA-A8FC-D2A4A2D194F0";
shapes = (
{
closed = 1;
nodes = (
(-30,-222,l),
(-17,-146,l),
(21,-146,ls),
(72,-146,o),
(95,-127,o),
(126,-78,cs),
(204,47,l),
(175,47,l),
(56,500,l),
(150,500,l),
(248,114,l),
(488,500,l),
(580,500,l),
(215,-80,ls),
(154,-177,o),
(99,-222,o),
(21,-222,cs)
);
}
);
width = 548;
},
{
layerId = "E8D95BBD-8C7B-4E49-82A7-0CC1B9EBDD01";
shapes = (
{
closed = 1;
nodes = (
(-50,-222,l),
(-41,-174,l),
(-5,-174,ls),
(47,-174,o),
(72,-157,o),
(110,-98,cs),
(210,58,l),
(182,58,l),
(58,500,l),
(114,500,l),
(227,86,l),
(494,500,l),
(549,500,l),
(165,-102,ls),
(108,-191,o),
(63,-222,o),
(-5,-222,cs)
);
}
);
width = 518;
}
);
leftKerningGroup = y2;
rightKerningGroup = y;
unicode = 121;
},
{
glyphname = z;
layers = (
{
layerId = "8E574D32-79B1-4C19-B318-CDC7DA43E89A";
shapes = (
{
closed = 1;
nodes = (
(-20,0,l),
(5,137,l),
(285,358,l),
(53,358,l),
(79,500,l),
(508,500,l),
(483,363,l),
(198,142,l),
(443,142,l),
(416,0,l)
);
}
);
width = 500;
},
{
layerId = "45EFDBD1-9215-4FBA-A8FC-D2A4A2D194F0";
shapes = (
{
closed = 1;
nodes = (
(-21,0,l),
(-8,72,l),
(339,427,l),
(69,427,l),
(83,500,l),
(455,500,l),
(441,428,l),
(92,73,l),
(374,73,l),
(360,0,l)
);
}
);
width = 446;
},
{
layerId = "E8D95BBD-8C7B-4E49-82A7-0CC1B9EBDD01";
shapes = (
{
closed = 1;
nodes = (
(-22,0,l),
(-13,46,l),
(361,454,l),
(76,454,l),
(85,500,l),
(434,500,l),
(424,454,l),
(50,46,l),
(346,46,l),
(337,0,l)
);
}
);
width = 424;
}
);
leftKerningGroup = z;
unicode = 122;
},
{
glyphname = braceleft;
layers = (
{
layerId = "8E574D32-79B1-4C19-B318-CDC7DA43E89A";
shapes = (
{
closed = 1;
nodes = (
(272,-194,ls),
(197,-194,o),
(109,-123,o),
(109,-54,qs),
(109,-23,o),
(127,40,o),
(149,99,o),
(167,155,o),
(167,180,qs),
(167,206,o),
(129,239,o),
(84,241,q),
(108,377,l),
(147,379,o),
(192,402,o),
(216,441,o),
(222,497,o),
(222,531,q),
(221,549,l),
(221,606,o),
(247,702,o),
(303,772,o),
(389,811,o),
(450,811,qs),
(522,811,l),
(497,671,l),
(458,671,ls),
(443,671,o),
(419,665,o),
(402,651,o),
(391,630,o),
(388,615,qs),
(382,579,o),
(384,497,o),
(375,445,qs),
(371,420,o),
(350,375,o),
(318,340,o),
(273,316,o),
(244,310,q),
(244,308,l),
(292,298,o),
(330,243,o),
(330,205,qs),
(330,175,o),
(314,120,o),
(295,68,o),
(279,19,o),
(279,-5,qs),
(279,-34,o),
(306,-54,o),
(330,-54,qs),
(369,-54,l),
(344,-194,l)
);
}
);
width = 488;
},
{
layerId = "45EFDBD1-9215-4FBA-A8FC-D2A4A2D194F0";
shapes = (
{
closed = 1;
nodes = (
(243,-154,ls),
(183,-154,o),
(113,-97,o),
(113,-39,qs),
(113,-7,o),
(132,57,o),
(155,119,o),
(174,179,o),
(174,206,qs),
(174,237,o),
(137,283,o),
(88,294,q),
(100,365,l),
(136,371,o),
(184,398,o),
(215,443,o),
(229,508,o),
(229,553,qs),
(229,593,ls),
(229,642,o),
(251,723,o),
(297,780,o),
(366,811,o),
(414,811,qs),
(467,811,l),
(453,736,l),
(416,736,ls),
(397,736,o),
(361,727,o),
(333,700,o),
(315,649,o),
(314,607,qs),
(313,590,o),
(313,557,o),
(312,537,q),
(312,487,o),
(290,414,o),
(252,365,o),
(201,337,o),
(170,330,q),
(170,328,l),
(218,317,o),
(260,259,o),
(260,220,qs),
(260,186,o),
(242,121,o),
(219,59,o),
(201,5,o),
(201,-18,qs),
(201,-54,o),
(242,-79,o),
(272,-79,qs),
(310,-79,l),
(298,-154,l)
);
}
);
width = 414;
},
{
layerId = "E8D95BBD-8C7B-4E49-82A7-0CC1B9EBDD01";
shapes = (
{
closed = 1;
nodes = (
(232,-138,ls),
(178,-138,o),
(115,-87,o),
(115,-33,qs),
(115,0,o),
(134,64,o),
(158,127,o),
(177,188,o),
(177,217,qs),
(177,249,o),
(140,301,o),
(89,315,q),
(97,360,l),
(131,368,o),
(181,396,o),
(215,444,o),
(232,513,o),
(232,562,qs),
(232,610,ls),
(232,657,o),
(253,731,o),
(294,783,o),
(357,811,o),
(399,811,qs),
(445,811,l),
(436,762,l),
(399,762,ls),
(379,762,o),
(338,752,o),
(305,719,o),
(284,657,o),
(284,604,q),
(285,595,o),
(285,581,o),
(287,574,q),
(288,514,o),
(266,430,o),
(226,375,o),
(172,345,o),
(141,338,q),
(141,336,l),
(189,324,o),
(232,266,o),
(232,226,qs),
(232,191,o),
(213,121,o),
(189,56,o),
(170,-1,o),
(170,-23,qs),
(170,-62,o),
(217,-89,o),
(249,-89,qs),
(287,-89,l),
(279,-138,l)
);
}
);
width = 384;
}
);
unicode = 123;
},
{
glyphname = bar;
layers = (
{
layerId = "8E574D32-79B1-4C19-B318-CDC7DA43E89A";
shapes = (
{
closed = 1;
nodes = (
(-5,-100,l),
(140,720,l),
(311,720,l),
(166,-100,l)
);
}
);
width = 284;
},
{
layerId = "45EFDBD1-9215-4FBA-A8FC-D2A4A2D194F0";
shapes = (
{
closed = 1;
nodes = (
(5,-100,l),
(150,720,l),
(238,720,l),
(93,-100,l)
);
}
);
width = 221;
},
{
layerId = "E8D95BBD-8C7B-4E49-82A7-0CC1B9EBDD01";
shapes = (
{
closed = 1;
nodes = (
(9,-100,l),
(154,720,l),
(209,720,l),
(64,-100,l)
);
}
);
width = 196;
}
);
unicode = 124;
},
{
glyphname = braceright;
layers = (
{
layerId = "8E574D32-79B1-4C19-B318-CDC7DA43E89A";
shapes = (
{
closed = 1;
nodes = (
(-13,-194,l),
(12,-54,l),
(51,-54,ls),
(66,-54,o),
(90,-48,o),
(107,-34,o),
(118,-13,o),
(121,2,qs),
(127,38,o),
(125,120,o),
(134,172,qs),
(139,198,o),
(159,242,o),
(191,277,o),
(236,301,o),
(265,307,q),
(265,309,l),
(217,319,o),
(179,374,o),
(179,412,qs),
(179,442,o),
(195,497,o),
(214,549,o),
(230,598,o),
(230,622,qs),
(230,651,o),
(203,671,o),
(179,671,qs),
(140,671,l),
(165,811,l),
(237,811,ls),
(312,811,o),
(400,740,o),
(400,671,qs),
(400,640,o),
(382,577,o),
(360,518,o),
(342,462,o),
(342,437,qs),
(342,411,o),
(380,378,o),
(425,376,q),
(401,240,l),
(362,238,o),
(317,215,o),
(293,176,o),
(287,121,o),
(287,86,q),
(288,68,l),
(288,11,o),
(262,-85,o),
(207,-155,o),
(120,-194,o),
(59,-194,qs)
);
}
);
width = 487;
},
{
layerId = "45EFDBD1-9215-4FBA-A8FC-D2A4A2D194F0";
shapes = (
{
closed = 1;
nodes = (
(-25,-154,l),
(-12,-79,l),
(27,-79,ls),
(45,-79,o),
(81,-70,o),
(110,-42,o),
(128,9,o),
(129,51,qs),
(129,67,o),
(129,100,o),
(130,121,qs),
(131,171,o),
(153,243,o),
(190,293,o),
(242,321,o),
(272,328,q),
(272,330,l),
(224,340,o),
(183,397,o),
(183,438,qs),
(183,472,o),
(201,537,o),
(223,598,o),
(241,652,o),
(241,676,qs),
(241,711,o),
(200,736,o),
(170,736,qs),
(132,736,l),
(145,811,l),
(198,811,ls),
(259,811,o),
(329,755,o),
(329,697,qs),
(329,664,o),
(310,600,o),
(287,538,o),
(268,479,o),
(268,451,qs),
(268,421,o),
(306,374,o),
(355,364,q),
(342,293,l),
(307,287,o),
(258,260,o),
(227,215,o),
(213,149,o),
(213,104,q),
(214,65,l),
(214,15,o),
(191,-66,o),
(146,-123,o),
(76,-154,o),
(29,-154,qs)
);
}
);
width = 413;
},
{
layerId = "E8D95BBD-8C7B-4E49-82A7-0CC1B9EBDD01";
shapes = (
{
closed = 1;
nodes = (
(-30,-138,l),
(-21,-89,l),
(17,-89,ls),
(37,-89,o),
(78,-79,o),
(111,-45,o),
(132,18,o),
(132,70,q),
(130,78,o),
(130,92,o),
(129,100,q),
(128,160,o),
(150,244,o),
(190,299,o),
(244,329,o),
(275,336,q),
(275,338,l),
(227,349,o),
(184,406,o),
(184,448,qs),
(184,484,o),
(203,553,o),
(226,617,o),
(245,674,o),
(245,697,qs),
(245,735,o),
(199,762,o),
(167,762,qs),
(129,762,l),
(137,811,l),
(183,811,ls),
(238,811,o),
(300,761,o),
(300,707,qs),
(300,674,o),
(281,609,o),
(258,546,o),
(239,486,o),
(239,457,qs),
(239,425,o),
(276,373,o),
(327,359,q),
(319,314,l),
(285,306,o),
(235,278,o),
(201,230,o),
(184,160,o),
(184,111,qs),
(184,64,ls),
(184,17,o),
(163,-58,o),
(122,-110,o),
(59,-138,o),
(17,-138,qs)
);
}
);
width = 384;
}
);
unicode = 125;
},
{
glyphname = asciitilde;
layers = (
{
layerId = "8E574D32-79B1-4C19-B318-CDC7DA43E89A";
shapes = (
{
closed = 1;
nodes = (
(364,208,o),
(316,229,o),
(275,253,o),
(238,274,o),
(216,274,qs),
(190,274,o),
(152,241,o),
(141,208,q),
(15,208,l),
(55,324,o),
(178,425,o),
(253,425,qs),
(286,425,o),
(335,404,o),
(375,380,o),
(412,359,o),
(434,359,qs),
(460,359,o),
(497,390,o),
(508,425,q),
(635,425,l),
(597,310,o),
(471,208,o),
(397,208,qs)
);
}
);
width = 625;
},
{
layerId = "45EFDBD1-9215-4FBA-A8FC-D2A4A2D194F0";
shapes = (
{
closed = 1;
nodes = (
(305,247,o),
(265,268,o),
(231,292,o),
(197,313,o),
(175,313,qs),
(149,313,o),
(108,277,o),
(97,248,q),
(31,248,l),
(58,323,o),
(142,393,o),
(196,393,qs),
(225,393,o),
(265,372,o),
(299,348,o),
(332,327,o),
(354,327,qs),
(380,327,o),
(422,361,o),
(432,392,q),
(499,392,l),
(473,319,o),
(387,247,o),
(333,247,qs)
);
}
);
width = 503;
},
{
layerId = "E8D95BBD-8C7B-4E49-82A7-0CC1B9EBDD01";
shapes = (
{
closed = 1;
nodes = (
(281,263,o),
(245,284,o),
(213,308,o),
(181,329,o),
(159,329,qs),
(133,329,o),
(90,292,o),
(79,264,q),
(37,264,l),
(59,322,o),
(127,380,o),
(173,380,qs),
(200,380,o),
(237,359,o),
(268,335,o),
(300,314,o),
(322,314,qs),
(348,314,o),
(392,350,o),
(402,379,q),
(444,379,l),
(424,322,o),
(354,263,o),
(308,263,qs)
);
}
);
width = 454;
}
);
unicode = 126;
},
{
glyphname = exclamdown;
layers = (
{
layerId = "8E574D32-79B1-4C19-B318-CDC7DA43E89A";
shapes = (
{
closed = 1;
nodes = (
(274,316,l),
(213,-136,l),
(30,-136,l),
(129,316,l)
);
},
{
closed = 1;
nodes = (
(265,572,o),
(321,518,o),
(321,480,qs),
(321,440,o),
(265,386,o),
(219,386,qs),
(174,386,o),
(118,440,o),
(118,480,qs),
(118,518,o),
(174,572,o),
(219,572,qs)
);
}
);
width = 334;
},
{
layerId = "45EFDBD1-9215-4FBA-A8FC-D2A4A2D194F0";
shapes = (
{
closed = 1;
nodes = (
(200,361,l),
(122,-142,l),
(26,-142,l),
(126,361,l)
);
},
{
closed = 1;
nodes = (
(206,563,o),
(240,529,o),
(240,504,qs),
(240,479,o),
(206,445,o),
(180,445,qs),
(154,445,o),
(120,479,o),
(120,504,qs),
(120,529,o),
(154,563,o),
(180,563,qs)
);
}
);
width = 240;
},
{
layerId = "E8D95BBD-8C7B-4E49-82A7-0CC1B9EBDD01";
shapes = (
{
closed = 1;
nodes = (
(171,379,l),
(85,-145,l),
(25,-145,l),
(125,379,l)
);
},
{
closed = 1;
nodes = (
(182,560,o),
(207,533,o),
(207,513,qs),
(207,494,o),
(182,469,o),
(164,469,qs),
(146,469,o),
(121,494,o),
(121,513,qs),
(121,533,o),
(146,560,o),
(164,560,qs)
);
}
);
width = 203;
}
);
unicode = 161;
},
{
glyphname = cent;
layers = (
{
layerId = "8E574D32-79B1-4C19-B318-CDC7DA43E89A";
shapes = (
{
closed = 1;
nodes = (
(172,-85,l),
(187,-2,l),
(151,8,o),
(96,45,o),
(58,98,o),
(38,164,o),
(38,203,qs),
(38,256,o),
(72,351,o),
(134,429,o),
(221,485,o),
(274,498,q),
(292,597,l),
(446,597,l),
(429,500,l),
(501,483,o),
(582,379,o),
(581,298,q),
(399,298,l),
(399,313,o),
(389,336,o),
(371,353,o),
(346,362,o),
(331,362,qs),
(307,362,o),
(264,339,o),
(232,300,o),
(214,248,o),
(214,219,qs),
(214,200,o),
(224,169,o),
(243,146,o),
(272,134,o),
(290,134,qs),
(323,134,o),
(371,169,o),
(382,198,q),
(564,198,l),
(536,119,o),
(419,14,o),
(341,-3,q),
(326,-85,l)
);
}
);
width = 614;
},
{
layerId = "45EFDBD1-9215-4FBA-A8FC-D2A4A2D194F0";
shapes = (
{
closed = 1;
nodes = (
(185,-101,l),
(201,-8,l),
(163,-1,o),
(102,34,o),
(59,87,o),
(36,157,o),
(36,199,qs),
(36,260,o),
(75,365,o),
(143,445,o),
(237,497,o),
(291,504,q),
(308,599,l),
(393,599,l),
(376,504,l),
(450,494,o),
(532,403,o),
(533,332,q),
(443,332,l),
(443,357,o),
(423,395,o),
(390,420,o),
(347,433,o),
(322,433,qs),
(282,433,o),
(211,399,o),
(158,340,o),
(128,257,o),
(128,208,qs),
(128,174,o),
(148,120,o),
(182,82,o),
(230,63,o),
(257,63,qs),
(307,63,o),
(394,113,o),
(413,164,q),
(503,164,l),
(478,95,o),
(363,2,o),
(286,-9,q),
(270,-101,l)
);
}
);
width = 557;
},
{
layerId = "E8D95BBD-8C7B-4E49-82A7-0CC1B9EBDD01";
shapes = (
{
closed = 1;
nodes = (
(190,-107,l),
(206,-10,l),
(168,-5,o),
(105,29,o),
(60,83,o),
(35,154,o),
(35,197,qs),
(35,262,o),
(76,371,o),
(147,452,o),
(243,502,o),
(298,507,q),
(314,600,l),
(372,600,l),
(355,506,l),
(430,498,o),
(512,413,o),
(514,346,q),
(460,346,l),
(460,375,o),
(437,418,o),
(398,447,o),
(347,461,o),
(319,461,qs),
(272,461,o),
(190,423,o),
(128,356,o),
(93,261,o),
(93,204,qs),
(93,164,o),
(117,100,o),
(158,57,o),
(213,34,o),
(244,34,qs),
(301,34,o),
(403,90,o),
(426,150,q),
(479,150,l),
(455,85,o),
(341,-3,o),
(264,-11,q),
(247,-107,l)
);
}
);
width = 534;
}
);
unicode = 162;
},
{
glyphname = sterling;
layers = (
{
layerId = "8E574D32-79B1-4C19-B318-CDC7DA43E89A";
shapes = (
{
closed = 1;
nodes = (
(13,0,l),
(29,91,l),
(45,104,o),
(73,131,o),
(95,161,o),
(113,192,o),
(120,208,qs),
(128,227,o),
(138,267,o),
(140,287,q),
(31,287,l),
(51,402,l),
(130,402,l),
(128,413,o),
(127,435,o),
(127,447,qs),
(127,505,o),
(168,602,o),
(241,673,o),
(342,712,o),
(403,712,qs),
(457,712,o),
(539,684,o),
(594,634,o),
(622,566,o),
(622,525,qs),
(622,515,o),
(621,496,o),
(619,485,q),
(463,485,l),
(464,490,o),
(464,498,o),
(464,503,qs),
(464,533,o),
(422,572,o),
(387,572,qs),
(360,572,o),
(323,554,o),
(299,524,o),
(288,486,o),
(288,466,qs),
(288,450,o),
(292,419,o),
(295,402,q),
(478,402,l),
(458,287,l),
(302,287,l),
(297,261,o),
(276,211,o),
(261,189,qs),
(250,173,o),
(223,145,o),
(207,134,q),
(554,134,l),
(531,0,l)
);
}
);
width = 625;
},
{
layerId = "45EFDBD1-9215-4FBA-A8FC-D2A4A2D194F0";
shapes = (
{
closed = 1;
nodes = (
(32,0,l),
(42,51,l),
(66,74,o),
(104,118,o),
(132,166,o),
(149,219,o),
(151,250,q),
(154,265,o),
(155,294,o),
(154,309,q),
(41,309,l),
(52,371,l),
(146,371,l),
(142,391,o),
(136,432,o),
(136,456,qs),
(136,513,o),
(173,607,o),
(239,674,o),
(331,712,o),
(386,712,qs),
(433,712,o),
(505,685,o),
(553,638,o),
(577,575,o),
(577,538,qs),
(577,530,o),
(576,515,o),
(575,506,q),
(494,506,l),
(495,512,o),
(495,524,o),
(495,530,qs),
(495,577,o),
(437,638,o),
(380,638,qs),
(341,638,o),
(282,612,o),
(240,565,o),
(218,500,o),
(218,462,qs),
(218,439,o),
(225,393,o),
(229,371,q),
(422,371,l),
(412,309,l),
(237,309,l),
(237,292,o),
(233,259,o),
(229,244,q),
(226,192,o),
(174,108,o),
(133,73,q),
(498,73,l),
(485,0,l)
);
}
);
width = 581;
},
{
layerId = "E8D95BBD-8C7B-4E49-82A7-0CC1B9EBDD01";
shapes = (
{
closed = 1;
nodes = (
(40,0,l),
(47,35,l),
(74,62,o),
(117,113,o),
(147,168,o),
(164,230,o),
(164,267,qs),
(164,280,o),
(162,305,o),
(160,318,q),
(45,318,l),
(52,358,l),
(152,358,l),
(147,382,o),
(140,431,o),
(140,459,qs),
(140,516,o),
(175,609,o),
(238,675,o),
(326,712,o),
(379,712,qs),
(424,712,o),
(492,686,o),
(537,640,o),
(559,579,o),
(559,543,qs),
(559,536,o),
(558,522,o),
(557,514,q),
(506,514,l),
(507,521,o),
(508,534,o),
(508,541,qs),
(508,595,o),
(443,665,o),
(377,665,qs),
(334,665,o),
(265,635,o),
(216,581,o),
(190,505,o),
(190,460,qs),
(190,434,o),
(198,383,o),
(203,358,q),
(400,358,l),
(394,318,l),
(211,318,l),
(213,304,o),
(216,278,o),
(216,266,qs),
(216,199,o),
(155,93,o),
(104,48,q),
(475,48,l),
(467,0,l)
);
}
);
width = 564;
}
);
unicode = 163;
},
{
glyphname = currency;
layers = (
{
layerId = "8E574D32-79B1-4C19-B318-CDC7DA43E89A";
shapes = (
{
closed = 1;
nodes = (
(233,116,o),
(186,126,o),
(166,136,q),
(89,70,l),
(35,137,l),
(101,194,l),
(91,211,o),
(82,248,o),
(82,269,qs),
(82,311,o),
(111,379,o),
(137,406,q),
(92,461,l),
(170,528,l),
(225,461,l),
(248,469,o),
(298,478,o),
(325,478,qs),
(351,478,o),
(396,469,o),
(416,461,q),
(495,528,l),
(549,461,l),
(483,405,l),
(494,388,o),
(505,349,o),
(505,327,qs),
(505,285,o),
(475,216,o),
(449,189,q),
(492,137,l),
(414,70,l),
(362,134,l),
(339,125,o),
(288,116,o),
(260,116,qs)
);
},
{
closed = 1;
nodes = (
(297,216,o),
(330,232,o),
(354,259,o),
(368,296,o),
(368,318,qs),
(368,350,o),
(332,379,o),
(307,379,qs),
(288,379,o),
(255,363,o),
(231,335,o),
(217,298,o),
(217,276,qs),
(217,245,o),
(252,216,o),
(278,216,qs)
);
}
);
width = 566;
},
{
layerId = "45EFDBD1-9215-4FBA-A8FC-D2A4A2D194F0";
shapes = (
{
closed = 1;
nodes = (
(209,121,o),
(161,139,o),
(143,155,q),
(69,91,l),
(37,131,l),
(110,193,l),
(100,210,o),
(90,250,o),
(90,273,qs),
(90,315,o),
(118,383,o),
(143,410,q),
(96,466,l),
(141,505,l),
(191,445,l),
(216,459,o),
(270,473,o),
(300,473,qs),
(328,473,o),
(375,456,o),
(394,441,q),
(468,505,l),
(501,466,l),
(429,405,l),
(439,388,o),
(449,349,o),
(449,327,qs),
(449,285,o),
(419,215,o),
(394,188,q),
(441,131,l),
(395,91,l),
(346,152,l),
(322,136,o),
(267,121,o),
(237,121,qs)
);
},
{
closed = 1;
nodes = (
(273,187,o),
(316,208,o),
(348,244,o),
(366,293,o),
(366,322,qs),
(366,365,o),
(318,408,o),
(288,408,qs),
(263,408,o),
(221,387,o),
(190,351,o),
(172,302,o),
(172,272,qs),
(172,229,o),
(218,187,o),
(249,187,qs)
);
}
);
width = 520;
},
{
layerId = "E8D95BBD-8C7B-4E49-82A7-0CC1B9EBDD01";
shapes = (
{
closed = 1;
nodes = (
(199,123,o),
(151,144,o),
(134,162,q),
(61,100,l),
(38,128,l),
(113,192,l),
(103,209,o),
(93,251,o),
(93,274,qs),
(93,316,o),
(121,385,o),
(146,411,q),
(98,468,l),
(130,496,l),
(178,438,l),
(203,455,o),
(259,471,o),
(290,471,qs),
(319,471,o),
(367,451,o),
(385,433,q),
(457,496,l),
(482,468,l),
(407,405,l),
(417,388,o),
(426,349,o),
(426,327,qs),
(426,285,o),
(397,215,o),
(372,187,q),
(421,128,l),
(388,100,l),
(340,159,l),
(315,141,o),
(259,123,o),
(228,123,qs)
);
},
{
closed = 1;
nodes = (
(264,176,o),
(311,198,o),
(345,238,o),
(365,292,o),
(365,323,qs),
(365,371,o),
(313,419,o),
(280,419,qs),
(253,419,o),
(207,397,o),
(173,358,o),
(154,304,o),
(154,271,qs),
(154,223,o),
(204,176,o),
(237,176,qs)
);
}
);
width = 501;
}
);
unicode = 164;
},
{
glyphname = yen;
layers = (
{
layerId = "8E574D32-79B1-4C19-B318-CDC7DA43E89A";
shapes = (
{
closed = 1;
nodes = (
(213,0,l),
(237,134,l),
(37,134,l),
(57,248,l),
(249,248,l),
(249,248,l),
(228,309,l),
(68,310,l),
(88,425,l),
(189,425,l),
(94,700,l),
(289,700,l),
(369,390,l),
(558,700,l),
(750,700,l),
(560,425,l),
(659,425,l),
(639,310,l),
(479,309,l),
(437,248,l),
(437,248,l),
(628,248,l),
(608,134,l),
(408,134,l),
(384,0,l)
);
}
);
width = 684;
},
{
layerId = "45EFDBD1-9215-4FBA-A8FC-D2A4A2D194F0";
shapes = (
{
closed = 1;
nodes = (
(206,0,l),
(236,165,l),
(36,165,l),
(46,229,l),
(245,229,l),
(252,269,l),
(235,318,l),
(62,319,l),
(74,381,l),
(213,381,l),
(101,700,l),
(200,700,l),
(312,346,l),
(547,700,l),
(647,700,l),
(424,381,l),
(562,381,l),
(550,319,l),
(378,318,l),
(345,269,l),
(338,229,l),
(534,229,l),
(524,165,l),
(324,165,l),
(294,0,l)
);
}
);
width = 588;
},
{
layerId = "E8D95BBD-8C7B-4E49-82A7-0CC1B9EBDD01";
shapes = (
{
closed = 1;
nodes = (
(203,0,l),
(235,178,l),
(35,178,l),
(42,222,l),
(243,222,l),
(253,278,l),
(238,321,l),
(60,322,l),
(68,364,l),
(222,364,l),
(104,700,l),
(165,700,l),
(289,328,l),
(542,700,l),
(606,700,l),
(369,364,l),
(523,364,l),
(515,322,l),
(338,321,l),
(308,278,l),
(298,222,l),
(497,222,l),
(490,178,l),
(290,178,l),
(258,0,l)
);
}
);
width = 549;
}
);
unicode = 165;
},
{
glyphname = brokenbar;
layers = (
{
layerId = "8E574D32-79B1-4C19-B318-CDC7DA43E89A";
shapes = (
{
closed = 1;
nodes = (
(83,400,l),
(140,720,l),
(311,720,l),
(254,400,l)
);
},
{
closed = 1;
nodes = (
(-5,-100,l),
(52,220,l),
(223,220,l),
(166,-100,l)
);
}
);
width = 284;
},
{
layerId = "45EFDBD1-9215-4FBA-A8FC-D2A4A2D194F0";
shapes = (
{
closed = 1;
nodes = (
(92,388,l),
(150,720,l),
(238,720,l),
(180,388,l)
);
},
{
closed = 1;
nodes = (
(5,-100,l),
(63,232,l),
(152,232,l),
(93,-100,l)
);
}
);
width = 221;
},
{
layerId = "E8D95BBD-8C7B-4E49-82A7-0CC1B9EBDD01";
shapes = (
{
closed = 1;
nodes = (
(95,383,l),
(154,720,l),
(209,720,l),
(150,383,l)
);
},
{
closed = 1;
nodes = (
(9,-100,l),
(68,237,l),
(123,237,l),
(64,-100,l)
);
}
);
width = 196;
}
);
unicode = 166;
},
{
glyphname = section;
layers = (
{
layerId = "8E574D32-79B1-4C19-B318-CDC7DA43E89A";
shapes = (
{
closed = 1;
nodes = (
(177,-232,o),
(86,-204,o),
(25,-150,o),
(-4,-72,o),
(2,-22,q),
(187,-22,l),
(186,-37,o),
(193,-61,o),
(210,-79,o),
(233,-89,o),
(248,-89,qs),
(266,-89,o),
(295,-80,o),
(316,-63,o),
(327,-39,o),
(327,-25,qs),
(327,-9,o),
(308,13,o),
(275,29,o),
(231,43,o),
(206,52,qs),
(172,64,o),
(111,98,o),
(64,144,o),
(36,203,o),
(36,240,qs),
(36,288,o),
(81,372,o),
(120,407,q),
(113,420,o),
(106,450,o),
(106,467,qs),
(106,520,o),
(147,610,o),
(221,675,o),
(324,712,o),
(386,712,qs),
(442,712,o),
(532,684,o),
(593,630,o),
(622,552,o),
(616,502,q),
(431,502,l),
(433,517,o),
(425,541,o),
(408,559,o),
(385,569,o),
(370,569,qs),
(353,569,o),
(325,560,o),
(304,544,o),
(292,520,o),
(292,505,qs),
(292,489,o),
(311,467,o),
(344,451,o),
(388,437,o),
(412,428,qs),
(447,416,o),
(509,381,o),
(555,335,o),
(582,276,o),
(582,240,qs),
(582,192,o),
(538,108,o),
(499,73,q),
(506,60,o),
(512,28,o),
(512,13,qs),
(512,-40,o),
(471,-130,o),
(397,-195,o),
(294,-232,o),
(232,-232,qs)
);
},
{
closed = 1;
nodes = (
(383,173,o),
(394,198,o),
(394,211,qs),
(394,229,o),
(368,260,o),
(330,285,o),
(289,302,o),
(275,305,q),
(267,308,o),
(251,311,o),
(245,317,q),
(235,307,o),
(224,280,o),
(224,269,qs),
(224,256,o),
(239,232,o),
(264,212,o),
(295,194,o),
(311,187,qs),
(329,179,o),
(362,167,o),
(374,163,q)
);
}
);
width = 624;
},
{
layerId = "45EFDBD1-9215-4FBA-A8FC-D2A4A2D194F0";
shapes = (
{
closed = 1;
nodes = (
(163,-232,o),
(84,-203,o),
(31,-151,o),
(9,-80,o),
(16,-37,q),
(108,-37,l),
(105,-59,o),
(114,-102,o),
(141,-136,o),
(187,-157,o),
(221,-157,qs),
(253,-157,o),
(307,-137,o),
(347,-102,o),
(369,-55,o),
(369,-26,qs),
(369,0,o),
(342,33,o),
(295,58,o),
(230,79,o),
(192,93,qs),
(161,104,o),
(108,134,o),
(69,175,o),
(47,227,o),
(47,261,qs),
(47,311,o),
(90,393,o),
(131,427,q),
(124,440,o),
(117,469,o),
(117,486,qs),
(117,534,o),
(153,617,o),
(220,677,o),
(312,712,o),
(367,712,qs),
(417,712,o),
(496,683,o),
(549,631,o),
(572,560,o),
(565,517,q),
(473,517,l),
(477,539,o),
(468,582,o),
(439,616,o),
(393,637,o),
(359,637,qs),
(328,637,o),
(274,617,o),
(234,583,o),
(211,535,o),
(211,506,qs),
(211,480,o),
(239,446,o),
(287,421,o),
(352,401,o),
(388,387,q),
(419,377,o),
(472,347,o),
(511,306,o),
(534,253,o),
(534,219,qs),
(534,169,o),
(491,86,o),
(450,53,q),
(460,35,o),
(465,-7,o),
(461,-32,q),
(456,-76,o),
(417,-149,o),
(353,-202,o),
(267,-232,o),
(214,-232,qs)
);
},
{
closed = 1;
nodes = (
(415,124,o),
(440,175,o),
(440,205,qs),
(440,238,o),
(405,281,o),
(350,309,o),
(283,330,o),
(252,341,qs),
(231,348,o),
(200,364,o),
(186,373,q),
(169,358,o),
(141,308,o),
(141,275,qs),
(141,245,o),
(170,205,o),
(220,177,o),
(284,155,o),
(319,143,q),
(345,133,o),
(377,118,o),
(395,107,q)
);
}
);
width = 583;
},
{
layerId = "E8D95BBD-8C7B-4E49-82A7-0CC1B9EBDD01";
shapes = (
{
closed = 1;
nodes = (
(158,-232,o),
(83,-203,o),
(34,-152,o),
(14,-83,o),
(21,-43,q),
(76,-43,l),
(72,-68,o),
(82,-118,o),
(113,-159,o),
(168,-184,o),
(210,-184,qs),
(248,-184,o),
(312,-160,o),
(359,-118,o),
(386,-61,o),
(386,-27,qs),
(386,3,o),
(356,41,o),
(303,70,o),
(230,94,o),
(187,109,qs),
(157,120,o),
(107,149,o),
(71,187,o),
(51,237,o),
(51,269,qs),
(51,320,o),
(93,402,o),
(135,435,q),
(128,448,o),
(121,477,o),
(121,493,qs),
(121,540,o),
(156,620,o),
(219,678,o),
(307,712,o),
(359,712,qs),
(407,712,o),
(482,683,o),
(532,632,o),
(552,563,o),
(545,523,q),
(490,523,l),
(495,548,o),
(485,598,o),
(452,639,o),
(396,664,o),
(355,664,qs),
(318,664,o),
(253,640,o),
(206,598,o),
(179,541,o),
(179,507,qs),
(179,476,o),
(210,437,o),
(264,409,o),
(337,386,o),
(379,371,qs),
(408,361,o),
(457,333,o),
(494,294,o),
(515,244,o),
(515,211,qs),
(515,160,o),
(472,77,o),
(430,45,q),
(441,25,o),
(446,-21,o),
(441,-50,qs),
(433,-90,o),
(395,-157,o),
(335,-205,o),
(256,-232,o),
(207,-232,qs)
);
},
{
closed = 1;
nodes = (
(428,105,o),
(458,166,o),
(458,203,qs),
(458,242,o),
(420,289,o),
(358,319,o),
(281,341,o),
(243,355,qs),
(217,364,o),
(179,385,o),
(163,396,q),
(142,379,o),
(108,319,o),
(108,277,qs),
(108,240,o),
(143,194,o),
(202,163,o),
(279,140,o),
(322,125,qs),
(351,114,o),
(383,98,o),
(403,84,q)
);
}
);
width = 567;
}
);
unicode = 167;
},
{
glyphname = dieresis;
layers = (
{
layerId = "8E574D32-79B1-4C19-B318-CDC7DA43E89A";
shapes = (
{
closed = 1;
nodes = (
(315,558,o),
(273,600,o),
(273,631,qs),
(273,663,o),
(315,705,o),
(346,705,qs),
(378,705,o),
(420,663,o),
(420,631,qs),
(420,600,o),
(378,558,o),
(346,558,qs)
);
},
{
closed = 1;
nodes = (
(115,558,o),
(73,600,o),
(73,631,qs),
(73,663,o),
(115,705,o),
(146,705,qs),
(178,705,o),
(220,663,o),
(220,631,qs),
(220,600,o),
(178,558,o),
(146,558,qs)
);
}
);
width = 358;
},
{
layerId = "45EFDBD1-9215-4FBA-A8FC-D2A4A2D194F0";
shapes = (
{
closed = 1;
nodes = (
(281,570,o),
(252,600,o),
(252,621,qs),
(252,642,o),
(281,672,o),
(302,672,qs),
(324,672,o),
(353,642,o),
(353,621,qs),
(353,600,o),
(324,570,o),
(302,570,qs)
);
},
{
closed = 1;
nodes = (
(119,570,o),
(89,600,o),
(89,621,qs),
(89,642,o),
(119,672,o),
(140,672,qs),
(162,672,o),
(191,642,o),
(191,621,qs),
(191,600,o),
(162,570,o),
(140,570,qs)
);
}
);
width = 311;
},
{
layerId = "E8D95BBD-8C7B-4E49-82A7-0CC1B9EBDD01";
shapes = (
{
closed = 1;
nodes = (
(268,575,o),
(243,600,o),
(243,617,qs),
(243,634,o),
(268,659,o),
(285,659,qs),
(302,659,o),
(326,634,o),
(326,617,qs),
(326,600,o),
(302,575,o),
(285,575,qs)
);
},
{
closed = 1;
nodes = (
(121,575,o),
(96,600,o),
(96,617,qs),
(96,634,o),
(121,659,o),
(138,659,qs),
(155,659,o),
(180,634,o),
(180,617,qs),
(180,600,o),
(155,575,o),
(138,575,qs)
);
}
);
width = 292;
}
);
unicode = 168;
},
{
glyphname = copyright;
layers = (
{
layerId = "8E574D32-79B1-4C19-B318-CDC7DA43E89A";
shapes = (
{
closed = 1;
nodes = (
(263,-7,o),
(154,37,o),
(116,77,qs),
(77,116,o),
(36,224,o),
(36,288,qs),
(36,378,o),
(101,532,o),
(158,589,qs),
(215,646,o),
(368,712,o),
(459,712,qs),
(528,712,o),
(637,668,o),
(676,629,qs),
(714,590,o),
(755,482,o),
(755,418,qs),
(755,328,o),
(690,174,o),
(633,117,qs),
(576,59,o),
(423,-7,o),
(332,-7,qs)
);
},
{
closed = 1;
nodes = (
(421,48,o),
(551,104,o),
(597,154,qs),
(643,204,o),
(694,337,o),
(694,415,qs),
(694,469,o),
(661,558,o),
(630,590,qs),
(599,622,o),
(508,657,o),
(450,657,qs),
(371,657,o),
(242,602,o),
(195,553,qs),
(148,504,o),
(98,371,o),
(98,293,qs),
(98,239,o),
(130,149,o),
(162,117,qs),
(194,84,o),
(284,48,o),
(342,48,qs)
);
},
{
closed = 1;
nodes = (
(315,128,o),
(246,155,o),
(222,180,q),
(197,204,o),
(170,271,o),
(170,313,qs),
(170,370,o),
(211,467,o),
(247,503,qs),
(282,538,o),
(379,578,o),
(436,578,qs),
(517,578,o),
(614,492,o),
(616,414,q),
(469,414,l),
(466,436,o),
(438,463,o),
(411,463,qs),
(385,463,o),
(347,437,o),
(334,417,qs),
(321,396,o),
(309,345,o),
(309,319,qs),
(309,281,o),
(343,243,o),
(372,243,qs),
(401,243,o),
(437,271,o),
(448,292,q),
(594,292,l),
(580,255,o),
(532,194,o),
(501,173,qs),
(470,151,o),
(396,128,o),
(357,128,qs)
);
}
);
width = 767;
},
{
layerId = "45EFDBD1-9215-4FBA-A8FC-D2A4A2D194F0";
shapes = (
{
closed = 1;
nodes = (
(272,-5,o),
(163,39,o),
(125,78,qs),
(87,117,o),
(47,224,o),
(47,287,qs),
(47,376,o),
(111,526,o),
(167,583,qs),
(224,640,o),
(374,705,o),
(463,705,qs),
(531,705,o),
(638,662,o),
(677,623,qs),
(715,584,o),
(754,479,o),
(754,416,qs),
(754,327,o),
(691,175,o),
(635,118,qs),
(579,60,o),
(428,-5,o),
(339,-5,qs)
);
},
{
closed = 1;
nodes = (
(427,32,o),
(562,91,o),
(611,143,qs),
(660,193,o),
(713,331,o),
(713,411,qs),
(713,468,o),
(679,562,o),
(646,596,qs),
(614,630,o),
(519,668,o),
(458,668,qs),
(377,668,o),
(241,610,o),
(192,559,qs),
(143,508,o),
(89,370,o),
(89,289,qs),
(89,233,o),
(123,139,o),
(156,105,q),
(188,70,o),
(284,32,o),
(346,32,qs)
);
},
{
closed = 1;
nodes = (
(321,119,o),
(255,144,o),
(231,167,qs),
(206,190,o),
(179,257,o),
(179,301,qs),
(179,358,o),
(219,460,o),
(254,499,qs),
(289,537,o),
(385,583,o),
(442,583,qs),
(517,583,o),
(614,503,o),
(620,430,q),
(540,430,l),
(535,475,o),
(474,519,o),
(430,519,qs),
(391,519,o),
(326,483,o),
(304,453,q),
(281,424,o),
(257,349,o),
(257,307,qs),
(257,245,o),
(321,182,o),
(371,182,qs),
(417,182,o),
(491,228,o),
(512,271,q),
(592,271,l),
(576,236,o),
(528,180,o),
(497,160,qs),
(467,140,o),
(397,119,o),
(360,119,qs)
);
}
);
width = 778;
},
{
layerId = "E8D95BBD-8C7B-4E49-82A7-0CC1B9EBDD01";
shapes = (
{
closed = 1;
nodes = (
(275,-4,o),
(167,40,o),
(129,79,qs),
(91,117,o),
(51,224,o),
(51,287,qs),
(51,375,o),
(115,524,o),
(171,581,qs),
(227,638,o),
(377,702,o),
(465,702,qs),
(532,702,o),
(639,659,o),
(677,621,qs),
(715,582,o),
(754,478,o),
(754,415,qs),
(754,327,o),
(692,175,o),
(636,118,qs),
(580,61,o),
(430,-4,o),
(342,-4,qs)
);
},
{
closed = 1;
nodes = (
(429,26,o),
(567,86,o),
(617,138,qs),
(667,189,o),
(721,329,o),
(721,410,qs),
(721,467,o),
(686,563,o),
(653,598,qs),
(620,633,o),
(524,673,o),
(461,673,qs),
(379,673,o),
(241,613,o),
(191,561,qs),
(141,509,o),
(85,369,o),
(85,288,qs),
(85,231,o),
(120,135,o),
(153,100,qs),
(186,65,o),
(284,26,o),
(347,26,qs)
);
},
{
closed = 1;
nodes = (
(323,115,o),
(258,139,o),
(234,162,qs),
(210,185,o),
(183,251,o),
(183,296,qs),
(183,353,o),
(222,457,o),
(257,497,qs),
(292,537,o),
(387,585,o),
(444,585,qs),
(517,585,o),
(614,508,o),
(621,436,q),
(568,436,l),
(562,490,o),
(489,541,o),
(438,541,qs),
(393,541,o),
(318,501,o),
(292,468,qs),
(265,435,o),
(236,350,o),
(236,302,qs),
(236,230,o),
(312,158,o),
(370,158,qs),
(424,158,o),
(512,211,o),
(538,263,q),
(591,263,l),
(575,229,o),
(526,175,o),
(496,155,qs),
(466,135,o),
(397,115,o),
(361,115,qs)
);
}
);
width = 783;
}
);
unicode = 169;
},
{
glyphname = ordfeminine;
layers = (
{
layerId = "8E574D32-79B1-4C19-B318-CDC7DA43E89A";
shapes = (
{
closed = 1;
nodes = (
(136,349,o),
(58,423,o),
(58,489,qs),
(58,534,o),
(89,613,o),
(116,644,qs),
(143,675,o),
(217,711,o),
(260,711,qs),
(305,711,o),
(356,679,o),
(368,650,q),
(388,706,l),
(506,706,l),
(445,354,l),
(326,354,l),
(326,409,l),
(303,381,o),
(242,349,o),
(197,349,qs)
);
},
{
closed = 1;
nodes = (
(274,450,o),
(306,463,o),
(320,475,qs),
(334,487,o),
(349,523,o),
(349,547,qs),
(349,578,o),
(311,609,o),
(285,609,qs),
(269,609,o),
(237,596,o),
(223,584,qs),
(209,572,o),
(193,536,o),
(193,512,qs),
(193,481,o),
(231,450,o),
(257,450,qs)
);
}
);
width = 457;
},
{
layerId = "45EFDBD1-9215-4FBA-A8FC-D2A4A2D194F0";
shapes = (
{
closed = 1;
nodes = (
(140,350,o),
(67,427,o),
(67,493,qs),
(67,538,o),
(97,617,o),
(124,647,qs),
(151,676,o),
(223,712,o),
(266,712,qs),
(317,712,o),
(377,668,o),
(385,629,q),
(405,706,l),
(469,706,l),
(408,355,l),
(345,355,l),
(351,432,l),
(329,395,o),
(254,350,o),
(203,350,qs)
);
},
{
closed = 1;
nodes = (
(262,405,o),
(312,431,o),
(331,452,qs),
(350,473,o),
(370,529,o),
(370,559,qs),
(370,607,o),
(317,657,o),
(276,657,qs),
(247,657,o),
(196,632,o),
(178,611,qs),
(159,590,o),
(138,534,o),
(138,502,qs),
(138,456,o),
(191,405,o),
(231,405,qs)
);
}
);
width = 434;
},
{
layerId = "E8D95BBD-8C7B-4E49-82A7-0CC1B9EBDD01";
shapes = (
{
closed = 1;
nodes = (
(142,350,o),
(70,429,o),
(70,495,qs),
(70,540,o),
(100,618,o),
(127,648,qs),
(154,677,o),
(226,712,o),
(268,712,qs),
(322,712,o),
(385,663,o),
(392,621,q),
(412,706,l),
(454,706,l),
(393,356,l),
(352,356,l),
(361,441,l),
(339,401,o),
(259,350,o),
(205,350,qs)
);
},
{
closed = 1;
nodes = (
(257,387,o),
(315,418,o),
(336,443,qs),
(357,467,o),
(379,531,o),
(379,564,qs),
(379,618,o),
(320,676,o),
(272,676,qs),
(238,676,o),
(180,646,o),
(160,622,qs),
(139,597,o),
(116,533,o),
(116,498,qs),
(116,446,o),
(175,387,o),
(221,387,qs)
);
}
);
width = 425;
}
);
unicode = 170;
},
{
glyphname = guillemotleft;
layers = (
{
layerId = "8E574D32-79B1-4C19-B318-CDC7DA43E89A";
shapes = (
{
closed = 1;
nodes = (
(320,120,l),
(267,295,l),
(382,470,l),
(540,470,l),
(422,295,l),
(478,120,l)
);
},
{
closed = 1;
nodes = (
(95,120,l),
(42,295,l),
(157,470,l),
(315,470,l),
(197,295,l),
(253,120,l)
);
}
);
width = 545;
},
{
layerId = "45EFDBD1-9215-4FBA-A8FC-D2A4A2D194F0";
shapes = (
{
closed = 1;
nodes = (
(286,120,l),
(221,295,l),
(348,470,l),
(434,470,l),
(304,295,l),
(373,120,l)
);
},
{
closed = 1;
nodes = (
(106,120,l),
(41,295,l),
(168,470,l),
(254,470,l),
(124,295,l),
(194,120,l)
);
}
);
width = 443;
},
{
layerId = "E8D95BBD-8C7B-4E49-82A7-0CC1B9EBDD01";
shapes = (
{
closed = 1;
nodes = (
(272,120,l),
(202,295,l),
(334,470,l),
(392,470,l),
(257,295,l),
(331,120,l)
);
},
{
closed = 1;
nodes = (
(110,120,l),
(40,295,l),
(172,470,l),
(230,470,l),
(95,295,l),
(170,120,l)
);
}
);
width = 402;
}
);
leftKerningGroup = guillemotleft;
unicode = 171;
},
{
glyphname = logicalnot;
layers = (
{
layerId = "8E574D32-79B1-4C19-B318-CDC7DA43E89A";
shapes = (
{
closed = 1;
nodes = (
(473,180,l),
(496,312,l),
(52,312,l),
(75,442,l),
(690,442,l),
(644,180,l)
);
}
);
width = 716;
},
{
layerId = "45EFDBD1-9215-4FBA-A8FC-D2A4A2D194F0";
shapes = (
{
closed = 1;
nodes = (
(517,221,l),
(542,362,l),
(58,362,l),
(70,432,l),
(642,432,l),
(605,221,l)
);
}
);
width = 660;
},
{
layerId = "E8D95BBD-8C7B-4E49-82A7-0CC1B9EBDD01";
shapes = (
{
closed = 1;
nodes = (
(535,237,l),
(561,382,l),
(60,382,l),
(68,428,l),
(623,428,l),
(589,237,l)
);
}
);
width = 637;
}
);
unicode = 172;
},
{
glyphname = registered;
layers = (
{
layerId = "8E574D32-79B1-4C19-B318-CDC7DA43E89A";
shapes = (
{
closed = 1;
nodes = (
(204,280,o),
(130,312,o),
(82,369,o),
(64,449,o),
(72,496,qs),
(80,544,o),
(126,623,o),
(195,680,o),
(281,712,o),
(328,712,qs),
(376,712,o),
(450,680,o),
(498,623,o),
(516,544,o),
(507,496,qs),
(498,449,o),
(452,369,o),
(385,312,o),
(300,280,o),
(252,280,qs)
);
},
{
closed = 1;
nodes = (
(297,336,o),
(359,359,o),
(407,401,o),
(440,460,o),
(446,496,qs),
(452,532,o),
(441,591,o),
(407,633,o),
(354,656,o),
(318,656,qs),
(282,656,o),
(220,633,o),
(171,591,o),
(139,532,o),
(133,496,qs),
(127,460,o),
(139,401,o),
(172,359,o),
(225,336,o),
(261,336,qs)
);
},
{
closed = 1;
nodes = (
(296,393,l),
(268,467,l),
(267,467,l),
(254,393,l),
(180,393,l),
(218,605,l),
(329,605,ls),
(364,605,o),
(399,568,o),
(394,536,qs),
(390,514,o),
(365,483,o),
(344,475,q),
(380,393,l)
);
},
{
closed = 1;
nodes = (
(275,518,l),
(299,518,ls),
(307,518,o),
(315,524,o),
(316,531,qs),
(317,537,o),
(311,543,o),
(304,543,qs),
(279,543,l)
);
}
);
width = 502;
},
{
layerId = "45EFDBD1-9215-4FBA-A8FC-D2A4A2D194F0";
shapes = (
{
closed = 1;
nodes = (
(205,306,o),
(137,336,o),
(93,390,o),
(78,465,o),
(85,508,qs),
(92,552,o),
(135,627,o),
(199,681,o),
(278,712,o),
(322,712,qs),
(366,712,o),
(435,681,o),
(479,627,o),
(495,552,o),
(487,508,qs),
(479,465,o),
(436,390,o),
(373,336,o),
(294,306,o),
(250,306,qs)
);
},
{
closed = 1;
nodes = (
(293,342,o),
(357,367,o),
(407,411,o),
(441,472,o),
(447,508,qs),
(453,544,o),
(441,605,o),
(406,649,o),
(352,674,o),
(315,674,qs),
(278,674,o),
(214,649,o),
(165,605,o),
(131,544,o),
(125,508,qs),
(119,472,o),
(131,411,o),
(165,367,o),
(219,342,o),
(256,342,qs)
);
},
{
closed = 1;
nodes = (
(307,403,l),
(270,486,l),
(251,486,l),
(236,403,l),
(188,403,l),
(226,617,l),
(321,617,ls),
(355,617,o),
(388,582,o),
(383,552,qs),
(378,527,o),
(346,494,o),
(322,489,q),
(364,404,l)
);
},
{
closed = 1;
nodes = (
(257,525,l),
(299,525,ls),
(313,525,o),
(331,537,o),
(332,550,q),
(335,562,o),
(320,574,o),
(308,574,qs),
(266,574,l)
);
}
);
width = 489;
},
{
layerId = "E8D95BBD-8C7B-4E49-82A7-0CC1B9EBDD01";
shapes = (
{
closed = 1;
nodes = (
(206,316,o),
(140,346,o),
(98,398,o),
(83,471,o),
(90,513,qs),
(97,555,o),
(139,628,o),
(200,682,o),
(277,712,o),
(319,712,qs),
(362,712,o),
(429,682,o),
(471,628,o),
(487,555,o),
(479,513,qs),
(471,471,o),
(429,398,o),
(368,346,o),
(292,316,o),
(249,316,qs)
);
},
{
closed = 1;
nodes = (
(291,345,o),
(356,370,o),
(407,415,o),
(441,477,o),
(447,513,qs),
(453,549,o),
(441,611,o),
(406,656,o),
(351,681,o),
(314,681,qs),
(277,681,o),
(212,656,o),
(162,611,o),
(128,549,o),
(122,513,qs),
(116,477,o),
(128,415,o),
(162,370,o),
(217,345,o),
(254,345,qs)
);
},
{
closed = 1;
nodes = (
(312,407,l),
(271,493,l),
(244,493,l),
(229,407,l),
(191,407,l),
(229,622,l),
(318,622,ls),
(351,622,o),
(383,588,o),
(378,558,qs),
(373,532,o),
(339,499,o),
(313,495,q),
(357,408,l)
);
},
{
closed = 1;
nodes = (
(250,528,l),
(299,528,ls),
(315,528,o),
(337,542,o),
(339,557,qs),
(342,572,o),
(324,586,o),
(310,586,qs),
(261,586,l)
);
}
);
width = 484;
}
);
unicode = 174;
},
{
glyphname = macron;
layers = (
{
layerId = "8E574D32-79B1-4C19-B318-CDC7DA43E89A";
shapes = (
{
closed = 1;
nodes = (
(60,566,l),
(81,684,l),
(481,684,l),
(460,566,l)
);
}
);
width = 408;
},
{
layerId = "45EFDBD1-9215-4FBA-A8FC-D2A4A2D194F0";
shapes = (
{
closed = 1;
nodes = (
(74,591,l),
(86,656,l),
(436,656,l),
(425,591,l)
);
}
);
width = 379;
},
{
layerId = "E8D95BBD-8C7B-4E49-82A7-0CC1B9EBDD01";
shapes = (
{
closed = 1;
nodes = (
(80,601,l),
(88,645,l),
(418,645,l),
(411,601,l)
);
}
);
width = 367;
}
);
unicode = 175;
},
{
glyphname = degree;
layers = (
{
layerId = "8E574D32-79B1-4C19-B318-CDC7DA43E89A";
shapes = (
{
closed = 1;
nodes = (
(210,408,o),
(155,429,o),
(113,469,o),
(88,525,o),
(88,559,qs),
(88,594,o),
(113,651,o),
(155,691,o),
(211,712,o),
(241,712,qs),
(271,712,o),
(326,691,o),
(368,651,o),
(393,594,o),
(393,559,qs),
(393,525,o),
(368,469,o),
(326,429,o),
(270,408,o),
(240,408,qs)
);
},
{
closed = 1;
nodes = (
(257,509,o),
(288,534,o),
(288,560,qs),
(288,586,o),
(258,611,o),
(241,611,qs),
(224,611,o),
(193,586,o),
(193,560,qs),
(193,535,o),
(223,509,o),
(240,509,qs)
);
}
);
width = 371;
},
{
layerId = "45EFDBD1-9215-4FBA-A8FC-D2A4A2D194F0";
shapes = (
{
closed = 1;
nodes = (
(199,442,o),
(150,461,o),
(114,496,o),
(92,546,o),
(92,576,qs),
(92,608,o),
(114,657,o),
(150,693,o),
(199,712,o),
(226,712,qs),
(253,712,o),
(301,693,o),
(337,657,o),
(358,608,o),
(358,576,qs),
(358,546,o),
(337,496,o),
(300,461,o),
(252,442,o),
(225,442,qs)
);
},
{
closed = 1;
nodes = (
(248,507,o),
(291,542,o),
(291,577,qs),
(291,613,o),
(249,648,o),
(226,648,qs),
(202,648,o),
(159,613,o),
(159,577,qs),
(159,542,o),
(201,507,o),
(225,507,qs)
);
}
);
width = 335;
},
{
layerId = "E8D95BBD-8C7B-4E49-82A7-0CC1B9EBDD01";
shapes = (
{
closed = 1;
nodes = (
(194,456,o),
(148,474,o),
(114,507,o),
(94,554,o),
(94,583,qs),
(94,613,o),
(114,660,o),
(148,694,o),
(194,712,o),
(220,712,qs),
(246,712,o),
(291,694,o),
(324,660,o),
(344,613,o),
(344,583,qs),
(344,554,o),
(324,507,o),
(290,474,o),
(245,456,o),
(219,456,qs)
);
},
{
closed = 1;
nodes = (
(245,506,o),
(292,545,o),
(292,584,qs),
(292,624,o),
(246,663,o),
(220,663,qs),
(193,663,o),
(146,624,o),
(146,584,qs),
(146,545,o),
(192,506,o),
(219,506,qs)
);
}
);
width = 320;
}
);
unicode = 176;
},
{
glyphname = plusminus;
layers = (
{
layerId = "8E574D32-79B1-4C19-B318-CDC7DA43E89A";
shapes = (
{
closed = 1;
nodes = (
(227,183,l),
(247,297,l),
(63,297,l),
(88,439,l),
(273,439,l),
(293,553,l),
(435,553,l),
(415,439,l),
(598,439,l),
(573,297,l),
(389,297,l),
(369,183,l)
);
},
{
closed = 1;
nodes = (
(11,0,l),
(38,151,l),
(548,151,l),
(521,0,l)
);
}
);
width = 619;
},
{
layerId = "45EFDBD1-9215-4FBA-A8FC-D2A4A2D194F0";
shapes = (
{
closed = 1;
nodes = (
(234,128,l),
(258,268,l),
(60,268,l),
(74,343,l),
(272,343,l),
(297,482,l),
(376,482,l),
(351,343,l),
(550,343,l),
(537,268,l),
(338,268,l),
(313,128,l)
);
},
{
closed = 1;
nodes = (
(13,0,l),
(27,77,l),
(503,77,l),
(490,0,l)
);
}
);
width = 590;
},
{
layerId = "E8D95BBD-8C7B-4E49-82A7-0CC1B9EBDD01";
shapes = (
{
closed = 1;
nodes = (
(237,106,l),
(263,256,l),
(59,256,l),
(68,304,l),
(271,304,l),
(298,453,l),
(352,453,l),
(325,304,l),
(531,304,l),
(522,256,l),
(317,256,l),
(290,106,l)
);
},
{
closed = 1;
nodes = (
(14,0,l),
(22,47,l),
(485,47,l),
(477,0,l)
);
}
);
width = 578;
}
);
unicode = 177;
},
{
glyphname = twosuperior;
layers = (
{
layerId = "8E574D32-79B1-4C19-B318-CDC7DA43E89A";
shapes = (
{
closed = 1;
nodes = (
(44,352,l),
(61,448,l),
(197,522,ls),
(228,539,o),
(261,575,o),
(265,594,q),
(267,608,o),
(258,622,o),
(245,622,qs),
(231,622,o),
(214,604,o),
(209,586,q),
(81,586,l),
(94,643,o),
(196,714,o),
(274,714,qs),
(313,714,o),
(365,695,o),
(396,663,o),
(406,623,o),
(403,603,qs),
(396,566,o),
(332,512,o),
(263,482,qs),
(197,452,l),
(371,452,l),
(353,352,l)
);
}
);
width = 371;
},
{
layerId = "45EFDBD1-9215-4FBA-A8FC-D2A4A2D194F0";
shapes = (
{
closed = 1;
nodes = (
(39,352,l),
(48,402,l),
(178,493,l),
(210,517,o),
(258,567,o),
(264,600,qs),
(269,629,o),
(244,657,o),
(221,657,qs),
(194,657,o),
(160,628,o),
(152,599,q),
(81,599,l),
(93,646,o),
(170,710,o),
(233,710,qs),
(263,710,o),
(306,693,o),
(332,664,o),
(342,625,o),
(337,603,q),
(330,562,o),
(271,501,o),
(217,466,qs),
(129,408,l),
(307,408,l),
(297,352,l)
);
}
);
width = 318;
},
{
layerId = "E8D95BBD-8C7B-4E49-82A7-0CC1B9EBDD01";
shapes = (
{
closed = 1;
nodes = (
(37,352,l),
(43,384,l),
(170,482,ls),
(203,508,o),
(257,564,o),
(263,602,q),
(270,637,o),
(238,671,o),
(211,671,qs),
(179,671,o),
(139,638,o),
(129,604,q),
(81,604,l),
(92,647,o),
(160,708,o),
(217,708,qs),
(243,708,o),
(282,692,o),
(306,664,o),
(316,626,o),
(311,603,qs),
(303,560,o),
(247,496,o),
(198,460,qs),
(102,391,l),
(282,391,l),
(275,352,l)
);
}
);
width = 297;
}
);
unicode = 178;
},
{
glyphname = threesuperior;
layers = (
{
layerId = "8E574D32-79B1-4C19-B318-CDC7DA43E89A";
shapes = (
{
closed = 1;
nodes = (
(106,348,o),
(36,413,o),
(42,470,q),
(174,470,l),
(172,454,o),
(186,439,o),
(202,439,qs),
(216,439,o),
(236,454,o),
(239,471,qs),
(242,488,o),
(225,505,o),
(205,505,qs),
(172,505,l),
(181,561,l),
(209,561,ls),
(229,561,o),
(251,577,o),
(254,594,qs),
(256,608,o),
(244,623,o),
(229,623,qs),
(215,623,o),
(196,608,o),
(191,592,q),
(69,592,l),
(74,616,o),
(102,660,o),
(149,694,o),
(215,714,o),
(258,714,qs),
(328,714,o),
(402,654,o),
(394,609,qs),
(389,577,o),
(345,540,o),
(312,533,q),
(311,530,l),
(346,520,o),
(377,480,o),
(372,449,qs),
(368,425,o),
(338,388,o),
(292,362,o),
(230,348,o),
(194,348,qs)
);
}
);
width = 362;
},
{
layerId = "45EFDBD1-9215-4FBA-A8FC-D2A4A2D194F0";
shapes = (
{
closed = 1;
nodes = (
(105,347,o),
(44,402,o),
(49,454,q),
(118,454,l),
(117,424,o),
(147,400,o),
(174,400,qs),
(203,400,o),
(242,428,o),
(247,453,q),
(251,479,o),
(219,507,o),
(190,507,qs),
(144,507,l),
(152,550,l),
(196,550,ls),
(225,550,o),
(265,578,o),
(270,604,qs),
(275,628,o),
(248,657,o),
(220,657,qs),
(191,657,o),
(155,632,o),
(146,610,q),
(80,610,l),
(85,632,o),
(112,668,o),
(151,695,o),
(202,710,o),
(234,710,qs),
(289,710,o),
(353,653,o),
(345,608,qs),
(340,577,o),
(298,537,o),
(267,529,q),
(266,526,l),
(294,518,o),
(325,476,o),
(319,444,qs),
(316,424,o),
(291,389,o),
(251,363,o),
(199,347,o),
(167,347,qs)
);
}
);
width = 317;
},
{
layerId = "E8D95BBD-8C7B-4E49-82A7-0CC1B9EBDD01";
shapes = (
{
closed = 1;
nodes = (
(105,347,o),
(47,397,o),
(52,448,q),
(96,448,l),
(95,412,o),
(132,384,o),
(163,384,qs),
(198,384,o),
(245,417,o),
(250,446,qs),
(255,476,o),
(217,508,o),
(184,508,qs),
(133,508,l),
(140,545,l),
(191,545,ls),
(223,545,o),
(271,578,o),
(276,608,q),
(282,636,o),
(249,670,o),
(216,670,qs),
(181,670,o),
(139,641,o),
(128,617,q),
(84,617,l),
(90,638,o),
(116,671,o),
(152,695,o),
(197,708,o),
(224,708,qs),
(274,708,o),
(333,652,o),
(325,608,qs),
(320,577,o),
(279,536,o),
(249,527,q),
(248,525,l),
(273,517,o),
(304,475,o),
(298,442,qs),
(295,424,o),
(272,389,o),
(235,363,o),
(186,347,o),
(156,347,qs)
);
}
);
width = 299;
}
);
unicode = 179;
},
{
glyphname = acute;
layers = (
{
layerId = "8E574D32-79B1-4C19-B318-CDC7DA43E89A";
shapes = (
{
closed = 1;
nodes = (
(54,534,l),
(75,652,l),
(337,768,l),
(314,635,l)
);
}
);
width = 250;
},
{
layerId = "45EFDBD1-9215-4FBA-A8FC-D2A4A2D194F0";
shapes = (
{
closed = 1;
nodes = (
(65,538,l),
(77,603,l),
(311,729,l),
(298,653,l)
);
}
);
width = 241;
},
{
layerId = "E8D95BBD-8C7B-4E49-82A7-0CC1B9EBDD01";
shapes = (
{
closed = 1;
nodes = (
(70,539,l),
(78,583,l),
(301,713,l),
(291,660,l)
);
}
);
width = 237;
}
);
unicode = 180;
},
{
glyphname = mu;
layers = (
{
layerId = "8E574D32-79B1-4C19-B318-CDC7DA43E89A";
shapes = (
{
closed = 1;
nodes = (
(-27,-222,l),
(102,500,l),
(274,500,l),
(229,243,ls),
(227,232,o),
(225,214,o),
(225,206,qs),
(225,170,o),
(259,132,o),
(298,132,qs),
(341,132,o),
(405,191,o),
(414,243,qs),
(460,500,l),
(632,500,l),
(544,0,l),
(394,0,l),
(389,74,l),
(360,35,o),
(273,-12,o),
(213,-12,qs),
(205,-12,o),
(191,-11,o),
(183,-10,q),
(145,-222,l)
);
}
);
width = 645;
},
{
layerId = "45EFDBD1-9215-4FBA-A8FC-D2A4A2D194F0";
shapes = (
{
closed = 1;
nodes = (
(-22,-222,l),
(106,500,l),
(195,500,l),
(145,219,ls),
(143,206,o),
(141,180,o),
(141,170,qs),
(141,117,o),
(193,64,o),
(245,64,qs),
(307,64,o),
(406,150,o),
(423,232,q),
(470,500,l),
(558,500,l),
(471,0,l),
(391,0,l),
(400,90,l),
(369,41,o),
(269,-12,o),
(211,-12,qs),
(179,-12,o),
(129,5,o),
(110,21,q),
(66,-222,l)
);
}
);
width = 577;
},
{
layerId = "E8D95BBD-8C7B-4E49-82A7-0CC1B9EBDD01";
shapes = (
{
closed = 1;
nodes = (
(-20,-222,l),
(108,500,l),
(163,500,l),
(112,209,ls),
(110,195,o),
(107,167,o),
(107,156,qs),
(107,96,o),
(167,37,o),
(224,37,qs),
(294,37,o),
(406,134,o),
(426,228,q),
(474,500,l),
(529,500,l),
(442,0,l),
(390,0,l),
(404,96,l),
(372,44,o),
(267,-12,o),
(210,-12,qs),
(168,-12,o),
(104,11,o),
(81,34,q),
(35,-222,l)
);
}
);
width = 550;
}
);
rightKerningGroup = a;
unicode = 181;
},
{
glyphname = paragraph;
layers = (
{
layerId = "8E574D32-79B1-4C19-B318-CDC7DA43E89A";
shapes = (
{
closed = 1;
nodes = (
(224,-100,l),
(289,271,l),
(266,271,ls),
(211,271,o),
(134,304,o),
(110,331,q),
(85,357,o),
(62,425,o),
(62,459,qs),
(62,516,o),
(104,605,o),
(141,636,qs),
(178,667,o),
(281,700,o),
(342,700,qs),
(709,700,l),
(568,-100,l),
(427,-100,l),
(545,570,l),
(483,570,l),
(365,-100,l)
);
}
);
width = 685;
},
{
layerId = "45EFDBD1-9215-4FBA-A8FC-D2A4A2D194F0";
shapes = (
{
closed = 1;
nodes = (
(218,-100,l),
(288,294,l),
(277,294,ls),
(222,294,o),
(147,325,o),
(121,350,qs),
(96,375,o),
(72,441,o),
(72,475,qs),
(72,530,o),
(113,614,o),
(149,642,qs),
(185,671,o),
(287,700,o),
(348,700,qs),
(595,700,l),
(454,-100,l),
(376,-100,l),
(505,631,l),
(424,631,l),
(295,-100,l)
);
}
);
width = 581;
},
{
layerId = "E8D95BBD-8C7B-4E49-82A7-0CC1B9EBDD01";
shapes = (
{
closed = 1;
nodes = (
(215,-100,l),
(287,303,l),
(281,303,ls),
(227,303,o),
(152,333,o),
(126,358,qs),
(100,382,o),
(76,447,o),
(76,482,qs),
(76,536,o),
(116,617,o),
(152,645,qs),
(188,672,o),
(289,700,o),
(350,700,qs),
(549,700,l),
(408,-100,l),
(356,-100,l),
(489,655,l),
(400,655,l),
(267,-100,l)
);
}
);
width = 539;
}
);
unicode = 182;
},
{
glyphname = periodcentered;
layers = (
{
layerId = "8E574D32-79B1-4C19-B318-CDC7DA43E89A";
shapes = (
{
closed = 1;
nodes = (
(103,222,o),
(47,276,o),
(47,314,qs),
(47,354,o),
(103,408,o),
(149,408,qs),
(194,408,o),
(250,354,o),
(250,314,qs),
(250,276,o),
(194,222,o),
(149,222,qs)
);
}
);
width = 274;
},
{
layerId = "45EFDBD1-9215-4FBA-A8FC-D2A4A2D194F0";
shapes = (
{
closed = 1;
nodes = (
(84,282,o),
(50,316,o),
(50,341,qs),
(50,366,o),
(84,400,o),
(110,400,qs),
(135,400,o),
(169,366,o),
(169,341,qs),
(169,316,o),
(135,282,o),
(110,282,qs)
);
}
);
width = 186;
},
{
layerId = "E8D95BBD-8C7B-4E49-82A7-0CC1B9EBDD01";
shapes = (
{
closed = 1;
nodes = (
(76,306,o),
(51,332,o),
(51,352,qs),
(51,371,o),
(76,397,o),
(94,397,qs),
(111,397,o),
(137,371,o),
(137,352,qs),
(137,332,o),
(111,306,o),
(94,306,qs)
);
}
);
width = 151;
}
);
unicode = 183;
},
{
glyphname = cedilla;
layers = (
{
layerId = "8E574D32-79B1-4C19-B318-CDC7DA43E89A";
shapes = (
{
closed = 1;
nodes = (
(-94,-267,l),
(-77,-173,l),
(53,-173,ls),
(73,-173,o),
(99,-161,o),
(99,-145,qs),
(99,-131,o),
(82,-122,o),
(65,-122,qs),
(-8,-122,l),
(15,7,l),
(118,7,l),
(110,-37,l),
(130,-37,o),
(170,-47,o),
(202,-69,o),
(221,-105,o),
(221,-131,qs),
(221,-163,o),
(195,-214,o),
(150,-249,o),
(92,-267,o),
(60,-267,qs)
);
}
);
width = 301;
},
{
layerId = "45EFDBD1-9215-4FBA-A8FC-D2A4A2D194F0";
shapes = (
{
closed = 1;
nodes = (
(-82,-260,l),
(-72,-204,l),
(22,-204,ls),
(60,-204,o),
(97,-178,o),
(97,-154,qs),
(97,-132,o),
(69,-114,o),
(39,-114,qs),
(-13,-114,l),
(9,7,l),
(68,7,l),
(55,-62,l),
(81,-61,o),
(123,-71,o),
(153,-92,o),
(169,-124,o),
(169,-147,qs),
(169,-171,o),
(148,-213,o),
(111,-243,o),
(61,-260,o),
(31,-260,qs)
);
}
);
width = 259;
},
{
layerId = "E8D95BBD-8C7B-4E49-82A7-0CC1B9EBDD01";
shapes = (
{
closed = 1;
nodes = (
(-77,-257,l),
(-70,-217,l),
(10,-217,ls),
(55,-217,o),
(96,-185,o),
(96,-157,qs),
(96,-133,o),
(64,-111,o),
(29,-111,qs),
(-15,-111,l),
(6,7,l),
(48,7,l),
(33,-72,l),
(61,-71,o),
(104,-80,o),
(133,-101,o),
(148,-132,o),
(148,-153,qs),
(148,-174,o),
(129,-212,o),
(95,-240,o),
(48,-257,o),
(20,-257,qs)
);
}
);
width = 242;
}
);
unicode = 184;
},
{
glyphname = onesuperior;
layers = (
{
layerId = "8E574D32-79B1-4C19-B318-CDC7DA43E89A";
shapes = (
{
closed = 1;
nodes = (
(97,352,l),
(138,585,l),
(64,571,l),
(78,650,l),
(219,704,l),
(288,704,l),
(226,352,l)
);
}
);
width = 249;
},
{
layerId = "45EFDBD1-9215-4FBA-A8FC-D2A4A2D194F0";
shapes = (
{
closed = 1;
nodes = (
(99,352,l),
(149,636,l),
(79,618,l),
(87,661,l),
(186,704,l),
(231,704,l),
(169,352,l)
);
}
);
width = 192;
},
{
layerId = "E8D95BBD-8C7B-4E49-82A7-0CC1B9EBDD01";
shapes = (
{
closed = 1;
nodes = (
(100,352,l),
(153,656,l),
(85,637,l),
(90,666,l),
(173,704,l),
(208,704,l),
(146,352,l)
);
}
);
width = 169;
}
);
unicode = 185;
},
{
glyphname = ordmasculine;
layers = (
{
layerId = "8E574D32-79B1-4C19-B318-CDC7DA43E89A";
shapes = (
{
closed = 1;
nodes = (
(152,350,o),
(59,432,o),
(59,498,qs),
(59,546,o),
(96,623,o),
(129,652,qs),
(161,681,o),
(247,712,o),
(296,712,qs),
(378,712,o),
(472,632,o),
(472,566,qs),
(472,518,o),
(434,440,o),
(402,411,qs),
(370,382,o),
(283,350,o),
(234,350,qs)
);
},
{
closed = 1;
nodes = (
(272,448,o),
(305,466,o),
(317,481,qs),
(328,495,o),
(340,532,o),
(340,550,qs),
(340,583,o),
(304,615,o),
(279,615,qs),
(258,615,o),
(225,597,o),
(214,582,qs),
(203,567,o),
(191,530,o),
(191,511,qs),
(191,479,o),
(225,448,o),
(251,448,qs)
);
}
);
width = 446;
},
{
layerId = "45EFDBD1-9215-4FBA-A8FC-D2A4A2D194F0";
shapes = (
{
closed = 1;
nodes = (
(151,349,o),
(66,428,o),
(66,494,qs),
(66,540,o),
(100,619,o),
(130,648,qs),
(160,678,o),
(237,712,o),
(283,712,qs),
(354,712,o),
(441,633,o),
(441,567,qs),
(441,521,o),
(407,442,o),
(377,412,qs),
(347,383,o),
(268,349,o),
(222,349,qs)
);
},
{
closed = 1;
nodes = (
(262,403,o),
(313,429,o),
(331,451,qs),
(349,473,o),
(368,530,o),
(368,561,qs),
(368,609,o),
(314,659,o),
(274,659,qs),
(243,659,o),
(193,632,o),
(175,609,qs),
(157,586,o),
(137,530,o),
(137,500,qs),
(137,452,o),
(189,403,o),
(231,403,qs)
);
}
);
width = 420;
},
{
layerId = "E8D95BBD-8C7B-4E49-82A7-0CC1B9EBDD01";
shapes = (
{
closed = 1;
nodes = (
(151,348,o),
(69,426,o),
(69,492,qs),
(69,537,o),
(101,617,o),
(130,647,qs),
(159,677,o),
(233,712,o),
(278,712,qs),
(344,712,o),
(428,634,o),
(428,567,qs),
(428,522,o),
(396,443,o),
(367,413,qs),
(338,383,o),
(262,348,o),
(217,348,qs)
);
},
{
closed = 1;
nodes = (
(258,385,o),
(316,414,o),
(337,439,qs),
(357,464,o),
(379,529,o),
(379,566,qs),
(379,620,o),
(318,676,o),
(272,676,qs),
(237,676,o),
(180,646,o),
(160,620,qs),
(139,594,o),
(116,530,o),
(116,496,qs),
(116,441,o),
(175,385,o),
(223,385,qs)
);
}
);
width = 409;
}
);
unicode = 186;
},
{
glyphname = guillemotright;
layers = (
{
layerId = "8E574D32-79B1-4C19-B318-CDC7DA43E89A";
shapes = (
{
closed = 1;
nodes = (
(246,120,l),
(364,295,l),
(308,470,l),
(466,470,l),
(519,295,l),
(404,120,l)
);
},
{
closed = 1;
nodes = (
(21,120,l),
(139,295,l),
(83,470,l),
(241,470,l),
(294,295,l),
(179,120,l)
);
}
);
width = 545;
},
{
layerId = "45EFDBD1-9215-4FBA-A8FC-D2A4A2D194F0";
shapes = (
{
closed = 1;
nodes = (
(204,120,l),
(334,295,l),
(266,470,l),
(352,470,l),
(418,295,l),
(290,120,l)
);
},
{
closed = 1;
nodes = (
(24,120,l),
(154,295,l),
(86,470,l),
(172,470,l),
(238,295,l),
(110,120,l)
);
}
);
width = 442;
},
{
layerId = "E8D95BBD-8C7B-4E49-82A7-0CC1B9EBDD01";
shapes = (
{
closed = 1;
nodes = (
(187,120,l),
(322,295,l),
(249,470,l),
(307,470,l),
(377,295,l),
(245,120,l)
);
},
{
closed = 1;
nodes = (
(25,120,l),
(160,295,l),
(87,470,l),
(145,470,l),
(215,295,l),
(83,120,l)
);
}
);
width = 401;
}
);
unicode = 187;
},
{
glyphname = onequarter;
layers = (
{
layerId = "8E574D32-79B1-4C19-B318-CDC7DA43E89A";
shapes = (
{
closed = 1;
nodes = (
(117,352,l),
(158,585,l),
(84,571,l),
(98,650,l),
(239,704,l),
(308,704,l),
(246,352,l)
);
},
{
closed = 1;
nodes = (
(31,0,l),
(539,700,l),
(703,700,l),
(196,0,l)
);
},
{
closed = 1;
nodes = (
(530,0,l),
(542,62,l),
(347,62,l),
(358,130,l),
(543,352,l),
(722,352,l),
(684,135,l),
(723,135,l),
(711,62,l),
(671,62,l),
(659,0,l)
);
},
{
closed = 1;
nodes = (
(483,138,l),
(561,138,l),
(583,267,l)
);
}
);
width = 774;
},
{
layerId = "45EFDBD1-9215-4FBA-A8FC-D2A4A2D194F0";
shapes = (
{
closed = 1;
nodes = (
(118,352,l),
(167,636,l),
(98,618,l),
(105,661,l),
(205,704,l),
(249,704,l),
(187,352,l)
);
},
{
closed = 1;
nodes = (
(8,0,l),
(503,700,l),
(586,700,l),
(93,0,l)
);
},
{
closed = 1;
nodes = (
(423,0,l),
(436,69,l),
(253,69,l),
(261,110,l),
(464,353,l),
(556,353,l),
(513,114,l),
(561,114,l),
(554,69,l),
(505,69,l),
(493,0,l)
);
},
{
closed = 1;
nodes = (
(332,115,l),
(445,115,l),
(477,291,l)
);
}
);
width = 621;
},
{
layerId = "E8D95BBD-8C7B-4E49-82A7-0CC1B9EBDD01";
shapes = (
{
closed = 1;
nodes = (
(118,352,l),
(171,656,l),
(103,637,l),
(108,666,l),
(191,704,l),
(226,704,l),
(164,352,l)
);
},
{
closed = 1;
nodes = (
(-1,0,l),
(488,700,l),
(539,700,l),
(52,0,l)
);
},
{
closed = 1;
nodes = (
(380,0,l),
(393,72,l),
(216,72,l),
(222,102,l),
(432,354,l),
(489,354,l),
(445,106,l),
(496,106,l),
(491,72,l),
(439,72,l),
(426,0,l)
);
},
{
closed = 1;
nodes = (
(271,106,l),
(399,106,l),
(434,300,l)
);
}
);
width = 560;
}
);
unicode = 188;
},
{
glyphname = onehalf;
layers = (
{
layerId = "8E574D32-79B1-4C19-B318-CDC7DA43E89A";
shapes = (
{
closed = 1;
nodes = (
(117,352,l),
(158,585,l),
(84,571,l),
(98,650,l),
(239,704,l),
(308,704,l),
(246,352,l)
);
},
{
closed = 1;
nodes = (
(31,0,l),
(538,700,l),
(703,700,l),
(196,0,l)
);
},
{
closed = 1;
nodes = (
(453,-1,l),
(470,95,l),
(606,169,ls),
(637,186,o),
(670,222,o),
(674,241,q),
(676,255,o),
(667,269,o),
(654,269,qs),
(640,269,o),
(623,251,o),
(618,233,q),
(490,233,l),
(503,290,o),
(605,361,o),
(683,361,qs),
(722,361,o),
(774,342,o),
(805,310,o),
(815,270,o),
(812,250,qs),
(805,213,o),
(741,159,o),
(672,129,qs),
(606,99,l),
(780,99,l),
(762,-1,l)
);
}
);
width = 809;
},
{
layerId = "45EFDBD1-9215-4FBA-A8FC-D2A4A2D194F0";
shapes = (
{
closed = 1;
nodes = (
(118,352,l),
(167,636,l),
(98,618,l),
(105,661,l),
(205,704,l),
(249,704,l),
(187,352,l)
);
},
{
closed = 1;
nodes = (
(1,0,l),
(489,700,l),
(574,700,l),
(85,0,l)
);
},
{
closed = 1;
nodes = (
(382,-1,l),
(391,49,l),
(520,140,ls),
(553,164,o),
(601,214,o),
(606,247,q),
(612,276,o),
(586,304,o),
(563,304,qs),
(536,304,o),
(503,275,o),
(494,246,q),
(424,246,l),
(435,293,o),
(513,357,o),
(576,357,qs),
(606,357,o),
(648,340,o),
(674,311,o),
(684,272,o),
(680,250,qs),
(672,209,o),
(614,148,o),
(559,113,q),
(472,55,l),
(650,55,l),
(640,-1,l)
);
}
);
width = 666;
},
{
layerId = "E8D95BBD-8C7B-4E49-82A7-0CC1B9EBDD01";
shapes = (
{
closed = 1;
nodes = (
(118,352,l),
(171,656,l),
(103,637,l),
(108,666,l),
(191,704,l),
(226,704,l),
(164,352,l)
);
},
{
closed = 1;
nodes = (
(-11,0,l),
(469,700,l),
(522,700,l),
(41,0,l)
);
},
{
closed = 1;
nodes = (
(353,-1,l),
(359,31,l),
(486,129,ls),
(519,155,o),
(573,211,o),
(579,249,q),
(586,284,o),
(554,318,o),
(527,318,qs),
(495,318,o),
(455,285,o),
(445,251,q),
(397,251,l),
(408,294,o),
(476,355,o),
(533,355,qs),
(559,355,o),
(598,339,o),
(622,311,o),
(632,273,o),
(627,250,qs),
(619,207,o),
(563,143,o),
(514,107,qs),
(418,38,l),
(598,38,l),
(591,-1,l)
);
}
);
width = 609;
}
);
unicode = 189;
},
{
glyphname = threequarters;
layers = (
{
layerId = "8E574D32-79B1-4C19-B318-CDC7DA43E89A";
shapes = (
{
closed = 1;
nodes = (
(141,348,o),
(71,413,o),
(77,470,q),
(209,470,l),
(207,454,o),
(221,439,o),
(237,439,qs),
(251,439,o),
(271,454,o),
(274,471,qs),
(277,488,o),
(260,505,o),
(240,505,qs),
(207,505,l),
(216,561,l),
(244,561,ls),
(264,561,o),
(286,577,o),
(289,594,qs),
(291,608,o),
(279,623,o),
(264,623,qs),
(250,623,o),
(231,608,o),
(226,592,q),
(104,592,l),
(109,616,o),
(137,660,o),
(184,694,o),
(250,714,o),
(293,714,qs),
(363,714,o),
(437,654,o),
(429,609,qs),
(424,577,o),
(380,540,o),
(347,533,q),
(346,530,l),
(381,520,o),
(412,480,o),
(407,449,qs),
(403,425,o),
(373,388,o),
(327,362,o),
(265,348,o),
(229,348,qs)
);
},
{
closed = 1;
nodes = (
(147,0,l),
(653,700,l),
(818,700,l),
(311,0,l)
);
},
{
closed = 1;
nodes = (
(646,0,l),
(657,62,l),
(461,62,l),
(473,130,l),
(648,352,l),
(837,352,l),
(798,135,l),
(838,135,l),
(825,62,l),
(786,62,l),
(774,0,l)
);
},
{
closed = 1;
nodes = (
(597,135,l),
(675,135,l),
(701,277,l)
);
}
);
width = 888;
},
{
layerId = "45EFDBD1-9215-4FBA-A8FC-D2A4A2D194F0";
shapes = (
{
closed = 1;
nodes = (
(125,347,o),
(63,402,o),
(68,454,q),
(138,454,l),
(136,424,o),
(167,400,o),
(193,400,qs),
(222,400,o),
(262,428,o),
(266,453,qs),
(271,479,o),
(239,507,o),
(209,507,qs),
(163,507,l),
(171,550,l),
(215,550,ls),
(244,550,o),
(285,578,o),
(289,604,q),
(294,628,o),
(267,657,o),
(239,657,qs),
(210,657,o),
(175,632,o),
(165,610,q),
(99,610,l),
(105,632,o),
(131,668,o),
(170,695,o),
(221,710,o),
(253,710,qs),
(309,710,o),
(372,653,o),
(364,608,qs),
(359,577,o),
(317,537,o),
(286,529,q),
(285,526,l),
(313,518,o),
(344,476,o),
(338,444,qs),
(335,424,o),
(310,389,o),
(271,363,o),
(218,347,o),
(186,347,qs)
);
},
{
closed = 1;
nodes = (
(81,0,l),
(583,700,l),
(667,700,l),
(165,0,l)
);
},
{
closed = 1;
nodes = (
(483,0,l),
(496,69,l),
(312,69,l),
(320,110,l),
(521,353,l),
(615,353,l),
(573,114,l),
(621,114,l),
(613,69,l),
(565,69,l),
(552,0,l)
);
},
{
closed = 1;
nodes = (
(391,114,l),
(504,114,l),
(537,293,l)
);
}
);
width = 680;
},
{
layerId = "E8D95BBD-8C7B-4E49-82A7-0CC1B9EBDD01";
shapes = (
{
closed = 1;
nodes = (
(118,347,o),
(60,397,o),
(65,448,q),
(109,448,l),
(108,412,o),
(145,384,o),
(176,384,qs),
(211,384,o),
(258,417,o),
(263,446,qs),
(268,476,o),
(230,508,o),
(197,508,qs),
(146,508,l),
(153,545,l),
(204,545,ls),
(236,545,o),
(284,578,o),
(289,608,q),
(295,636,o),
(262,670,o),
(229,670,qs),
(194,670,o),
(152,641,o),
(141,617,q),
(97,617,l),
(103,638,o),
(129,671,o),
(165,695,o),
(210,708,o),
(237,708,qs),
(287,708,o),
(346,652,o),
(338,608,qs),
(333,577,o),
(292,536,o),
(262,527,q),
(261,525,l),
(286,517,o),
(317,475,o),
(311,442,qs),
(308,424,o),
(285,389,o),
(248,363,o),
(199,347,o),
(169,347,qs)
);
},
{
closed = 1;
nodes = (
(54,0,l),
(555,700,l),
(606,700,l),
(106,0,l)
);
},
{
closed = 1;
nodes = (
(418,0,l),
(431,72,l),
(253,72,l),
(259,102,l),
(470,354,l),
(526,354,l),
(483,106,l),
(534,106,l),
(528,72,l),
(476,72,l),
(463,0,l)
);
},
{
closed = 1;
nodes = (
(308,106,l),
(436,106,l),
(472,299,l)
);
}
);
width = 597;
}
);
unicode = 190;
},
{
glyphname = questiondown;
layers = (
{
layerId = "8E574D32-79B1-4C19-B318-CDC7DA43E89A";
shapes = (
{
closed = 1;
nodes = (
(434,325,l),
(410,155,l),
(350,155,ls),
(315,155,o),
(251,147,o),
(203,124,o),
(174,83,o),
(174,50,qs),
(174,23,o),
(206,-8,o),
(235,-8,qs),
(272,-8,o),
(318,33,o),
(324,68,q),
(485,68,l),
(478,23,o),
(434,-56,o),
(363,-114,o),
(267,-148,o),
(207,-148,qs),
(114,-148,o),
(5,-55,o),
(5,29,qs),
(5,85,o),
(45,173,o),
(115,234,o),
(212,266,o),
(269,266,q),
(283,325,l)
);
},
{
closed = 1;
nodes = (
(428,572,o),
(484,518,o),
(484,480,qs),
(484,440,o),
(428,386,o),
(382,386,qs),
(337,386,o),
(281,440,o),
(281,480,qs),
(281,518,o),
(337,572,o),
(382,572,qs)
);
}
);
width = 526;
},
{
layerId = "45EFDBD1-9215-4FBA-A8FC-D2A4A2D194F0";
shapes = (
{
closed = 1;
nodes = (
(398,351,l),
(373,189,l),
(341,189,ls),
(289,189,o),
(202,173,o),
(138,133,o),
(103,68,o),
(103,19,qs),
(103,-29,o),
(165,-89,o),
(219,-89,qs),
(281,-89,o),
(366,-21,o),
(378,38,q),
(461,38,l),
(452,-7,o),
(408,-82,o),
(341,-134,o),
(255,-163,o),
(206,-163,qs),
(118,-163,o),
(16,-70,o),
(16,10,qs),
(16,69,o),
(59,157,o),
(134,219,o),
(238,250,o),
(300,250,q),
(322,351,l)
);
},
{
closed = 1;
nodes = (
(406,555,o),
(440,520,o),
(440,495,qs),
(440,470,o),
(406,437,o),
(380,437,qs),
(354,437,o),
(320,470,o),
(320,495,qs),
(320,520,o),
(354,555,o),
(380,555,qs)
);
}
);
width = 502;
},
{
layerId = "E8D95BBD-8C7B-4E49-82A7-0CC1B9EBDD01";
shapes = (
{
closed = 1;
nodes = (
(383,361,l),
(358,203,l),
(338,203,ls),
(279,203,o),
(182,183,o),
(112,137,o),
(74,62,o),
(74,7,qs),
(74,-50,o),
(148,-121,o),
(212,-121,qs),
(285,-121,o),
(385,-43,o),
(399,26,q),
(451,26,l),
(442,-19,o),
(397,-92,o),
(332,-142,o),
(250,-169,o),
(205,-169,qs),
(120,-169,o),
(21,-76,o),
(21,3,qs),
(21,62,o),
(64,151,o),
(141,213,o),
(249,244,o),
(313,244,q),
(337,361,l)
);
},
{
closed = 1;
nodes = (
(397,548,o),
(422,521,o),
(422,501,qs),
(422,482,o),
(397,457,o),
(379,457,qs),
(361,457,o),
(336,482,o),
(336,501,qs),
(336,521,o),
(361,548,o),
(379,548,qs)
);
}
);
width = 492;
}
);
unicode = 191;
},
{
glyphname = Acircumflex;
layers = (
{
layerId = "8E574D32-79B1-4C19-B318-CDC7DA43E89A";
shapes = (
{
closed = 1;
nodes = (
(-34,0,l),
(342,700,l),
(543,700,l),
(672,0,l),
(491,0,l),
(468,144,l),
(219,144,l),
(145,0,l)
);
},
{
closed = 1;
nodes = (
(448,274,l),
(410,513,l),
(286,274,l)
);
},
{
closed = 1;
nodes = (
(291,736,l),
(312,854,l),
(482,938,l),
(622,854,l),
(601,736,l),
(462,823,l)
);
}
);
width = 726;
},
{
layerId = "45EFDBD1-9215-4FBA-A8FC-D2A4A2D194F0";
shapes = (
{
closed = 1;
nodes = (
(-23,0,l),
(359,700,l),
(454,700,l),
(587,0,l),
(495,0,l),
(463,178,l),
(167,178,l),
(72,0,l)
);
},
{
closed = 1;
nodes = (
(452,248,l),
(388,595,l),
(203,248,l)
);
},
{
closed = 1;
nodes = (
(278,757,l),
(290,825,l),
(443,907,l),
(566,825,l),
(554,757,l),
(431,841,l)
);
}
);
width = 652;
},
{
layerId = "E8D95BBD-8C7B-4E49-82A7-0CC1B9EBDD01";
shapes = (
{
closed = 1;
nodes = (
(-18,0,l),
(366,700,l),
(418,700,l),
(553,0,l),
(497,0,l),
(461,192,l),
(146,192,l),
(43,0,l)
);
},
{
closed = 1;
nodes = (
(453,237,l),
(379,628,l),
(170,237,l)
);
},
{
closed = 1;
nodes = (
(273,765,l),
(281,813,l),
(427,894,l),
(543,813,l),
(535,765,l),
(419,848,l)
);
}
);
width = 623;
}
);
leftKerningGroup = A2;
rightKerningGroup = A;
unicode = 194;
},
{
glyphname = Aring;
layers = (
{
layerId = "8E574D32-79B1-4C19-B318-CDC7DA43E89A";
shapes = (
{
closed = 1;
nodes = (
(-34,0,l),
(342,700,l),
(543,700,l),
(672,0,l),
(491,0,l),
(468,144,l),
(219,144,l),
(145,0,l)
);
},
{
closed = 1;
nodes = (
(448,274,l),
(410,513,l),
(286,274,l)
);
},
{
closed = 1;
nodes = (
(417,741,o),
(346,805,o),
(346,862,qs),
(346,919,o),
(417,983,o),
(468,983,qs),
(494,983,o),
(538,966,o),
(572,935,o),
(591,890,o),
(591,862,qs),
(591,834,o),
(572,789,o),
(538,758,o),
(494,741,o),
(468,741,qs)
);
},
{
closed = 1;
nodes = (
(488,813,o),
(516,840,o),
(516,862,qs),
(516,885,o),
(488,911,o),
(468,911,qs),
(448,911,o),
(421,885,o),
(421,862,qs),
(421,840,o),
(448,813,o),
(468,813,qs)
);
}
);
width = 726;
},
{
layerId = "45EFDBD1-9215-4FBA-A8FC-D2A4A2D194F0";
shapes = (
{
closed = 1;
nodes = (
(-23,0,l),
(359,700,l),
(454,700,l),
(587,0,l),
(495,0,l),
(463,178,l),
(167,178,l),
(72,0,l)
);
},
{
closed = 1;
nodes = (
(452,248,l),
(388,595,l),
(203,248,l)
);
},
{
closed = 1;
nodes = (
(393,760,o),
(331,815,o),
(331,863,qs),
(331,912,o),
(393,967,o),
(437,967,qs),
(459,967,o),
(497,953,o),
(526,926,o),
(542,888,o),
(542,863,qs),
(542,840,o),
(526,801,o),
(497,774,o),
(459,760,o),
(437,760,qs)
);
},
{
closed = 1;
nodes = (
(461,805,o),
(494,836,o),
(494,863,qs),
(494,891,o),
(461,922,o),
(437,922,qs),
(413,922,o),
(380,891,o),
(380,863,qs),
(380,836,o),
(413,805,o),
(437,805,qs)
);
}
);
width = 652;
},
{
layerId = "E8D95BBD-8C7B-4E49-82A7-0CC1B9EBDD01";
shapes = (
{
closed = 1;
nodes = (
(-18,0,l),
(366,700,l),
(418,700,l),
(553,0,l),
(497,0,l),
(461,192,l),
(146,192,l),
(43,0,l)
);
},
{
closed = 1;
nodes = (
(453,237,l),
(379,628,l),
(170,237,l)
);
},
{
closed = 1;
nodes = (
(384,767,o),
(325,819,o),
(325,864,qs),
(325,909,o),
(384,961,o),
(424,961,qs),
(445,961,o),
(481,948,o),
(508,922,o),
(523,887,o),
(523,864,qs),
(523,842,o),
(508,806,o),
(481,780,o),
(445,767,o),
(424,767,qs)
);
},
{
closed = 1;
nodes = (
(450,802,o),
(485,835,o),
(485,864,qs),
(485,894,o),
(450,927,o),
(424,927,qs),
(399,927,o),
(364,894,o),
(364,864,qs),
(364,835,o),
(399,802,o),
(424,802,qs)
);
}
);
width = 623;
}
);
leftKerningGroup = A2;
rightKerningGroup = A;
unicode = 197;
},
{
glyphname = AE;
layers = (
{
layerId = "8E574D32-79B1-4C19-B318-CDC7DA43E89A";
shapes = (
{
closed = 1;
nodes = (
(-34,0,l),
(450,700,l),
(990,700,l),
(966,565,l),
(713,565,l),
(687,423,l),
(911,423,l),
(889,293,l),
(665,293,l),
(637,135,l),
(890,135,l),
(866,0,l),
(442,0,l),
(463,118,l),
(233,118,l),
(152,0,l)
);
},
{
closed = 1;
nodes = (
(486,248,l),
(543,573,l),
(321,248,l)
);
}
);
width = 960;
},
{
layerId = "45EFDBD1-9215-4FBA-A8FC-D2A4A2D194F0";
shapes = (
{
closed = 1;
nodes = (
(-23,0,l),
(499,700,l),
(929,700,l),
(917,630,l),
(629,630,l),
(586,388,l),
(844,388,l),
(833,319,l),
(575,319,l),
(531,70,l),
(818,70,l),
(805,0,l),
(430,0,l),
(458,157,l),
(192,157,l),
(74,0,l)
);
},
{
closed = 1;
nodes = (
(470,227,l),
(542,628,l),
(242,227,l)
);
}
);
width = 904;
},
{
layerId = "E8D95BBD-8C7B-4E49-82A7-0CC1B9EBDD01";
shapes = (
{
closed = 1;
nodes = (
(-18,0,l),
(519,700,l),
(905,700,l),
(897,656,l),
(596,656,l),
(546,374,l),
(817,374,l),
(810,329,l),
(539,329,l),
(489,44,l),
(789,44,l),
(781,0,l),
(425,0,l),
(456,173,l),
(176,173,l),
(43,0,l)
);
},
{
closed = 1;
nodes = (
(464,218,l),
(541,650,l),
(210,218,l)
);
}
);
width = 882;
}
);
leftKerningGroup = AE;
unicode = 198;
},
{
glyphname = Ecircumflex;
layers = (
{
layerId = "8E574D32-79B1-4C19-B318-CDC7DA43E89A";
shapes = (
{
closed = 1;
nodes = (
(12,0,l),
(136,700,l),
(596,700,l),
(572,565,l),
(283,565,l),
(258,421,l),
(517,421,l),
(494,292,l),
(235,292,l),
(207,135,l),
(496,135,l),
(472,0,l)
);
},
{
closed = 1;
nodes = (
(228,736,l),
(249,854,l),
(419,938,l),
(559,854,l),
(538,736,l),
(399,823,l)
);
}
);
width = 566;
},
{
layerId = "45EFDBD1-9215-4FBA-A8FC-D2A4A2D194F0";
shapes = (
{
closed = 1;
nodes = (
(23,0,l),
(146,700,l),
(554,700,l),
(541,630,l),
(222,630,l),
(179,387,l),
(468,387,l),
(457,318,l),
(167,318,l),
(123,70,l),
(442,70,l),
(430,0,l)
);
},
{
closed = 1;
nodes = (
(223,757,l),
(235,825,l),
(388,907,l),
(510,825,l),
(499,757,l),
(376,841,l)
);
}
);
width = 529;
},
{
layerId = "E8D95BBD-8C7B-4E49-82A7-0CC1B9EBDD01";
shapes = (
{
closed = 1;
nodes = (
(27,0,l),
(150,700,l),
(537,700,l),
(528,656,l),
(197,656,l),
(148,374,l),
(448,374,l),
(442,329,l),
(140,329,l),
(90,44,l),
(421,44,l),
(413,0,l)
);
},
{
closed = 1;
nodes = (
(221,765,l),
(229,813,l),
(375,894,l),
(491,813,l),
(483,765,l),
(367,848,l)
);
}
);
width = 514;
}
);
unicode = 202;
},
{
glyphname = Eth;
layers = (
{
layerId = "8E574D32-79B1-4C19-B318-CDC7DA43E89A";
shapes = (
{
closed = 1;
nodes = (
(13,0,l),
(62,280,l),
(-3,280,l),
(23,422,l),
(87,422,l),
(136,700,l),
(399,700,ls),
(477,700,o),
(592,658,o),
(667,582,o),
(704,476,o),
(704,413,qs),
(704,322,o),
(642,170,o),
(529,61,o),
(372,0,o),
(276,0,qs)
);
},
{
closed = 1;
nodes = (
(259,422,l),
(409,422,l),
(384,280,l),
(233,280,l),
(210,148,l),
(291,148,ls),
(348,148,o),
(437,183,o),
(497,247,o),
(528,340,o),
(528,398,qs),
(528,479,o),
(444,554,o),
(363,554,qs),
(282,554,l)
);
}
);
width = 717;
},
{
layerId = "45EFDBD1-9215-4FBA-A8FC-D2A4A2D194F0";
shapes = (
{
closed = 1;
nodes = (
(23,0,l),
(78,309,l),
(6,309,l),
(20,388,l),
(91,388,l),
(146,700,l),
(363,700,ls),
(443,700,o),
(558,663,o),
(633,591,o),
(670,485,o),
(670,417,qs),
(670,325,o),
(609,171,o),
(498,61,o),
(338,0,o),
(240,0,qs)
);
},
{
closed = 1;
nodes = (
(180,388,l),
(392,388,l),
(378,309,l),
(165,309,l),
(124,74,l),
(251,74,ls),
(329,74,o),
(451,122,o),
(535,209,o),
(579,334,o),
(579,410,qs),
(579,517,o),
(471,626,o),
(349,626,qs),
(221,626,l)
);
}
);
width = 702;
},
{
layerId = "E8D95BBD-8C7B-4E49-82A7-0CC1B9EBDD01";
shapes = (
{
closed = 1;
nodes = (
(27,0,l),
(84,321,l),
(10,321,l),
(19,375,l),
(93,375,l),
(150,700,l),
(349,700,ls),
(429,700,o),
(544,665,o),
(620,594,o),
(656,489,o),
(656,419,qs),
(656,326,o),
(596,171,o),
(485,61,o),
(325,0,o),
(226,0,qs)
);
},
{
closed = 1;
nodes = (
(148,375,l),
(385,375,l),
(376,321,l),
(138,321,l),
(90,45,l),
(235,45,ls),
(321,45,o),
(456,97,o),
(550,194,o),
(600,331,o),
(600,415,qs),
(600,532,o),
(482,655,o),
(343,655,qs),
(197,655,l)
);
}
);
width = 696;
}
);
rightKerningGroup = D;
unicode = 208;
},
{
glyphname = Ocircumflex;
layers = (
{
layerId = "8E574D32-79B1-4C19-B318-CDC7DA43E89A";
shapes = (
{
closed = 1;
nodes = (
(295,-12,o),
(181,34,o),
(98,116,o),
(52,228,o),
(52,294,qs),
(52,381,o),
(117,534,o),
(231,647,o),
(385,712,o),
(474,712,qs),
(542,712,o),
(656,666,o),
(739,584,o),
(785,472,o),
(785,406,qs),
(785,319,o),
(720,166,o),
(606,53,o),
(452,-12,o),
(363,-12,qs)
);
},
{
closed = 1;
nodes = (
(429,143,o),
(512,181,o),
(573,247,o),
(609,338,o),
(609,390,qs),
(609,428,o),
(591,489,o),
(553,533,o),
(495,557,o),
(455,557,qs),
(408,557,o),
(325,519,o),
(264,453,o),
(228,363,o),
(228,310,qs),
(228,273,o),
(248,211,o),
(287,167,o),
(345,143,o),
(382,143,qs)
);
},
{
closed = 1;
nodes = (
(332,736,l),
(353,854,l),
(523,938,l),
(663,854,l),
(642,736,l),
(503,823,l)
);
}
);
width = 801;
},
{
layerId = "45EFDBD1-9215-4FBA-A8FC-D2A4A2D194F0";
shapes = (
{
closed = 1;
nodes = (
(281,-12,o),
(173,33,o),
(96,112,o),
(53,222,o),
(53,287,qs),
(53,375,o),
(119,530,o),
(233,646,o),
(385,712,o),
(471,712,qs),
(536,712,o),
(644,668,o),
(721,589,o),
(764,481,o),
(764,415,qs),
(764,326,o),
(698,170,o),
(584,54,o),
(432,-12,o),
(346,-12,qs)
);
},
{
closed = 1;
nodes = (
(423,66,o),
(538,120,o),
(623,212,o),
(673,338,o),
(673,410,qs),
(673,462,o),
(642,545,o),
(585,602,o),
(506,633,o),
(459,633,qs),
(394,633,o),
(279,580,o),
(194,488,o),
(144,364,o),
(144,292,qs),
(144,241,o),
(176,157,o),
(232,98,o),
(311,66,o),
(358,66,qs)
);
},
{
closed = 1;
nodes = (
(342,757,l),
(354,825,l),
(507,907,l),
(629,825,l),
(618,757,l),
(495,841,l)
);
}
);
width = 781;
},
{
layerId = "E8D95BBD-8C7B-4E49-82A7-0CC1B9EBDD01";
shapes = (
{
closed = 1;
nodes = (
(275,-12,o),
(170,32,o),
(95,110,o),
(53,219,o),
(53,284,qs),
(53,373,o),
(120,529,o),
(234,645,o),
(385,712,o),
(470,712,qs),
(534,712,o),
(639,669,o),
(714,591,o),
(755,484,o),
(755,419,qs),
(755,329,o),
(689,172,o),
(575,55,o),
(424,-12,o),
(339,-12,qs)
);
},
{
closed = 1;
nodes = (
(421,35,o),
(548,95,o),
(643,198,o),
(698,338,o),
(698,418,qs),
(698,476,o),
(662,567,o),
(598,630,o),
(511,664,o),
(460,664,qs),
(388,664,o),
(260,605,o),
(166,502,o),
(111,364,o),
(111,285,qs),
(111,228,o),
(147,135,o),
(210,70,o),
(298,35,o),
(349,35,qs)
);
},
{
closed = 1;
nodes = (
(346,765,l),
(354,813,l),
(500,894,l),
(616,813,l),
(608,765,l),
(492,848,l)
);
}
);
width = 773;
}
);
leftKerningGroup = C2;
rightKerningGroup = D;
unicode = 212;
},
{
glyphname = multiply;
layers = (
{
layerId = "8E574D32-79B1-4C19-B318-CDC7DA43E89A";
shapes = (
{
closed = 1;
nodes = (
(113,73,l),
(31,173,l),
(167,289,l),
(72,405,l),
(190,505,l),
(285,389,l),
(422,505,l),
(504,405,l),
(367,289,l),
(463,173,l),
(345,73,l),
(250,189,l)
);
}
);
width = 520;
},
{
layerId = "45EFDBD1-9215-4FBA-A8FC-D2A4A2D194F0";
shapes = (
{
closed = 1;
nodes = (
(82,104,l),
(39,157,l),
(195,290,l),
(89,419,l),
(150,470,l),
(256,341,l),
(415,477,l),
(458,425,l),
(299,289,l),
(405,161,l),
(344,110,l),
(239,238,l)
);
}
);
width = 482;
},
{
layerId = "E8D95BBD-8C7B-4E49-82A7-0CC1B9EBDD01";
shapes = (
{
closed = 1;
nodes = (
(70,117,l),
(42,150,l),
(206,291,l),
(96,425,l),
(134,456,l),
(245,322,l),
(412,466,l),
(440,433,l),
(272,289,l),
(382,156,l),
(344,125,l),
(234,258,l)
);
}
);
width = 467;
}
);
unicode = 215;
},
{
glyphname = Oslash;
layers = (
{
layerId = "8E574D32-79B1-4C19-B318-CDC7DA43E89A";
shapes = (
{
closed = 1;
nodes = (
(303,-12,o),
(209,17,o),
(171,44,q),
(126,0,l),
(-28,0,l),
(95,122,l),
(72,158,o),
(46,245,o),
(46,294,qs),
(46,381,o),
(111,534,o),
(225,647,o),
(379,712,o),
(468,712,qs),
(519,712,o),
(606,686,o),
(643,663,q),
(680,700,l),
(834,700,l),
(722,589,l),
(749,551,o),
(779,460,o),
(779,406,qs),
(779,319,o),
(714,166,o),
(600,53,o),
(446,-12,o),
(357,-12,qs)
);
},
{
closed = 1;
nodes = (
(522,543,l),
(506,550,o),
(470,557,o),
(449,557,qs),
(402,557,o),
(319,519,o),
(258,453,o),
(222,363,o),
(222,310,qs),
(222,294,o),
(225,266,o),
(229,254,q)
);
},
{
closed = 1;
nodes = (
(423,143,o),
(506,181,o),
(567,247,o),
(603,338,o),
(603,390,qs),
(603,410,o),
(598,446,o),
(593,462,q),
(292,164,l),
(309,153,o),
(351,143,o),
(376,143,qs)
);
}
);
width = 774;
},
{
layerId = "45EFDBD1-9215-4FBA-A8FC-D2A4A2D194F0";
shapes = (
{
closed = 1;
nodes = (
(282,-12,o),
(183,26,o),
(145,60,q),
(80,0,l),
(-13,0,l),
(101,108,l),
(76,145,o),
(49,234,o),
(49,287,qs),
(49,375,o),
(115,530,o),
(229,646,o),
(381,712,o),
(467,712,qs),
(528,712,o),
(627,674,o),
(664,640,q),
(728,700,l),
(820,700,l),
(708,593,l),
(733,557,o),
(760,467,o),
(760,415,qs),
(760,326,o),
(694,170,o),
(580,54,o),
(428,-12,o),
(342,-12,qs)
);
},
{
closed = 1;
nodes = (
(601,579,l),
(573,606,o),
(499,633,o),
(455,633,qs),
(390,633,o),
(275,580,o),
(190,488,o),
(141,364,o),
(141,292,qs),
(141,258,o),
(156,198,o),
(169,174,q)
);
},
{
closed = 1;
nodes = (
(419,66,o),
(534,120,o),
(619,212,o),
(669,338,o),
(669,410,qs),
(669,446,o),
(654,504,o),
(641,529,q),
(208,121,l),
(235,94,o),
(310,66,o),
(355,66,qs)
);
}
);
width = 772;
},
{
layerId = "E8D95BBD-8C7B-4E49-82A7-0CC1B9EBDD01";
shapes = (
{
closed = 1;
nodes = (
(273,-12,o),
(172,29,o),
(134,67,q),
(62,0,l),
(-7,0,l),
(104,103,l),
(77,140,o),
(50,230,o),
(50,284,qs),
(50,373,o),
(117,529,o),
(231,645,o),
(382,712,o),
(467,712,qs),
(531,712,o),
(635,669,o),
(673,631,q),
(747,700,l),
(815,700,l),
(702,595,l),
(726,559,o),
(752,470,o),
(752,419,qs),
(752,329,o),
(686,172,o),
(572,55,o),
(421,-12,o),
(336,-12,qs)
);
},
{
closed = 1;
nodes = (
(632,593,l),
(600,628,o),
(511,664,o),
(457,664,qs),
(385,664,o),
(257,605,o),
(163,502,o),
(108,364,o),
(108,285,qs),
(108,243,o),
(128,171,o),
(145,142,q)
);
},
{
closed = 1;
nodes = (
(418,35,o),
(545,95,o),
(640,198,o),
(695,338,o),
(695,418,qs),
(695,460,o),
(677,527,o),
(660,556,q),
(174,104,l),
(206,71,o),
(294,35,o),
(346,35,qs)
);
}
);
width = 771;
}
);
unicode = 216;
},
{
glyphname = Thorn;
layers = (
{
layerId = "8E574D32-79B1-4C19-B318-CDC7DA43E89A";
shapes = (
{
closed = 1;
nodes = (
(13,0,l),
(136,700,l),
(307,700,l),
(285,575,l),
(401,575,ls),
(458,575,o),
(541,544,o),
(569,518,qs),
(597,491,o),
(624,420,o),
(624,381,qs),
(624,321,o),
(580,227,o),
(539,194,qs),
(498,161,o),
(388,125,o),
(322,125,qs),
(206,125,l),
(184,0,l)
);
},
{
closed = 1;
nodes = (
(230,261,l),
(333,261,ls),
(387,261,o),
(448,320,o),
(448,371,qs),
(448,402,o),
(409,437,o),
(364,437,qs),
(261,437,l)
);
}
);
width = 626;
},
{
layerId = "45EFDBD1-9215-4FBA-A8FC-D2A4A2D194F0";
shapes = (
{
closed = 1;
nodes = (
(23,0,l),
(146,700,l),
(234,700,l),
(209,555,l),
(354,555,ls),
(409,555,o),
(486,528,o),
(512,506,q),
(537,482,o),
(562,419,o),
(562,382,qs),
(562,328,o),
(521,241,o),
(484,210,qs),
(447,179,o),
(344,146,o),
(281,146,qs),
(137,146,l),
(111,0,l)
);
},
{
closed = 1;
nodes = (
(150,219,l),
(292,219,ls),
(377,219,o),
(470,304,o),
(470,382,qs),
(470,431,o),
(410,482,o),
(339,482,qs),
(197,482,l)
);
}
);
width = 570;
},
{
layerId = "E8D95BBD-8C7B-4E49-82A7-0CC1B9EBDD01";
shapes = (
{
closed = 1;
nodes = (
(27,0,l),
(150,700,l),
(205,700,l),
(179,547,l),
(335,547,ls),
(389,547,o),
(464,522,o),
(489,501,q),
(513,479,o),
(537,419,o),
(537,383,qs),
(537,331,o),
(498,246,o),
(462,216,qs),
(426,186,o),
(326,154,o),
(265,154,qs),
(109,154,l),
(82,0,l)
);
},
{
closed = 1;
nodes = (
(118,202,l),
(276,202,ls),
(373,202,o),
(479,298,o),
(479,386,qs),
(479,443,o),
(410,500,o),
(329,500,qs),
(171,500,l)
);
}
);
width = 547;
}
);
unicode = 222;
},
